<svg width="274" height="282" viewBox="0 0 274 282" fill="none" xmlns="http://www.w3.org/2000/svg">
<g clip-path="url(#clip0_28049_44192)">
<path fill-rule="evenodd" clip-rule="evenodd" d="M189.987 67.478C189.987 67.478 191.264 60.9122 198.882 61.6784C198.882 61.6784 207.267 72.7988 194.02 79.7903C180.773 86.7711 189.349 69.021 189.987 67.478Z" fill="#D57A31"/>
<path fill-rule="evenodd" clip-rule="evenodd" d="M198.882 61.667C198.882 61.667 201.297 67.5305 199.925 71.0528C198.552 74.5751 191.434 75.9053 191.434 75.9053C191.434 75.9053 191.849 78.6296 192.211 80.6408C192.764 80.4067 193.36 80.13 194.02 79.7788C207.266 72.798 198.882 61.667 198.882 61.667Z" fill="#F0DCCA"/>
<path fill-rule="evenodd" clip-rule="evenodd" d="M167.335 87.3774C167.335 87.3774 167.303 99.4449 165.015 108.831C165.015 108.831 170.793 111.927 173.548 110.001C173.548 110.001 176.219 90.655 175.049 84.2914C173.868 77.9277 168.899 84.4084 167.335 87.3774Z" fill="#B36127"/>
<path fill-rule="evenodd" clip-rule="evenodd" d="M166.292 109.437C168.537 101.573 168.707 89.0585 168.707 89.0585L167.441 87.1855C167.409 87.2494 167.367 87.3239 167.335 87.3877C167.335 87.3877 167.303 99.4552 165.015 108.841C165.015 108.83 165.515 109.107 166.292 109.437Z" fill="#DA7C32"/>
<path fill-rule="evenodd" clip-rule="evenodd" d="M173.538 110.001C173.538 110.001 173.644 109.256 173.793 108.022C172.984 107.245 171.24 105.734 169.282 104.946C167.728 104.318 166.547 104.499 165.845 104.765C165.611 106.149 165.334 107.511 165.015 108.83C165.015 108.83 170.782 111.927 173.538 110.001Z" fill="#190000"/>
<path fill-rule="evenodd" clip-rule="evenodd" d="M166.292 109.438C166.718 107.926 167.069 106.256 167.367 104.532C166.739 104.511 166.217 104.628 165.845 104.777C165.611 106.16 165.334 107.522 165.015 108.842C165.015 108.831 165.515 109.108 166.292 109.438Z" fill="#432528"/>
<path fill-rule="evenodd" clip-rule="evenodd" d="M144.746 84.0464C144.746 84.0464 144.714 96.1138 142.416 105.5C142.416 105.5 148.193 108.596 150.949 106.67C150.949 106.67 153.62 87.324 152.449 80.9603C151.279 74.6074 146.31 81.088 144.746 84.0464Z" fill="#B36127"/>
<path fill-rule="evenodd" clip-rule="evenodd" d="M143.703 106.107C145.948 98.2428 146.119 85.7284 146.119 85.7284L144.853 83.8555C144.81 83.9193 144.778 83.9832 144.746 84.0577C144.746 84.0577 144.714 96.1251 142.416 105.511C142.416 105.511 142.927 105.777 143.703 106.107Z" fill="#DA7C32"/>
<path fill-rule="evenodd" clip-rule="evenodd" d="M150.949 106.681C150.949 106.681 151.056 105.937 151.205 104.702C150.396 103.925 148.651 102.414 146.693 101.616C145.14 100.988 143.969 101.169 143.257 101.435C143.022 102.819 142.746 104.181 142.416 105.5C142.416 105.511 148.193 108.608 150.949 106.681Z" fill="#190000"/>
<path fill-rule="evenodd" clip-rule="evenodd" d="M143.703 106.107C144.14 104.596 144.491 102.925 144.778 101.201C144.15 101.19 143.629 101.297 143.257 101.446C143.022 102.829 142.746 104.191 142.416 105.511C142.416 105.511 142.927 105.777 143.703 106.107Z" fill="#432528"/>
<path fill-rule="evenodd" clip-rule="evenodd" d="M179.273 90.9852C179.273 90.9852 179.241 103.053 176.942 112.449C176.942 112.449 182.72 115.546 185.476 113.62C185.476 113.62 188.146 94.2735 186.976 87.9098C185.805 81.5462 180.837 88.0269 179.273 90.9852Z" fill="#D57A31"/>
<path fill-rule="evenodd" clip-rule="evenodd" d="M178.23 113.044C180.475 105.18 180.645 92.6659 180.645 92.6659L179.379 90.793C179.347 90.8568 179.304 90.9313 179.273 90.9952C179.273 90.9952 179.241 103.063 176.942 112.459C176.942 112.448 177.453 112.714 178.23 113.044Z" fill="#ED974C"/>
<path fill-rule="evenodd" clip-rule="evenodd" d="M139.469 79.9705C139.469 79.9705 140.277 91.4314 153.716 95.9859C167.165 100.53 185.795 101.69 191.594 90.8035C197.616 79.5022 198.425 66.7963 181.337 60.1879C163.228 53.1858 139.469 79.9705 139.469 79.9705Z" fill="#D57A31"/>
<path fill-rule="evenodd" clip-rule="evenodd" d="M191.594 90.804C197.435 79.8432 198.371 67.5416 182.794 60.7949L183.146 62.1996C183.146 62.1996 193.296 66.7116 194.456 77.3957C195.041 82.8228 192.945 88.1968 190.742 92.1767C191.051 91.7298 191.338 91.2828 191.594 90.804Z" fill="#ED974C"/>
<path fill-rule="evenodd" clip-rule="evenodd" d="M135.425 73.9268C135.425 73.9268 132.361 82.5251 130.893 87.2393C129.424 91.9535 129.424 91.9535 129.424 91.9535L137.202 93.7519L140 76.0018L135.425 73.9268Z" fill="#A1171B"/>
<path fill-rule="evenodd" clip-rule="evenodd" d="M135.223 76.2784L136.67 74.48L135.425 73.916C135.425 73.916 132.361 82.5144 130.893 87.2285C129.424 91.9427 129.424 91.9427 129.424 91.9427L130.339 92.1556L135.223 76.2784Z" fill="#B91E23"/>
<path fill-rule="evenodd" clip-rule="evenodd" d="M132.042 62.966C132.042 62.966 128.691 79.5561 146.406 83.7169C164.122 87.8778 178.156 78.2472 182.167 71.3728C186.189 64.4984 185.657 57.5282 180.454 53.7079C175.251 49.8982 132.042 62.966 132.042 62.966Z" fill="#C92128"/>
<path fill-rule="evenodd" clip-rule="evenodd" d="M181.571 54.665L181.901 56.2932C181.901 56.2932 185.38 60.2306 183.869 67.7328C185.657 62.6568 184.912 57.8469 181.571 54.665Z" fill="#DF4633"/>
<path fill-rule="evenodd" clip-rule="evenodd" d="M136.787 78.811C132.808 73.0965 133 65.4453 133 65.4453C133 65.4453 133.042 64.0832 133.085 62.6572C132.414 62.8594 132.042 62.9658 132.042 62.9658C132.042 62.9658 130.148 72.3836 136.787 78.811Z" fill="#DF4633"/>
<path fill-rule="evenodd" clip-rule="evenodd" d="M147.512 83.9509C145.65 76.5338 149.747 71.9792 149.747 71.9792L150.279 67.978C150.279 67.978 146.257 67.5311 145.906 67.6907C145.555 67.8503 143.342 73.8734 143.342 73.8734L143.214 82.7484C144.193 83.1209 145.257 83.4401 146.406 83.7168C146.768 83.8019 147.14 83.8764 147.512 83.9509Z" fill="#AB1A1F"/>
<path fill-rule="evenodd" clip-rule="evenodd" d="M135.479 16.6324C135.479 16.6324 130.68 15.5683 131.116 11.035C131.116 11.035 131.02 7.92767 128.68 8.06601C126.339 8.20435 126.435 9.68352 126.637 12.7802C126.881 16.4196 129.722 20.74 136.851 20.772C143.98 20.8039 135.479 16.6324 135.479 16.6324Z" fill="#351514"/>
<path fill-rule="evenodd" clip-rule="evenodd" d="M144.31 27.189C144.31 27.189 139.352 20.6977 140.565 13.4082C141.788 6.1188 143.927 5.40581 144.065 3.23495C144.203 1.06408 140.596 -2.21351 137.894 2.14951C135.191 6.51253 133.351 13.7807 134.862 19.5484C136.372 25.3161 136.585 27.0294 139.256 29.8068C141.926 30.6581 144.906 30.3814 144.31 27.189Z" fill="#351514"/>
<path fill-rule="evenodd" clip-rule="evenodd" d="M176.315 34.2551C176.315 34.2551 186.518 24.2095 197.69 31.2223C197.69 31.2223 199.542 32.9462 197.073 35.7449C194.605 38.5543 187.444 43.5877 178.24 40.4272C169.026 37.2667 174.58 34.5637 176.315 34.2551Z" fill="#D57A31"/>
<path fill-rule="evenodd" clip-rule="evenodd" d="M178.358 36.564C178.358 36.564 183.454 33.9887 187.434 33.7333C191.402 33.4779 195.35 32.9352 194.637 34.159C193.924 35.3721 188.657 39.6394 179.964 38.9051C171.271 38.1708 178.358 36.564 178.358 36.564Z" fill="#8B4018"/>
<path fill-rule="evenodd" clip-rule="evenodd" d="M138.522 32.8073C138.522 32.8073 133.234 19.4947 120.189 21.4102C120.189 21.4102 117.795 22.2402 118.934 25.8051C120.061 29.37 124.583 36.8617 134.276 37.6917C143.98 38.5005 139.979 33.7756 138.522 32.8073Z" fill="#D57A31"/>
<path fill-rule="evenodd" clip-rule="evenodd" d="M135.723 34.0951C135.723 34.0951 132.095 29.6895 128.562 27.8486C125.03 26.0076 121.636 23.9325 121.795 25.3265C121.955 26.7312 125.062 32.7649 133.308 35.5849C141.554 38.4262 135.723 34.0951 135.723 34.0951Z" fill="#8B4018"/>
<path fill-rule="evenodd" clip-rule="evenodd" d="M182.858 22.8579C182.858 22.8579 187.668 23.8157 189.104 19.4952C189.104 19.4952 190.445 16.6858 192.53 17.7606C194.616 18.8248 193.935 20.1443 192.498 22.8898C190.807 26.1142 186.465 28.9236 179.932 26.0823C173.4 23.241 182.858 22.8579 182.858 22.8579Z" fill="#351514"/>
<path fill-rule="evenodd" clip-rule="evenodd" d="M154.684 23.656C163.238 24.6563 178.655 30.0089 181.72 40.7569C184.784 51.5048 183.326 63.0402 174.197 68.7228C165.068 74.4053 152.226 77.1295 135.266 67.3713C118.316 57.6024 127.392 39.7459 130.637 34.6699C133.883 29.5833 141.958 22.1662 154.684 23.656Z" fill="#D57A31"/>
<path fill-rule="evenodd" clip-rule="evenodd" d="M154.684 23.6557C141.959 22.1659 133.883 29.5937 130.638 34.6697C128.51 38.0005 123.871 46.8436 125.722 55.2823C125.616 51.1002 126.02 46.7265 127.499 43.0552C131.861 32.1796 141.639 23.3897 153.013 24.4645C161.504 25.2626 169.25 28.3806 172.623 29.9129C166.813 26.2523 159.61 24.2304 154.684 23.6557Z" fill="#ED974C"/>
<path fill-rule="evenodd" clip-rule="evenodd" d="M169.92 71.0001C171.484 67.9673 172.048 64.4449 171.388 60.9439C169.069 48.6636 157.759 43.13 151.47 41.5444C145.14 39.9482 137.202 40.1717 130.574 46.9184C127.882 49.6639 126.286 52.6116 125.828 55.6551C126.871 59.9436 129.627 64.1044 135.287 67.3607C149.725 75.6824 161.195 74.9268 169.92 71.0001Z" fill="#F0DCCA"/>
<path fill-rule="evenodd" clip-rule="evenodd" d="M159.589 43.5348C160.546 43.737 161.429 43.4603 161.536 42.9069C161.653 42.3642 160.961 41.7576 160.003 41.5554C159.046 41.3533 158.173 41.6299 158.056 42.1727C157.939 42.726 158.631 43.3326 159.589 43.5348Z" fill="#F15B67"/>
<path fill-rule="evenodd" clip-rule="evenodd" d="M138.745 40.5339C139.703 40.7361 140.575 40.4594 140.692 39.9167C140.809 39.374 140.118 38.7674 139.16 38.5652C138.203 38.363 137.32 38.6397 137.213 39.1824C137.096 39.7145 137.788 40.3317 138.745 40.5339Z" fill="#F15B67"/>
<path fill-rule="evenodd" clip-rule="evenodd" d="M138.83 28.4448C138.83 28.4448 140.458 26.0292 142.841 26.8912C145.214 27.7531 145.597 29.6899 145.597 29.6899C146.15 25.6461 140.586 24.2095 138.83 28.4448Z" fill="#35190C"/>
<path fill-rule="evenodd" clip-rule="evenodd" d="M164.887 32.4353C164.887 32.4353 164.313 29.2322 161.493 29.0513C158.673 28.8704 157.418 30.6688 157.418 30.6688C158.684 26.2951 165.004 27.338 164.887 32.4353Z" fill="#35190C"/>
<path fill-rule="evenodd" clip-rule="evenodd" d="M159.152 39.9584C160.972 40.3415 162.845 38.8091 163.323 36.5425C163.802 34.2759 162.706 32.1156 160.876 31.7325C159.057 31.3494 157.184 32.8818 156.705 35.1485C156.237 37.4151 157.333 39.5647 159.152 39.9584Z" fill="url(#paint0_linear_28049_44192)"/>
<path fill-rule="evenodd" clip-rule="evenodd" d="M159.493 38.3306C160.599 38.5647 161.727 37.6282 162.014 36.2661C162.302 34.8934 161.642 33.5845 160.546 33.3503C159.44 33.1162 158.301 34.0527 158.014 35.4254C157.727 36.7875 158.397 38.0965 159.493 38.3306Z" fill="#2F1305"/>
<path fill-rule="evenodd" clip-rule="evenodd" d="M159.557 38.0428C160.525 38.245 161.536 37.4256 161.791 36.2231C162.046 35.01 161.461 33.8607 160.493 33.6478C159.514 33.4456 158.514 34.265 158.259 35.4782C158.003 36.6807 158.588 37.8406 159.557 38.0428Z" fill="#220400"/>
<path fill-rule="evenodd" clip-rule="evenodd" d="M159.631 37.7232C160.461 37.8935 161.313 37.1912 161.536 36.1589C161.759 35.1161 161.259 34.137 160.429 33.9561C159.589 33.7752 158.738 34.4776 158.514 35.5204C158.291 36.5527 158.791 37.5423 159.631 37.7232Z" fill="#110000"/>
<path fill-rule="evenodd" clip-rule="evenodd" d="M160.482 32.5205C161.014 32.8504 161.1 33.6485 160.663 34.3083C160.238 34.968 159.45 35.2341 158.918 34.9042C158.386 34.5743 158.301 33.7762 158.737 33.1164C159.163 32.4566 159.94 32.1906 160.482 32.5205Z" fill="white"/>
<path opacity="0.2" fill-rule="evenodd" clip-rule="evenodd" d="M158.95 38.7138C158.95 38.7138 160.461 39.9269 161.738 38.6818C161.738 38.6818 162.015 38.0114 161.738 37.7667C161.461 37.5113 161.089 37.8092 160.823 38.1072C160.557 38.4052 159.876 38.3413 159.695 38.1179C159.514 37.8944 159.025 37.8199 158.844 38.0434C158.514 38.4797 158.95 38.7138 158.95 38.7138Z" fill="white"/>
<path fill-rule="evenodd" clip-rule="evenodd" d="M140.586 37.5649C142.405 37.948 144.278 36.4156 144.757 34.1489C145.236 31.8823 144.14 29.7221 142.31 29.339C140.49 28.9559 138.618 30.4883 138.139 32.7549C137.671 35.0215 138.767 37.1711 140.586 37.5649Z" fill="url(#paint1_linear_28049_44192)"/>
<path fill-rule="evenodd" clip-rule="evenodd" d="M140.927 35.937C142.033 36.1711 143.161 35.2347 143.448 33.8726C143.736 32.4998 143.076 31.1909 141.969 30.9568C140.863 30.7227 139.735 31.6591 139.448 33.0319C139.16 34.394 139.82 35.7029 140.927 35.937Z" fill="#2F1305"/>
<path fill-rule="evenodd" clip-rule="evenodd" d="M140.99 35.6492C141.969 35.8514 142.969 35.032 143.225 33.8295C143.48 32.6164 142.895 31.4671 141.927 31.2543C140.948 31.0521 139.947 31.8715 139.692 33.0846C139.426 34.2871 140.011 35.447 140.99 35.6492Z" fill="#220400"/>
<path fill-rule="evenodd" clip-rule="evenodd" d="M141.054 35.3304C141.884 35.5007 142.736 34.809 142.959 33.7768C143.182 32.7339 142.672 31.7549 141.852 31.574C141.022 31.3931 140.161 32.1061 139.948 33.1383C139.724 34.1705 140.224 35.1495 141.054 35.3304Z" fill="#110000"/>
<path fill-rule="evenodd" clip-rule="evenodd" d="M141.905 30.1269C142.437 30.4568 142.523 31.2549 142.097 31.9147C141.671 32.5745 140.884 32.8405 140.352 32.5106C139.82 32.1807 139.735 31.3826 140.171 30.7229C140.597 30.0631 141.373 29.797 141.905 30.1269Z" fill="white"/>
<path opacity="0.2" fill-rule="evenodd" clip-rule="evenodd" d="M140.384 36.3202C140.384 36.3202 141.895 37.5334 143.171 36.2883C143.171 36.2883 143.448 35.6179 143.171 35.3731C142.895 35.1177 142.522 35.4157 142.256 35.7137C141.99 36.0116 141.309 35.9478 141.129 35.7243C140.948 35.5008 140.458 35.4263 140.277 35.6498C139.937 36.0861 140.384 36.3202 140.384 36.3202Z" fill="white"/>
<path fill-rule="evenodd" clip-rule="evenodd" d="M142.544 55.1445C142.544 55.1445 146.225 56.9536 148.853 57.1132C151.492 57.2728 155.248 57.0068 155.248 57.0068C155.248 57.0068 154.226 65.8073 148.321 65.5519C142.427 65.2859 141.959 58.6349 142.544 55.1445Z" fill="#35190C"/>
<path fill-rule="evenodd" clip-rule="evenodd" d="M143.714 63.0084C144.629 64.4237 146.076 65.456 148.321 65.5517C152.152 65.722 153.929 62.072 154.695 59.4861C148.119 56.1127 144.8 60.912 143.714 63.0084Z" fill="#E23C5B"/>
<path fill-rule="evenodd" clip-rule="evenodd" d="M146.183 64.2003C146.183 64.2003 145.055 62.4551 146.417 61.4442C147.789 60.4332 150.034 59.4223 151.481 60.5609C152.928 61.6996 152.822 63.2532 150.939 64.1684C149.066 65.0836 147.779 65.456 146.183 64.2003Z" fill="#F15B67"/>
<path fill-rule="evenodd" clip-rule="evenodd" d="M147.406 64.0306C147.406 64.0306 147.672 64.999 150.013 64.0094C151.258 63.4028 151.258 62.4451 150.641 62.3174C150.034 62.179 149.673 62.9558 149.066 62.8175C148.438 62.6792 147.225 62.8494 147.406 64.0306Z" fill="#F37B7C"/>
<path fill-rule="evenodd" clip-rule="evenodd" d="M148.502 42.342C152.609 43.4807 157.195 45.6515 157.184 49.0887C157.174 52.5259 154.12 56.7825 146.651 55.0373C139.182 53.2921 139.245 48.397 139.65 45.7154C140.054 43.0231 143.725 41.0118 148.502 42.342Z" fill="#301417"/>
<path fill-rule="evenodd" clip-rule="evenodd" d="M147.8 43.2679C147.8 43.2679 141.522 42.5549 141.862 45.0556C142.203 47.5564 147.768 47.9501 150.14 47.4074C152.513 46.8647 153.183 44.4916 147.8 43.2679Z" fill="#623C3F"/>
<path fill-rule="evenodd" clip-rule="evenodd" d="M170.526 28.945C170.526 28.945 177.676 25.0076 179.507 17.8459C181.326 10.6842 179.656 9.17307 180.4 7.1299C181.145 5.08673 185.773 3.54371 186.486 8.61971C187.199 13.6957 185.954 21.0916 182.252 25.7738C178.538 30.4454 177.655 31.9246 174.091 33.3931C171.303 33.0845 168.686 31.6267 170.526 28.945Z" fill="#351514"/>
<path fill-rule="evenodd" clip-rule="evenodd" d="M147.204 71.7347C147.204 71.7347 146.48 70.4364 142.235 68.8296C138 67.2227 135.415 76.119 135.16 82.0676C134.904 88.0162 136.213 97.4446 136.213 97.4446L147.364 99.509C147.364 99.509 144.767 83.8979 145.47 80.0776C146.172 76.2467 148.087 73.1926 147.204 71.7347Z" fill="#C92128"/>
<path fill-rule="evenodd" clip-rule="evenodd" d="M185.476 113.608C185.476 113.608 185.582 112.863 185.731 111.629C184.922 110.852 183.177 109.341 181.22 108.543C179.666 107.915 178.485 108.096 177.783 108.362C177.538 109.735 177.272 111.107 176.942 112.427C176.942 112.448 182.72 115.545 185.476 113.608Z" fill="#301417"/>
<path fill-rule="evenodd" clip-rule="evenodd" d="M178.23 113.045C178.666 111.534 179.017 109.863 179.304 108.139C178.677 108.129 178.155 108.235 177.783 108.384C177.538 109.757 177.272 111.13 176.942 112.449C176.942 112.449 177.453 112.715 178.23 113.045Z" fill="#502F32"/>
<path fill-rule="evenodd" clip-rule="evenodd" d="M137.128 97.6148C136.032 90.1232 136.49 76.7256 137.958 73.4586C139.745 69.4787 141.267 69.4042 142.639 70.0108C143.544 70.4045 145.459 70.8834 146.661 71.1601C146.034 70.628 144.767 69.7873 142.246 68.8296C138.011 67.2227 135.426 76.119 135.17 82.0676C134.915 88.0162 136.224 97.4446 136.224 97.4446L137.128 97.6148Z" fill="#DF4633"/>
<path fill-rule="evenodd" clip-rule="evenodd" d="M161.259 87.5583C161.259 87.5583 152.481 85.5896 151.375 90.8465C150.268 96.1034 152.471 104.34 152.471 104.34C152.471 104.34 156.535 107.798 160.217 103.925C160.217 103.925 158.919 96.3163 159.408 95.1138C159.898 93.9006 162.313 94.5391 162.313 94.5391C162.313 94.5391 167.356 89.793 161.259 87.5583Z" fill="#D57A31"/>
<path fill-rule="evenodd" clip-rule="evenodd" d="M160.217 103.914C160.217 103.914 158.919 96.3057 159.408 95.1032C159.897 93.8901 162.313 94.5286 162.313 94.5286C162.313 94.5286 162.345 94.4967 162.408 94.4328C161.632 94.1774 157.684 92.943 157.642 94.9649C157.599 96.7314 158.78 102.425 159.28 104.744C159.589 104.521 159.908 104.255 160.217 103.914Z" fill="#BD6C2A"/>
<path fill-rule="evenodd" clip-rule="evenodd" d="M161.259 87.5583C161.259 87.5583 152.481 85.5896 151.375 90.8465C150.268 96.1034 152.471 104.34 152.471 104.34C152.471 104.34 153.056 104.84 153.982 105.244C151.205 98.1785 151.63 91.2083 152.95 89.8143C154.322 88.3564 157.706 87.3135 161.536 88.1755C162.345 88.3564 163.111 88.7395 163.653 89.0588C163.185 88.5054 162.43 87.984 161.259 87.5583Z" fill="#ED974C"/>
<path fill-rule="evenodd" clip-rule="evenodd" d="M152.471 104.34C152.471 104.34 156.535 107.799 160.217 103.925C160.217 103.925 160.089 103.191 159.94 102.148C159.057 101.435 157.897 100.648 156.663 100.147C153.971 99.0514 152.428 100.403 152.428 100.403C152.428 100.403 152.162 100.669 151.769 101.084C152.12 103.01 152.471 104.34 152.471 104.34Z" fill="#301417"/>
<path fill-rule="evenodd" clip-rule="evenodd" d="M152.524 100.328C152.46 100.371 152.428 100.403 152.428 100.403C152.428 100.403 152.162 100.669 151.769 101.084C152.12 103.01 152.481 104.34 152.481 104.34C152.481 104.34 153.067 104.84 153.992 105.245C153.322 103.574 152.854 101.914 152.524 100.328Z" fill="#502F32"/>
<path fill-rule="evenodd" clip-rule="evenodd" d="M159.28 104.755C159.589 104.521 159.908 104.255 160.217 103.925C160.217 103.925 160.089 103.191 159.94 102.148C159.525 101.818 159.046 101.467 158.536 101.137C158.812 102.563 159.089 103.882 159.28 104.755Z" fill="#190000"/>
<path fill-rule="evenodd" clip-rule="evenodd" d="M149.693 120.728L124.381 134.21L142.064 156.1L176.953 127.985L149.693 120.728Z" fill="#E33E26"/>
<path fill-rule="evenodd" clip-rule="evenodd" d="M146.246 122.558L141.713 124.973L157.013 144.064L161.024 140.829L146.246 122.558Z" fill="#F47D3F"/>
<path fill-rule="evenodd" clip-rule="evenodd" d="M147.725 151.545L151.746 148.299L137.042 127.463L132.02 130.134L147.725 151.545Z" fill="#F47D3F"/>
<path fill-rule="evenodd" clip-rule="evenodd" d="M125.413 134.721C125.413 134.721 117.677 136.306 117.433 138.19C117.188 140.073 124.487 136.647 126.807 135.87C129.126 135.083 130.733 133.114 125.413 134.721Z" fill="#E33E26"/>
<path fill-rule="evenodd" clip-rule="evenodd" d="M126.615 137.031C126.615 137.031 119.167 139.638 119.178 141.543C119.188 143.437 125.966 139.074 128.158 137.978C130.339 136.892 131.669 134.722 126.615 137.031Z" fill="#E33E26"/>
<path fill-rule="evenodd" clip-rule="evenodd" d="M128.796 139.169C128.796 139.169 121.338 141.777 121.348 143.681C121.359 145.576 128.126 141.202 130.328 140.117C132.52 139.031 133.85 136.86 128.796 139.169Z" fill="#E33E26"/>
<path fill-rule="evenodd" clip-rule="evenodd" d="M129.924 141.968C129.924 141.968 122.476 144.575 122.487 146.48C122.497 148.385 129.275 144.001 131.467 142.915C133.659 141.83 134.989 139.659 129.924 141.968Z" fill="#E33E26"/>
<path fill-rule="evenodd" clip-rule="evenodd" d="M131.829 144.543C131.829 144.543 124.381 147.15 124.381 149.055C124.391 150.949 131.169 146.575 133.361 145.49C135.553 144.394 136.883 142.234 131.829 144.543Z" fill="#E33E26"/>
<path fill-rule="evenodd" clip-rule="evenodd" d="M134.222 147.215C134.222 147.215 126.775 149.822 126.785 151.727C126.796 153.621 133.573 149.258 135.765 148.162C137.946 147.066 139.276 144.905 134.222 147.215Z" fill="#E33E26"/>
<path fill-rule="evenodd" clip-rule="evenodd" d="M136.063 149.651C136.063 149.651 128.615 152.258 128.626 154.163C128.637 156.068 135.414 151.694 137.595 150.598C139.787 149.502 141.117 147.331 136.063 149.651Z" fill="#E33E26"/>
<path fill-rule="evenodd" clip-rule="evenodd" d="M137.914 152.311C137.914 152.311 130.456 154.919 130.477 156.823C130.488 158.718 137.255 154.355 139.457 153.258C141.638 152.162 142.968 150.002 137.914 152.311Z" fill="#E33E26"/>
<path fill-rule="evenodd" clip-rule="evenodd" d="M140.032 154.046C140.032 154.046 133.095 157.824 133.414 159.697C133.723 161.57 139.713 156.164 141.703 154.738C143.682 153.301 144.639 150.95 140.032 154.046Z" fill="#E33E26"/>
<path d="M235.207 155.653C234.515 155.462 233.994 154.834 233.983 154.078C233.972 153.163 234.696 152.407 235.622 152.386C235.728 152.386 246.581 152.152 254.327 148.353C255.146 147.949 256.146 148.289 256.55 149.109C256.955 149.928 256.614 150.928 255.795 151.333C247.379 155.472 236.154 155.706 235.675 155.717C235.505 155.717 235.356 155.696 235.207 155.653Z" fill="#351906"/>
<path fill-rule="evenodd" clip-rule="evenodd" d="M250.847 145.959C250.847 145.959 253.039 155.696 256.412 156.973C259.796 158.25 262.796 157.845 263.456 155.61C264.115 153.376 260.955 147.863 259.519 145.82C258.082 143.777 257.199 142.83 254.763 143.171C252.337 143.5 250.73 144.288 250.847 145.959Z" fill="#E33E26"/>
<path opacity="0.5" fill-rule="evenodd" clip-rule="evenodd" d="M250.847 145.959C250.847 145.959 251.869 150.524 253.603 153.812C253.209 152.152 252.975 150.396 252.582 148.694C251.752 145.182 251.954 144.693 254.018 144.15C256.082 143.607 258.38 145.257 258.38 145.257C258.38 145.257 258.625 145.182 258.987 145.076C257.827 143.543 256.891 142.862 254.773 143.16C252.337 143.501 250.73 144.288 250.847 145.959Z" fill="#9DC9A9"/>
<path fill-rule="evenodd" clip-rule="evenodd" d="M262.062 154.046C262.062 154.046 270.436 157.888 273.308 149.673C276.171 141.458 269.521 138.159 264.733 139.744C259.955 141.33 257.455 144.15 256.934 145.289C256.412 146.427 256.987 152.823 262.062 154.046Z" fill="#7E2617"/>
<path fill-rule="evenodd" clip-rule="evenodd" d="M258.476 144.022C258.476 144.022 255.156 138.222 259.561 137.243C262.902 136.498 264.307 139.297 263.817 142.649C263.317 146.001 258.476 144.022 258.476 144.022Z" fill="#7E2617"/>
<path d="M148.885 134.838C148.821 134.817 148.746 134.796 148.683 134.774C148.246 134.594 137.894 130.252 131.584 123.314C130.967 122.632 131.01 121.59 131.691 120.972C132.371 120.355 133.414 120.408 134.031 121.089C139.83 127.474 149.842 131.678 149.949 131.72C150.8 132.071 151.204 133.04 150.842 133.891C150.523 134.647 149.672 135.051 148.885 134.838Z" fill="#351906"/>
<path fill-rule="evenodd" clip-rule="evenodd" d="M138.149 120.12C138.149 120.12 132.531 128.368 128.924 128.314C125.317 128.261 122.668 126.771 122.87 124.462C123.083 122.153 128.052 118.184 130.137 116.8C132.223 115.428 133.393 114.874 135.521 116.077C137.66 117.29 138.862 118.599 138.149 120.12Z" fill="#E33E26"/>
<path opacity="0.5" fill-rule="evenodd" clip-rule="evenodd" d="M138.149 120.12C138.149 120.12 135.51 123.994 132.691 126.409C133.67 125.015 134.532 123.462 135.521 122.025C137.585 119.056 137.575 118.524 135.862 117.268C134.138 116.013 131.403 116.704 131.403 116.704C131.403 116.704 131.201 116.545 130.903 116.311C132.542 115.31 133.67 115.023 135.532 116.077C137.66 117.29 138.862 118.599 138.149 120.12Z" fill="#9DC9A9"/>
<path fill-rule="evenodd" clip-rule="evenodd" d="M124.743 123.515C124.743 123.515 115.539 124.005 115.89 115.311C116.241 106.617 123.647 105.989 127.509 109.224C131.371 112.459 132.669 116.002 132.723 117.247C132.797 118.503 129.914 124.239 124.743 123.515Z" fill="#7E2617"/>
<path fill-rule="evenodd" clip-rule="evenodd" d="M131.765 115.513C131.765 115.513 136.979 111.341 133.244 108.809C130.414 106.882 128.073 108.979 127.296 112.278C126.53 115.577 131.765 115.513 131.765 115.513Z" fill="#7E2617"/>
<path fill-rule="evenodd" clip-rule="evenodd" d="M236.281 169.87C229.259 195.835 202.329 211.138 176.123 204.051C149.927 196.963 134.382 170.168 141.405 144.203C148.427 118.237 175.357 102.935 201.552 110.022C227.758 117.12 243.303 143.915 236.281 169.87Z" fill="white"/>
<path fill-rule="evenodd" clip-rule="evenodd" d="M179.485 188.248C178.91 190.397 176.697 191.664 174.548 191.078C172.399 190.504 171.133 188.29 171.707 186.141C172.292 183.991 174.495 182.725 176.644 183.3C178.793 183.895 180.06 186.098 179.485 188.248Z" fill="#5B1301"/>
<path fill-rule="evenodd" clip-rule="evenodd" d="M245.038 114.13C239.867 133.231 218.853 144.149 198.105 138.541C177.347 132.922 164.706 112.895 169.867 93.7936C175.038 74.6921 196.052 63.7739 216.81 69.3926C237.558 75.0007 250.209 95.0387 245.038 114.13Z" fill="white"/>
<path fill-rule="evenodd" clip-rule="evenodd" d="M221.534 104.914C223.003 105.34 224.45 104.84 224.747 103.808C225.045 102.775 224.077 101.594 222.598 101.169C221.13 100.743 219.683 101.243 219.385 102.275C219.087 103.318 220.055 104.499 221.534 104.914Z" fill="#F15B67"/>
<path fill-rule="evenodd" clip-rule="evenodd" d="M187.604 94.8266C189.072 95.2522 190.519 94.7521 190.817 93.7305C191.115 92.6983 190.147 91.5171 188.678 91.0914C187.199 90.6657 185.763 91.1659 185.465 92.1981C185.167 93.2197 186.125 94.4009 187.604 94.8266Z" fill="#F15B67"/>
<path d="M226.407 101.147C225.631 100.934 225.173 100.136 225.386 99.3698C225.397 99.3273 226.663 94.2832 224.205 93.5277C221.758 92.7402 220.119 97.6672 220.098 97.7204C219.853 98.4866 219.055 98.9016 218.268 98.6569C217.502 98.4121 217.087 97.5927 217.331 96.8372C218.246 93.9746 220.906 89.4839 225.056 90.7502C229.184 92.0166 228.972 97.2415 228.195 100.125C227.982 100.902 227.184 101.36 226.407 101.147Z" fill="#351906"/>
<path d="M193.785 91.3995C193.009 91.1867 192.551 90.3886 192.764 89.6224C192.774 89.5692 194.041 84.5358 191.583 83.7802C191.561 83.7802 191.54 83.7696 191.519 83.7589C189.125 83.1098 187.486 87.9197 187.476 87.973C187.231 88.7391 186.433 89.1542 185.646 88.9094C184.88 88.6647 184.465 87.8453 184.709 87.0897C185.624 84.2271 188.274 79.7258 192.434 81.0134C196.562 82.2797 196.349 87.5047 195.573 90.3886C195.36 91.1548 194.562 91.6124 193.785 91.3995Z" fill="#351906"/>
<path fill-rule="evenodd" clip-rule="evenodd" d="M207.628 93.9321C207.628 93.9321 198.956 94.4004 195.722 93.3256C192.487 92.2508 192.658 94.6132 194.786 96.7947C196.914 98.9762 201.712 105.01 205.085 104.105C208.437 103.201 212.416 97.0394 207.628 93.9321Z" fill="#DA5A27"/>
<path fill-rule="evenodd" clip-rule="evenodd" d="M207.851 94.1026C207.777 94.0494 207.713 93.9856 207.628 93.9324C207.628 93.9324 198.956 94.4006 195.722 93.3258C193.572 92.6128 192.934 93.4216 193.37 94.6879C193.594 94.0282 194.211 93.8579 194.211 93.8579C194.211 93.8579 194.817 94.0175 199.531 94.6986C203.404 95.2413 206.776 94.4113 207.851 94.1026Z" fill="#EB7947"/>
<path fill-rule="evenodd" clip-rule="evenodd" d="M209.83 97.933C209.373 98.8162 208.426 100.21 206.755 100.7C204.244 101.434 201.308 100.923 198.999 99.1568C196.679 97.3903 193.243 93.8999 194.051 95.23C194.051 95.23 197.85 99.9442 199.435 101.211C200.733 102.243 202.031 103.35 203.265 104.02C203.893 104.211 204.5 104.265 205.074 104.116C207.266 103.52 209.713 100.689 209.83 97.933Z" fill="#C94521"/>
<path fill-rule="evenodd" clip-rule="evenodd" d="M169.005 97.1883C169.005 97.1883 166.004 93.5276 160.855 98.5078C155.705 103.488 146.342 122.079 147.182 130.624C148.023 139.169 166.153 156.398 186.54 162.623C206.926 168.859 231.823 161.835 237.367 156.451C242.91 151.077 244.953 138.445 245.57 133.348C246.442 126.133 249.251 122.621 243.176 119.535C243.176 119.535 228.195 136.562 200.02 127.761C171.835 118.971 169.005 97.1883 169.005 97.1883Z" fill="#E33E26"/>
<path d="M160.142 148.002C161.706 149.322 163.387 150.62 165.153 151.876C168.249 141.479 174.229 123.739 180.687 117.099C179.134 115.684 177.772 114.247 176.602 112.811C173.09 116.588 164.77 127.304 160.142 148.002ZM186.55 121.59C183.369 126.879 174.952 141.915 172.601 156.579C174.889 157.856 177.251 159.037 179.687 160.091C181.007 151.482 184.199 137.18 191.732 124.484C189.859 123.58 188.125 122.611 186.55 121.59ZM169.601 99.8174C165.77 102.829 157.982 111.789 150.289 137.616C151.566 139.457 153.194 141.394 155.12 143.362C157.514 134.871 161.269 122.569 164.153 117.94C166.941 113.449 170.441 109.565 172.75 107.203C171.08 104.244 170.122 101.626 169.601 99.8174ZM209.032 129.816C208.458 137.105 206.83 151.546 202.297 165.05C204.383 165.103 206.447 165.06 208.479 164.943C211.096 157.005 215.182 142.905 216.012 130.295C213.81 130.305 211.479 130.156 209.032 129.816ZM239.282 122.899C238.356 123.569 237.281 124.282 236.047 124.995C236.547 132.987 236.696 147.981 232.249 159.601C234.185 158.729 235.739 157.814 236.813 156.941C239.58 148.907 242.271 136.467 239.282 122.899ZM223.492 129.582C224.279 135.69 224.907 149.535 217.565 163.879C220.449 163.368 223.162 162.73 225.609 162.017C228.674 154.717 232.281 142.256 229.727 127.911C227.844 128.581 225.758 129.167 223.492 129.582ZM200.01 127.773C199.424 127.592 198.871 127.4 198.307 127.198C195.775 134.072 189.657 151.514 188.199 163.092C189.934 163.56 191.7 163.932 193.466 164.22C195.658 154.791 199.861 137.637 203.297 128.688C202.233 128.422 201.137 128.124 200.01 127.773Z" fill="#F47D3F"/>
<path fill-rule="evenodd" clip-rule="evenodd" d="M184.326 169.636C183.741 171.785 181.539 173.052 179.39 172.477C177.24 171.892 175.974 169.689 176.559 167.539C177.134 165.39 179.347 164.123 181.496 164.698C183.635 165.283 184.912 167.486 184.326 169.636Z" fill="#5B1301"/>
<path fill-rule="evenodd" clip-rule="evenodd" d="M181.794 168.03C181.507 169.104 180.4 169.732 179.336 169.445C178.262 169.158 177.634 168.051 177.921 166.976C178.208 165.901 179.315 165.273 180.39 165.561C181.454 165.848 182.081 166.955 181.794 168.03Z" fill="#9E3325"/>
<path fill-rule="evenodd" clip-rule="evenodd" d="M176.995 186.715C176.708 187.779 175.601 188.418 174.537 188.13C173.463 187.843 172.835 186.736 173.122 185.662C173.41 184.587 174.516 183.959 175.591 184.246C176.655 184.534 177.283 185.64 176.995 186.715Z" fill="#9E3325"/>
<path opacity="0.6" fill-rule="evenodd" clip-rule="evenodd" d="M239.282 122.909C233.153 127.357 219.864 133.976 200.01 127.772C171.835 118.971 169.005 97.1883 169.005 97.1883C169.005 97.1883 166.004 93.5276 160.855 98.5078C155.705 103.488 146.342 122.079 147.182 130.624C147.289 131.731 147.682 132.965 148.331 134.306C148.48 131.177 149.108 125.25 151.566 119.142C155.152 110.203 161.078 101.179 163.802 99.7316C166.526 98.2843 167.111 103.105 168.43 105.787C169.739 108.468 177.251 125.356 197.169 129.294C214.842 132.784 228.897 133.103 239.282 122.909Z" fill="#EE8962"/>
<path fill-rule="evenodd" clip-rule="evenodd" d="M211.852 108.468C211.852 108.468 199.35 105.552 193.328 101.7C193.328 101.7 184.475 114.278 195.935 118.822C207.394 123.356 209.831 112.533 211.852 108.468Z" fill="#35190C"/>
<path fill-rule="evenodd" clip-rule="evenodd" d="M195.935 118.823C190.03 116.482 189.519 112.002 190.413 108.213C193.381 106.393 196.222 106.862 201.467 108.83C206 110.533 207.702 113.938 208.298 115.737C206.043 119.014 202.446 121.398 195.935 118.823Z" fill="#E23C5B"/>
<path fill-rule="evenodd" clip-rule="evenodd" d="M202.021 118.694C202.021 118.694 205.255 117.502 205.543 116.46C205.83 115.427 204.84 113.118 199.914 111.511C194.988 109.915 192.753 109.809 192.062 111.224C191.381 112.639 190.966 115.193 194.924 117.066C198.882 118.928 199.744 119.439 202.021 118.694Z" fill="#F15B67"/>
<path fill-rule="evenodd" clip-rule="evenodd" d="M201.404 117.673C201.404 117.673 200.393 118.407 197.648 117.268C194.903 116.13 193.477 115.342 194.094 114.842C194.701 114.342 195.52 114.746 197.105 115.534C198.691 116.311 199.882 116.715 200.18 116.768C200.489 116.811 201.957 117.034 201.404 117.673Z" fill="#F37B7C"/>
<path fill-rule="evenodd" clip-rule="evenodd" d="M193.105 68.1052C193.105 68.1052 203.861 79.2681 226.439 82.5776C249.017 85.8978 251.188 81.0878 242.453 74.9796C233.728 68.8607 217.715 63.0505 203.798 59.5707C192.275 56.6869 181.252 55.0481 193.105 68.1052Z" fill="#351906"/>
<path fill-rule="evenodd" clip-rule="evenodd" d="M203.797 59.5704C194.051 57.1335 184.656 55.5905 189.178 63.0821C188.423 60.7942 189.168 59.4853 191.285 58.7723C195.051 57.506 205.276 60.9006 205.276 60.9006C205.276 60.9006 207.968 61.007 208.341 60.7836C206.819 60.3473 205.298 59.9429 203.797 59.5704Z" fill="#724633"/>
<path fill-rule="evenodd" clip-rule="evenodd" d="M247.081 79.8744C246.539 81.609 244.145 82.322 237.973 82.5242C229.142 82.8008 214.619 78.7358 214.619 78.7358C193.903 70.8823 188.583 60.2302 188.583 60.2302L188.093 59.2725C187.636 60.8261 188.998 63.5823 193.105 68.1156C193.105 68.1156 203.862 79.2785 226.44 82.588C242.336 84.9079 248.103 83.2159 247.081 79.8744Z" fill="#1E0000"/>
<path fill-rule="evenodd" clip-rule="evenodd" d="M203.372 64.3272C203.372 64.3272 208.884 48.1202 210.448 41.8311C210.448 41.8311 229.131 34.5097 246.432 57.3677L234.09 75.8201C234.09 75.8201 215.033 78.6188 203.372 64.3272Z" fill="#351906"/>
<path fill-rule="evenodd" clip-rule="evenodd" d="M205.957 56.5273C204.542 60.8691 203.361 64.3276 203.361 64.3276C215.023 78.6191 234.079 75.8204 234.079 75.8204L237.92 70.0846C218.523 68.4033 208.511 59.209 205.957 56.5273Z" fill="#DF2228"/>
<path fill-rule="evenodd" clip-rule="evenodd" d="M222.684 54.2608C234.185 59.9965 242.463 60.3903 246.358 57.2617C229.078 34.5314 210.458 41.8315 210.458 41.8315C210.426 41.9592 210.395 42.0869 210.363 42.2146C210.139 43.5341 210.458 48.1632 222.684 54.2608Z" fill="#593524"/>
<path fill-rule="evenodd" clip-rule="evenodd" d="M231.163 72.5955C230.493 70.6056 230.44 67.743 230.44 67.743C230.44 67.743 228.95 68.9987 227.812 68.0942C225.854 66.5405 225.109 65.4551 225.109 65.4551C225.109 65.4551 224.843 68.6795 222.407 67.9452C219.97 67.2109 219.087 66.4235 219.087 66.4235C219.087 66.4235 222.396 70.5417 221.683 71.9358C220.97 73.3192 219.406 73.4894 219.406 73.4894C219.406 73.4894 223.875 72.9893 224.343 74.1385C224.811 75.2772 223.875 76.5861 223.875 76.5861C223.875 76.5861 229.61 74.5429 233.813 76.203C233.813 76.1924 231.834 74.5855 231.163 72.5955Z" fill="#63953B"/>
<path fill-rule="evenodd" clip-rule="evenodd" d="M225.471 67.5518C225.471 67.5518 225.013 68.4989 224.237 68.6372C223.46 68.7755 223.109 68.6904 223.109 68.6904L226.375 71.6062L225.471 67.5518Z" fill="#5E8F38"/>
<path fill-rule="evenodd" clip-rule="evenodd" d="M227.801 69.329C227.801 69.329 228.386 69.776 228.855 69.6695C229.323 69.5631 229.472 69.4461 229.472 69.4461L228.865 73.0003L227.397 69.0098L227.801 69.329Z" fill="#5A8A35"/>
<path fill-rule="evenodd" clip-rule="evenodd" d="M227.312 72.9999C227.312 72.9999 224.897 71.1589 223.694 70.2544C222.492 69.3499 220.492 67.4557 220.492 67.4557C220.492 67.4557 222.588 68.6582 223.684 68.3602C224.78 68.0622 225.312 66.2319 225.312 66.2319C225.312 66.2319 227.003 67.9346 227.535 68.307C228.078 68.6795 229.429 69.0945 230.11 68.2857C230.11 68.2857 229.887 71.6165 231.781 73.8725C231.536 73.4788 231.313 73.0425 231.153 72.5955C230.483 70.6056 230.43 67.743 230.43 67.743C230.43 67.743 228.94 68.9987 227.801 68.0942C225.844 66.5405 225.099 65.4551 225.099 65.4551C225.099 65.4551 224.833 68.6795 222.396 67.9452C219.96 67.2109 219.077 66.4235 219.077 66.4235C219.077 66.4235 221.96 70.0096 221.758 71.6165L227.504 75.0112L227.312 72.9999Z" fill="#71A843"/>
<path fill-rule="evenodd" clip-rule="evenodd" d="M221.673 71.9255C220.96 73.3089 219.396 73.4792 219.396 73.4792C219.396 73.4792 223.864 72.979 224.333 74.1283C224.801 75.2669 223.864 76.5758 223.864 76.5758C223.864 76.5758 229.599 74.5327 233.802 76.1927C233.802 76.1927 227.439 72.8832 225.716 72.0213C223.992 71.1487 219.055 66.4238 219.055 66.4238C219.055 66.4238 222.385 70.5421 221.673 71.9255Z" fill="#558433"/>
<path fill-rule="evenodd" clip-rule="evenodd" d="M224.407 73.5221C224.407 73.5221 225.067 73.735 225.003 74.4054C224.939 75.0758 224.439 76.2783 224.482 76.1506C224.524 76.0229 229.993 74.7033 229.993 74.7033C229.993 74.7033 226.514 73.2987 224.407 73.5221Z" fill="#4C792E"/>
<path fill-rule="evenodd" clip-rule="evenodd" d="M234.153 70.7443C234.877 69.3609 236.398 67.8711 236.398 67.8711C236.398 67.8711 234.962 67.7115 234.866 66.6261C234.707 64.7744 234.909 63.8167 234.909 63.8167C234.909 63.8167 233.036 65.3278 232.185 63.6358C231.334 61.9438 231.302 61.0605 231.302 61.0605C231.302 61.0605 230.77 64.9553 229.663 65.2852C228.557 65.6151 227.663 64.8489 227.663 64.8489C227.663 64.8489 230.217 67.0091 229.844 67.8498C229.461 68.6905 228.291 68.8501 228.291 68.8501C228.291 68.8501 232.334 70.8933 233.59 74.0113C233.579 74.0219 233.43 72.1277 234.153 70.7443Z" fill="#63953B"/>
<path fill-rule="evenodd" clip-rule="evenodd" d="M236.398 67.8711C236.398 67.8711 234.962 67.7115 234.866 66.6261C234.707 64.7744 234.909 63.8167 234.909 63.8167C234.909 63.8167 233.036 65.3278 232.185 63.6358C231.334 61.9438 231.302 61.0605 231.302 61.0605C231.302 61.0605 230.77 64.9553 229.663 65.2852C229.61 65.3065 229.546 65.3065 229.493 65.3172L230.291 69.8398L231.898 68.6373C231.898 68.6373 231.632 65.8067 231.611 65.0085C231.589 64.2104 231.579 62.7951 231.579 62.7951C231.579 62.7951 231.717 63.7954 232.568 64.3701C233.419 64.9447 234.6 64.2956 234.6 64.2956C234.6 64.2956 234.111 66.5622 234.845 67.2433C235.59 67.935 235.856 68.0307 235.856 68.0307C235.856 68.0307 233.866 70.6485 233.324 72.4363C233.217 72.7768 233.217 73.0961 233.281 73.3728C233.377 73.5537 233.462 73.7346 233.547 73.9155C233.558 73.9368 233.568 73.9474 233.59 73.9687C233.568 73.692 233.504 72 234.164 70.7337C234.877 69.3609 236.398 67.8711 236.398 67.8711Z" fill="#71A843"/>
<path fill-rule="evenodd" clip-rule="evenodd" d="M229.653 65.2852C228.546 65.6151 227.652 64.8489 227.652 64.8489C227.652 64.8489 230.206 67.0091 229.834 67.8498C229.45 68.6905 228.28 68.8501 228.28 68.8501C228.28 68.8501 232.323 70.8933 233.579 74.0113C233.579 74.0113 232.1 68.8927 231.685 67.5199C231.27 66.1472 231.291 61.0605 231.291 61.0605C231.291 61.0605 230.77 64.966 229.653 65.2852Z" fill="#558433"/>
<path fill-rule="evenodd" clip-rule="evenodd" d="M229.216 68.9774C229.216 68.9774 229.972 68.7859 230.121 68.2857C230.27 67.7856 230.227 67.626 230.227 67.626C230.227 67.626 231.632 68.8497 231.855 69.4244C232.078 69.999 232.334 70.7546 232.334 70.7546L229.216 68.9774Z" fill="#4E7B2E"/>
<path fill-rule="evenodd" clip-rule="evenodd" d="M233.685 72.4997C234.164 71.0631 234.195 68.988 234.195 68.988C234.195 68.988 235.281 69.8925 236.1 69.2328C237.504 68.1048 238.047 67.3066 238.047 67.3066C238.047 67.3066 238.249 69.6478 240.015 69.1051C241.782 68.573 242.42 67.9983 242.42 67.9983C242.42 67.9983 240.037 70.9886 240.558 71.9889C241.079 72.9892 242.207 73.1063 242.207 73.1063C242.207 73.1063 238.973 72.7657 238.632 73.5958C238.292 74.4258 238.973 75.3623 238.973 75.3623C238.973 75.3623 234.813 73.8937 231.77 75.1175C231.77 75.1175 233.206 73.9469 233.685 72.4997Z" fill="#63953B"/>
<path fill-rule="evenodd" clip-rule="evenodd" d="M234.494 69.5307C234.494 69.5307 235.153 69.7435 236.132 69.6158C237.122 69.4775 237.866 67.8813 237.866 67.8813C237.866 67.8813 237.909 68.0196 238.154 68.6475C238.388 69.2753 238.877 69.5733 239.782 69.4349C240.516 69.3285 241.622 68.722 242.037 68.4772C242.25 68.1899 242.388 67.9983 242.388 67.9983C242.388 67.9983 241.75 68.573 239.984 69.1051C238.218 69.6478 238.015 67.3066 238.015 67.3066C238.015 67.3066 237.483 68.0941 236.068 69.2328C235.238 69.8925 234.164 68.988 234.164 68.988C234.164 68.988 234.132 71.0631 233.653 72.4997C233.249 73.7128 232.174 74.7238 231.844 75.0217C235.089 73.0105 234.494 69.5307 234.494 69.5307Z" fill="#71A843"/>
<path fill-rule="evenodd" clip-rule="evenodd" d="M240.548 71.9995C241.069 72.9998 242.197 73.1168 242.197 73.1168C242.197 73.1168 238.963 72.7763 238.622 73.6063C238.282 74.4364 238.963 75.3728 238.963 75.3728C238.963 75.3728 234.802 73.9043 231.759 75.1281C231.759 75.1281 236.356 72.7231 237.601 72.0846C238.845 71.4567 242.399 68.0195 242.399 68.0195C242.399 68.0195 240.027 70.9992 240.548 71.9995Z" fill="#558433"/>
<path fill-rule="evenodd" clip-rule="evenodd" d="M234.579 72.7132C234.196 73.7774 233.015 74.3201 231.962 73.937C230.898 73.5539 230.355 72.3833 230.738 71.3192C231.121 70.255 232.291 69.7123 233.355 70.0954C234.419 70.4785 234.973 71.6597 234.579 72.7132Z" fill="#D43A38"/>
<path fill-rule="evenodd" clip-rule="evenodd" d="M234.26 71.7025C234.1 72.1388 233.621 72.3623 233.185 72.2027C232.749 72.043 232.525 71.5642 232.685 71.1279C232.844 70.6916 233.323 70.4681 233.759 70.6277C234.196 70.7873 234.419 71.2768 234.26 71.7025Z" fill="#F47E6F"/>
<path fill-rule="evenodd" clip-rule="evenodd" d="M231.568 70.4463C231.568 70.4463 230.6 71.3934 230.844 72.5533C231.089 73.7132 232.696 74.0112 233.132 73.8835C233.568 73.7558 234.249 73.0854 234.249 73.0854C234.249 73.0854 233.015 73.6813 232.164 73.0747C231.323 72.4682 230.919 71.7446 231.568 70.4463Z" fill="#B32D2D"/>
<path opacity="0.6" fill-rule="evenodd" clip-rule="evenodd" d="M236.398 76.9692C235.919 78.2887 234.472 78.9698 233.164 78.4909C231.855 78.0121 231.185 76.5648 231.663 75.2453C232.142 73.9257 233.589 73.2447 234.898 73.7235C236.207 74.1918 236.877 75.6496 236.398 76.9692Z" fill="black"/>
<path opacity="0.6" fill-rule="evenodd" clip-rule="evenodd" d="M232.26 76.1927C231.898 77.1824 230.802 77.6932 229.812 77.3314C228.823 76.9696 228.312 75.8735 228.674 74.8838C229.036 73.8942 230.132 73.3834 231.121 73.7452C232.111 74.1177 232.621 75.2031 232.26 76.1927Z" fill="black"/>
<path fill-rule="evenodd" clip-rule="evenodd" d="M236.334 76.5015C235.877 77.7465 234.504 78.385 233.259 77.9381C232.015 77.4805 231.365 76.1077 231.823 74.8627C232.281 73.6176 233.653 72.9685 234.898 73.4261C236.143 73.873 236.792 75.2564 236.334 76.5015Z" fill="#D43A38"/>
<path fill-rule="evenodd" clip-rule="evenodd" d="M235.951 75.3092C235.77 75.8199 235.196 76.086 234.696 75.8944C234.185 75.7135 233.919 75.1389 234.111 74.6387C234.302 74.128 234.866 73.8619 235.366 74.0535C235.877 74.245 236.143 74.809 235.951 75.3092Z" fill="#F47E6F"/>
<path fill-rule="evenodd" clip-rule="evenodd" d="M232.791 73.8408C232.791 73.8408 231.653 74.9475 231.94 76.3097C232.227 77.6718 234.111 78.0229 234.632 77.874C235.143 77.725 235.941 76.9375 235.941 76.9375C235.941 76.9375 234.494 77.6398 233.493 76.9269C232.504 76.2139 232.036 75.3626 232.791 73.8408Z" fill="#B32D2D"/>
<path fill-rule="evenodd" clip-rule="evenodd" d="M232.504 75.2346C232.079 76.3946 230.802 76.9905 229.642 76.5648C228.482 76.1392 227.886 74.8622 228.301 73.7023C228.727 72.5423 230.004 71.9464 231.163 72.3614C232.323 72.7977 232.919 74.0747 232.504 75.2346Z" fill="#D43A38"/>
<path fill-rule="evenodd" clip-rule="evenodd" d="M232.142 74.1384C231.972 74.6173 231.44 74.862 230.972 74.6811C230.493 74.5109 230.249 73.9788 230.419 73.5106C230.589 73.0317 231.121 72.7869 231.589 72.9679C232.057 73.1488 232.313 73.6595 232.142 74.1384Z" fill="#F47E6F"/>
<path fill-rule="evenodd" clip-rule="evenodd" d="M229.206 72.7656C229.206 72.7656 228.153 73.7979 228.419 75.0642C228.685 76.3305 230.44 76.6604 230.919 76.5221C231.398 76.3837 232.143 75.6495 232.143 75.6495C232.143 75.6495 230.791 76.2986 229.866 75.6388C228.94 74.9684 228.504 74.1703 229.206 72.7656Z" fill="#B32D2D"/>
<path fill-rule="evenodd" clip-rule="evenodd" d="M221.8 70.085C221.8 70.085 222.279 70.766 222.173 71.4258C222.066 72.0856 221.141 73.0007 221.141 73.0007C221.141 73.0007 222.726 72.8518 223.46 72.7453C224.194 72.6389 225.301 72.4793 225.301 72.4793L221.8 70.085Z" fill="#4C792E"/>
<path fill-rule="evenodd" clip-rule="evenodd" d="M229.206 65.8068C229.206 65.8068 230.046 65.977 230.44 65.3279C230.833 64.6894 230.972 64.4766 230.972 64.4766L231.227 67.967L229.206 65.8068Z" fill="#4E7B2E"/>
<path fill-rule="evenodd" clip-rule="evenodd" d="M32.8882 98.7419C32.8882 98.7419 33.9309 61.8797 71.5644 58.219C109.198 54.5584 125.935 69.7225 135.606 87.2278C145.278 104.744 153.12 113.629 159.131 115.726C165.143 117.812 167.494 117.812 167.494 117.812L165.143 125.388C165.143 125.388 149.459 127.219 136.649 118.333C123.838 109.447 102.676 104.744 101.101 105.521C99.5368 106.308 67.3829 110.49 64.2548 111.012C61.116 111.533 44.1346 109.969 44.1346 109.969L32.8882 98.7419Z" fill="#DF2228"/>
<path fill-rule="evenodd" clip-rule="evenodd" d="M157.375 120.695C157.375 120.695 148.959 118.439 143.416 113.715C137.872 108.99 125.136 91.7399 121.646 86.6106C118.156 81.4814 108.304 76.5438 96.8019 72.4362C85.3001 68.3285 70.7234 71.819 70.7234 71.819L58.6045 81.0558C58.6045 81.0558 74.8304 95.8475 77.7032 97.8906C79.1183 98.9016 83.9914 102.626 90.0668 107.404C95.8869 106.563 100.547 105.819 101.111 105.531C102.686 104.744 123.859 109.458 136.659 118.344C149.47 127.229 165.153 125.399 165.153 125.399L167.504 117.822C167.504 117.822 165.493 117.822 160.45 116.173C158.78 118.195 157.375 120.695 157.375 120.695Z" fill="#AF171C"/>
<path fill-rule="evenodd" clip-rule="evenodd" d="M146.651 104.637C143.278 100.221 139.607 94.4748 135.606 87.2385C125.935 69.7226 109.209 54.5585 71.5644 58.2298C33.9309 61.8905 32.8882 98.7526 32.8882 98.7526L33.6862 99.5508C34.2927 96.9968 34.8566 94.2513 34.8566 94.2513C34.8566 94.2513 40.134 70.5101 60.0733 62.7631C80.0232 55.016 106.059 59.9643 119.902 71.9999C133.744 84.0354 138.202 96.5605 146.278 104.308C146.406 104.425 146.523 104.52 146.651 104.637Z" fill="#F15B3E"/>
<path fill-rule="evenodd" clip-rule="evenodd" d="M170.995 212.51C170.995 212.51 180.411 225.036 186.295 218.161C192.179 211.276 189.583 195.346 169.303 194.771C149.013 194.196 170.995 212.51 170.995 212.51Z" fill="#070809"/>
<path fill-rule="evenodd" clip-rule="evenodd" d="M164.77 212.947C164.77 212.947 167.377 216.852 171.441 214.319C175.506 211.787 178.496 208.211 175.953 201.443C173.101 193.909 168.718 191.759 163.408 194.239C158.078 196.708 155.099 200.145 164.77 212.947Z" fill="white"/>
<path d="M162.259 200.325C162.259 200.325 161.802 198.229 164.909 198.591C168.005 198.953 170.282 201.049 170.654 204.061C171.016 207.072 175.123 207.072 175.57 206.157C176.027 205.242 176.208 204.241 176.208 204.241C176.208 204.241 177.208 214.638 166.632 214C156.056 213.361 158.152 206.519 158.152 206.519L162.259 200.325Z" fill="#CED7C9"/>
<path fill-rule="evenodd" clip-rule="evenodd" d="M137.309 210.468C137.309 210.468 146.001 225.004 157.301 221.801C168.601 218.598 169.909 206.275 169.909 206.275C169.909 206.275 170.782 199.134 163.387 199.134C163.387 199.134 151.194 208.871 149.885 194.825C148.587 180.778 137.309 210.468 137.309 210.468Z" fill="#DF2228"/>
<path fill-rule="evenodd" clip-rule="evenodd" d="M167.824 200.507C168.207 202.922 168.569 207.094 167.015 209.467C164.76 212.947 161.27 216.98 155.748 215.213C150.215 213.447 148.449 207.254 148.449 207.254L141.82 214.766C141.82 214.766 147.565 220.96 153.981 220.96C157.79 220.96 160.897 220.002 163.802 218.225C169.133 213.404 169.899 206.285 169.899 206.285C169.899 206.285 170.346 202.571 167.824 200.507Z" fill="#AF171C"/>
<path fill-rule="evenodd" clip-rule="evenodd" d="M149.885 194.824C149.842 194.334 149.779 193.919 149.715 193.536C149.513 193.547 149.31 193.547 149.119 193.547C148.374 193.547 146.714 193.994 144.65 194.653C141.181 200.272 137.298 210.467 137.298 210.467C137.298 210.467 139.085 213.446 142.086 216.405C149.959 213.191 154.183 205.518 155.62 202.411C152.928 202.432 150.438 200.751 149.885 194.824Z" fill="#AF171C"/>
<path fill-rule="evenodd" clip-rule="evenodd" d="M98.3129 253.959C98.3129 253.959 87.8219 267.782 97.1106 272.624C106.399 277.455 122.732 270.411 116.89 247.468C111.038 224.525 98.3129 253.959 98.3129 253.959Z" fill="#070809"/>
<path fill-rule="evenodd" clip-rule="evenodd" d="M98.0043 241.923C98.0043 241.923 93.078 243.647 94.5782 248.117C96.0785 252.597 99.0151 256.257 106.974 255.183C115.847 253.991 119.423 250.181 118.359 244.499C117.295 238.827 114.507 235.209 98.0043 241.923Z" fill="white"/>
<path d="M117.667 245.872C116.72 240.083 114.379 238.519 111.006 238.519C107.634 238.519 99.1642 245.957 99.1642 245.957C99.1642 245.957 96.9192 246.819 100.718 247.947C104.527 249.064 107.548 247.947 108.761 247.511C109.974 247.074 111.272 248.373 111.187 250.543C111.124 252.086 110.517 253.832 108.857 254.875C112.688 254.13 115.337 252.81 116.89 251.001C117.571 249.586 117.997 247.862 117.667 245.872Z" fill="#CED7C9"/>
<path fill-rule="evenodd" clip-rule="evenodd" d="M91.2373 218.937C91.2373 218.937 91.8757 239.39 99.8237 247.308C99.8237 247.308 109.049 248.585 112.538 243.221C112.538 243.221 109.676 226.599 112.538 218.937C115.401 211.265 91.2373 218.937 91.2373 218.937Z" fill="#DF2228"/>
<path fill-rule="evenodd" clip-rule="evenodd" d="M100.047 228.696C106.24 228.472 107.559 227.812 107.559 227.812C107.559 227.812 108.889 239.092 109.325 244.168C109.325 244.168 108.655 245.499 106.761 246.914C108.963 246.371 111.176 245.296 112.528 243.221C112.528 243.221 109.666 226.599 112.528 218.937C115.39 211.265 91.2266 218.937 91.2266 218.937C91.2266 218.937 91.3542 222.885 92.1629 227.983C93.8759 228.387 96.5785 228.823 100.047 228.696Z" fill="#AF171C"/>
<path fill-rule="evenodd" clip-rule="evenodd" d="M64.2865 203.817C64.2865 203.817 51.7845 231.814 103.303 225.557C154.822 219.3 164.355 184.747 166.143 175.521C167.93 166.284 163.461 159.431 149.757 157.047C136.064 154.674 64.2865 203.817 64.2865 203.817Z" fill="white"/>
<path d="M158.695 165.688L155.971 158.654C154.151 157.994 152.098 157.452 149.757 157.047C148.278 156.792 146.129 157.132 143.458 157.952C143.703 158.133 143.948 158.303 144.182 158.494C153.481 165.784 159.258 179.107 158.003 185.385C156.747 191.664 143.682 210.265 118.55 219.821C97.8021 227.707 74.6921 222.578 67.2441 220.545C72.2343 225.057 82.5869 228.079 103.303 225.568C145.841 220.407 159.748 195.952 164.312 182.395C164.855 178.724 165.27 175.468 165.44 173.265C166.121 164.102 158.695 165.688 158.695 165.688Z" fill="#CED7C9"/>
<path fill-rule="evenodd" clip-rule="evenodd" d="M56.2532 153.481C56.2532 153.481 49.699 193.1 67.5742 209.775C67.5742 209.775 80.3847 218.416 107.176 214.84C133.978 211.265 157.216 180.585 158.705 165.698C158.705 165.698 157.514 137.402 125.349 123.398C93.1845 109.394 57.7428 124.292 56.2532 153.481Z" fill="#DF2228"/>
<path fill-rule="evenodd" clip-rule="evenodd" d="M68.5422 210.339C68.4784 210.265 68.4252 210.201 68.3614 210.116C61.7646 202.103 58.5832 187.269 58.5832 187.269C56.3489 175.722 56.7 160.175 56.7 160.175L55.5296 159.707C54.5081 171.53 54.0825 197.176 67.574 209.775C67.5634 209.775 67.9145 209.999 68.5422 210.339Z" fill="#F15B3E"/>
<path fill-rule="evenodd" clip-rule="evenodd" d="M158.482 167.177C157.28 162.357 153.343 148.576 145.31 137.158C142.873 134.561 139.99 132.028 136.585 129.655C135.585 131.326 137.021 136.785 137.021 136.785C137.021 136.785 156.684 158.653 150.619 177.021C144.554 195.399 127.658 206.785 110.932 211.935C101.143 214.947 89.4182 215 81.3638 214.521C87.7158 215.703 96.2597 216.288 107.166 214.83C133.116 211.382 155.716 182.522 158.482 167.177Z" fill="#AF171C"/>
<path fill-rule="evenodd" clip-rule="evenodd" d="M150.3 104.148C150.3 104.148 146.597 124.782 128.2 130.347C109.804 135.902 133.489 140.531 133.489 140.531C133.489 140.531 153.045 148.587 160.429 105.446C167.813 62.3159 150.3 104.148 150.3 104.148Z" fill="#DF2228"/>
<path fill-rule="evenodd" clip-rule="evenodd" d="M153.715 102.115L151.864 107.457C151.864 107.457 153.502 108.873 154.8 109.085C156.109 109.309 156.439 109.745 155.779 113.012C155.119 116.279 146.735 132.401 142.703 134.476C138.67 136.551 133.339 134.146 133.339 134.146C133.339 134.146 138.564 139.371 142.703 138.062C146.841 136.753 150.108 134.029 152.725 127.602C155.343 121.174 158.386 111.48 158.609 109.947C158.694 109.351 159.226 108.905 159.822 108.585C160.024 107.564 160.227 106.521 160.407 105.435C160.588 104.403 160.737 103.435 160.886 102.498C157.918 102.339 153.715 102.115 153.715 102.115Z" fill="#AF171C"/>
<path fill-rule="evenodd" clip-rule="evenodd" d="M151.853 104.616L150.236 104.436C149.853 106.245 147.416 116.45 139.468 123.846C140.202 123.846 141.437 123.133 143.426 121.175C148.406 116.269 150.874 107.032 150.874 107.032L151.853 104.616Z" fill="#F15B3E"/>
<path fill-rule="evenodd" clip-rule="evenodd" d="M148.948 107.117C148.948 107.117 145.299 106.01 145.118 101.498C144.937 96.986 144.767 92.506 152.055 92.9742C158.407 93.3786 165.387 93.0168 165.302 97.3479C165.228 101.679 167.27 111.533 148.948 107.117Z" fill="white"/>
<path d="M153.8 93.0703C152.534 94.9113 151.034 98.0612 151.034 98.0612L152.662 100.136C152.662 100.136 154.619 102.52 157.035 102.328C159.45 102.126 159.961 102.073 159.961 102.073C159.961 102.073 160.663 103.542 160.429 104.925C160.205 106.308 159.226 107.383 158.237 107.681C157.258 107.979 156.779 107.968 156.779 107.968C156.779 107.968 161.323 108.075 163.078 105.893C164.823 103.701 164.823 99.253 164.844 97.8377C164.855 97.444 164.993 96.9651 165.195 96.4756C164.44 93.4108 159.163 93.3257 153.8 93.0703Z" fill="#CED7C9"/>
<path fill-rule="evenodd" clip-rule="evenodd" d="M149.14 98.2204C149.14 98.2204 144.394 85.291 149.916 78.5017C155.449 71.7124 167.823 75.6924 167.525 84.1204C167.259 91.5801 164.908 98.3162 160.546 100.338C151.746 103.318 149.14 98.2204 149.14 98.2204Z" fill="#7E2617"/>
<path fill-rule="evenodd" clip-rule="evenodd" d="M146.714 92.7933C146.714 92.7933 141.819 89.7818 143.373 86.2595C144.937 82.7371 149.193 82.8223 151.14 88.1324C153.098 93.4638 149.565 94.7833 146.714 92.7933Z" fill="#7E2617"/>
<path fill-rule="evenodd" clip-rule="evenodd" d="M29.0788 154.099C29.0788 154.099 47.869 161.505 61.7435 149.236C75.6073 136.955 67.4146 158.717 67.4146 158.717C67.4146 158.717 64.1268 178.83 25.0144 163.07C-14.0874 147.299 29.0788 154.099 29.0788 154.099Z" fill="#DF2228"/>
<path fill-rule="evenodd" clip-rule="evenodd" d="M25.6848 155.877L30.9941 157.058C30.9941 157.058 31.324 159.112 30.8452 160.293C30.3557 161.485 30.5579 161.964 33.5584 163.081C36.5695 164.199 54.0403 165.476 57.7749 163.22C61.5095 160.964 62.2543 155.366 62.2543 155.366C62.2543 155.366 63.8929 162.304 60.7222 165.029C57.5621 167.764 53.6679 169.072 47.0711 167.955C40.4743 166.848 30.9835 164.443 29.6216 163.847C29.0896 163.613 28.4618 163.816 27.8873 164.156C26.9403 163.805 25.9934 163.443 25.0038 163.049C24.0782 162.666 23.195 162.315 22.3545 161.953C23.7483 159.431 25.6848 155.877 25.6848 155.877Z" fill="#AF171C"/>
<path fill-rule="evenodd" clip-rule="evenodd" d="M28.6641 155.621L29.345 154.206C31.0155 154.813 40.6234 157.973 50.71 155.196C50.3376 155.792 49.1353 156.451 46.5179 157.09C39.985 158.686 31.1645 156.036 31.1645 156.036L28.6641 155.621Z" fill="#F15B3E"/>
<path fill-rule="evenodd" clip-rule="evenodd" d="M32.1963 154.493C32.1963 154.493 33.1326 150.939 29.5256 148.512C25.9187 146.086 22.333 143.681 19.0346 149.885C16.1406 155.302 12.3208 160.835 15.9065 162.964C19.5028 165.092 26.5464 171.764 32.1963 154.493Z" fill="white"/>
<path d="M18.2263 151.375C20.3756 151.269 23.7165 151.63 23.7165 151.63L24.589 154.014C24.589 154.014 25.5572 156.824 24.174 158.707C22.7908 160.591 22.4823 160.974 22.4823 160.974C22.4823 160.974 23.3335 162.293 24.589 162.804C25.8445 163.315 27.2171 163.059 27.9512 162.4C28.696 161.74 28.9195 161.357 28.9195 161.357C28.9195 161.357 26.7063 165.135 24.0357 165.464C21.3545 165.794 17.7049 163.528 16.5452 162.836C16.226 162.644 15.7578 162.527 15.2471 162.432C13.1191 160.271 15.7259 155.898 18.2263 151.375Z" fill="#CED7C9"/>
<path fill-rule="evenodd" clip-rule="evenodd" d="M24.8122 150.151C24.8122 150.151 16.6195 139.712 8.25646 140.808C-0.106539 141.915 -3.10701 154.068 3.95792 158.101C10.2036 161.666 16.9174 163.134 20.7797 160.58C27.6637 154.866 24.8122 150.151 24.8122 150.151Z" fill="#7E2617"/>
<path fill-rule="evenodd" clip-rule="evenodd" d="M21.5883 145.416C21.5883 145.416 21.599 139.882 17.9176 139.372C14.2361 138.871 12.1507 142.404 15.5236 146.693C18.8964 150.992 21.7692 148.768 21.5883 145.416Z" fill="#7E2617"/>
<path fill-rule="evenodd" clip-rule="evenodd" d="M136.777 127.963C136.777 127.963 136.213 132.082 134.532 133.582C132.85 135.072 130.041 136.019 130.041 136.019C130.041 136.019 130.041 143.883 126.115 149.3C122.189 154.727 119.944 155.099 119.944 155.099C119.944 155.099 123.125 161.463 116.954 167.082C110.783 172.69 101.803 174.754 101.803 177.563C101.803 180.373 104.984 183.736 108.73 182.427C112.475 181.118 112.656 178.5 112.656 178.5C112.656 178.5 119.018 185.044 107.421 187.854C95.8234 190.663 87.7796 188.045 84.7791 183.363C81.7893 178.691 72.0643 166.337 77.4801 157.919C82.9065 149.502 110.783 122.366 115.273 119.376C119.763 116.385 129.488 112.64 129.488 112.64L136.777 127.963Z" fill="#AF171C"/>
<path fill-rule="evenodd" clip-rule="evenodd" d="M150.63 143.819C148.598 154.046 140.756 171.977 111.773 186.641L76.8417 191.163C76.8417 191.163 63.5631 193.334 56.4556 186.545C57.7856 193.813 60.254 200.975 64.6164 206.54C68.3936 207.945 74.054 209.116 82.3638 209.009C102.218 208.764 91.1631 198.708 91.1631 198.708L117.039 203.231C117.039 203.231 149.683 191.685 157.248 158.068C156.141 154.142 154.141 149.076 150.63 143.819Z" fill="#070809"/>
<path fill-rule="evenodd" clip-rule="evenodd" d="M150.63 143.819C148.598 154.046 140.756 171.977 111.773 186.641L76.8417 191.163C76.8417 191.163 63.5631 193.334 56.4556 186.545C56.5939 187.29 56.7428 188.035 56.9131 188.769C66.1273 197.027 99.5367 192.675 108.017 189.397C117.635 185.662 129.807 179.969 140.809 166.816C149.087 156.908 150.906 148.448 151.3 144.873C151.077 144.522 150.864 144.181 150.63 143.819Z" fill="#454747"/>
<path fill-rule="evenodd" clip-rule="evenodd" d="M75.5435 189.504L80.7251 210.414C80.7251 210.414 106.048 212.138 118.901 205.423L112.57 184.513C112.56 184.513 90.8863 190.461 75.5435 189.504Z" fill="#F1B83F"/>
<path fill-rule="evenodd" clip-rule="evenodd" d="M82.0444 193.653L84.8534 206.221C84.8534 206.221 106.165 206.891 111.666 203.528L108.751 190.737C108.74 190.737 91.0139 194.441 82.0444 193.653Z" fill="#070809"/>
<path fill-rule="evenodd" clip-rule="evenodd" d="M110.602 195.431L103.144 196.591C103.144 196.591 101.143 197.272 101.175 199.006C101.207 200.741 102.505 201.284 104.261 200.975C106.016 200.666 109.762 199.943 109.762 199.943C109.762 199.943 112.07 199.006 111.89 197.591C111.719 196.176 112.145 195.601 110.602 195.431Z" fill="#F1B83F"/>
<path fill-rule="evenodd" clip-rule="evenodd" d="M118.816 103.243C118.593 102.488 112.911 90.2502 112.911 90.2502C112.911 90.2502 108.974 86.5043 104.442 85.1316C99.9091 83.7588 89.6734 79.2256 85.7366 79.2256C81.7892 79.2256 80.4167 77.2569 74.3093 79.2256C68.202 81.1942 45.5495 89.4627 44.3792 90.6545C43.1981 91.8357 38.0803 98.7314 37.2823 104.446C36.495 110.16 35.1118 109.969 36.8886 114.694C38.6655 119.419 46.3369 125.718 49.497 125.921C52.6464 126.123 100.899 120.802 101.686 120.802C102.473 120.77 119.784 106.521 118.816 103.243Z" fill="#F6B19A"/>
<path fill-rule="evenodd" clip-rule="evenodd" d="M89.0455 102.626C90.5564 102.286 91.5885 101.147 91.3437 100.094C91.099 99.0402 89.6733 98.4655 88.173 98.8061C86.6622 99.1572 85.6301 100.296 85.8642 101.349C86.1089 102.392 87.5346 102.967 89.0455 102.626Z" fill="#F15B67"/>
<path fill-rule="evenodd" clip-rule="evenodd" d="M54.9235 111.778C56.328 111.15 57.1153 109.819 56.6791 108.84C56.2322 107.861 54.7213 107.574 53.3062 108.213C51.8911 108.851 51.1144 110.171 51.5613 111.16C52.0082 112.129 53.519 112.416 54.9235 111.778Z" fill="#F15B67"/>
<path fill-rule="evenodd" clip-rule="evenodd" d="M114.135 97.3267C114.135 97.3267 102.824 84.674 85.5875 83.8652C68.3508 83.0565 49.3798 86.7704 42.9213 102.126C36.4629 117.471 39.2718 122.377 39.2718 122.377C39.2718 122.377 25.0036 119.951 31.4621 99.753C37.9312 79.5554 62.818 66.6579 88.3965 72.0425C113.975 77.4271 119.784 90.3246 121.668 98.6782C123.562 107.032 114.135 97.3267 114.135 97.3267Z" fill="white"/>
<path d="M121.678 98.6782C121.104 96.1561 120.178 93.2191 118.455 90.1969C118.306 90.314 118.146 90.3991 117.976 90.4416C116.635 90.7715 113.177 93.2297 110.496 91.0056C107.815 88.7709 100.228 84.1951 91.7377 81.7369C83.247 79.2787 65.6272 79.2042 54.019 84.3441C42.4002 89.4839 41.0383 96.7095 38.8039 101.849C36.5695 106.989 37.0058 111.895 34.5586 113.012C32.1007 114.13 31.6539 115.8 31.6539 115.8L31.1006 115.779C32.2284 118.248 33.9308 119.812 35.4949 120.802C36.229 120.898 37.0377 120.983 37.9102 121.057C38.2294 121.079 38.5698 121.121 38.9103 121.174C38.4528 118.929 38.2294 113.31 42.9429 102.137C49.4119 86.781 68.383 83.0671 85.6091 83.8758C102.846 84.6846 114.156 97.3374 114.156 97.3374C114.156 97.3374 123.562 107.032 121.678 98.6782Z" fill="#CED7C9"/>
<path fill-rule="evenodd" clip-rule="evenodd" d="M71.2982 100.114C71.2982 100.114 64.0205 104.094 58.7218 108.276C53.4231 112.469 51.6569 113.129 44.826 113.129C37.9845 113.129 25.1847 113.118 25.8444 127.25C26.504 141.372 39.9636 144.468 39.9636 144.468C39.9636 144.468 38.1973 155.503 46.1454 159.473C54.0934 163.442 60.2646 163.889 60.2646 163.889C60.2646 163.889 56.5087 174.924 65.5633 179.777C74.6073 184.629 77.0332 183.086 77.0332 183.086C77.0332 183.086 85.2046 198.974 98.877 196.984C112.56 194.994 114.762 185.066 114.762 181.533C114.762 181.533 109.687 186.832 103.729 184.619C97.7704 182.416 95.568 177.116 100.42 172.7C105.272 168.295 109.027 169.178 112.56 165.198C116.092 161.229 115.209 153.056 115.209 153.056C115.209 153.056 121.827 152.832 125.583 145.33C129.329 137.828 127.349 134.295 127.349 134.295C127.349 134.295 139.043 133.859 139.926 120.61C139.926 120.61 139.926 116.417 138.383 112.884C138.383 112.884 147.874 103.392 136.84 94.5702C125.807 85.7378 116.986 94.3467 109.262 97.2199C101.526 100.114 84.3215 105.627 71.2982 100.114Z" fill="white"/>
<path fill-rule="evenodd" clip-rule="evenodd" d="M75.3096 111.448C79.7997 110.214 80.7041 114.108 81.9064 118.684C83.1087 123.26 83.4279 128.921 78.3633 129.858C73.3093 130.784 67.2126 113.683 75.3096 111.448Z" fill="#35190C"/>
<path fill-rule="evenodd" clip-rule="evenodd" d="M81.9061 118.673C81.5231 117.194 81.1613 115.79 80.7038 114.608C78.1609 114.811 73.3197 116.396 73.2559 125.452C74.6284 128.208 76.5649 130.177 78.3737 129.836C83.4277 128.911 83.1085 123.249 81.9061 118.673Z" fill="#E23C5B"/>
<path fill-rule="evenodd" clip-rule="evenodd" d="M81.4278 121.313C81.4278 121.313 81.0767 119.067 79.4913 118.716C77.9059 118.365 74.416 119.493 74.3096 122.43C74.2032 125.367 75.1076 128.475 77.2356 128.613C79.3636 128.741 81.8321 125.676 81.4278 121.313Z" fill="#F15B67"/>
<path fill-rule="evenodd" clip-rule="evenodd" d="M75.9482 126.634C75.9482 126.634 77.3314 127.868 78.4593 127.027C79.5871 126.187 80.6617 124.952 79.4701 124.739C78.289 124.527 78.0337 125.41 77.1506 125.165C76.2568 124.91 74.6289 125.282 75.9482 126.634Z" fill="#F37B7C"/>
<path fill-rule="evenodd" clip-rule="evenodd" d="M79.5014 101.732C80.6186 104.659 77.916 108.074 73.4579 109.351C69.0104 110.628 64.4991 109.288 63.3819 106.351C62.2647 103.413 64.9672 100.008 69.4147 98.7312C73.8728 97.4542 78.3842 98.7951 79.5014 101.732Z" fill="#EF5A61"/>
<path fill-rule="evenodd" clip-rule="evenodd" d="M71.713 102.116C72.1492 103.276 71.0852 104.627 69.3296 105.127C67.5741 105.627 65.7865 105.095 65.3503 103.946C64.9034 102.775 65.9781 101.435 67.7337 100.934C69.4892 100.424 71.2768 100.956 71.713 102.116Z" fill="#F1797D"/>
<path d="M83.13 98.0186C82.3746 98.0186 81.7255 97.4546 81.6298 96.6884C81.3319 94.1132 82.0128 89.0798 86.6944 88.4093C91.376 87.7496 93.4401 92.3786 93.8764 94.9326C94.0147 95.752 93.4614 96.5288 92.6421 96.6672C91.8228 96.8055 91.0461 96.2521 90.9078 95.4327C90.8759 95.2518 90.0779 90.9846 87.1306 91.389C84.1834 91.804 84.6196 96.1564 84.6409 96.3479C84.726 97.1779 84.1408 97.9229 83.3109 98.008C83.2364 98.0186 83.1832 98.0186 83.13 98.0186Z" fill="#351906"/>
<path d="M48.4012 108.095C47.7522 108.095 47.1563 107.67 46.9542 107.021C46.2094 104.541 45.9966 99.4544 50.4866 97.9859C54.9767 96.5067 57.8176 100.721 58.69 103.147C58.9667 103.934 58.5624 104.796 57.7856 105.073C56.9983 105.35 56.1365 104.945 55.8598 104.169C55.796 103.998 54.2638 99.9226 51.423 100.848C48.5927 101.785 49.7844 105.988 49.8376 106.169C50.061 106.967 49.6142 107.808 48.8162 108.042C48.6885 108.074 48.5395 108.095 48.4012 108.095Z" fill="#351906"/>
<path fill-rule="evenodd" clip-rule="evenodd" d="M81.0552 87.6324C81.0552 87.6324 82.8959 84.2378 86.2475 84.7911C89.5991 85.3445 89.5672 86.5151 91.0887 86.3235C92.6102 86.1213 95.0255 83.3226 91.8548 80.8325C88.6734 78.3424 85.2154 77.8635 82.2895 79.6726C79.3635 81.4816 77.2142 83.9292 78.608 86.4725C79.9912 89.0052 80.8531 88.0155 81.0552 87.6324Z" fill="white"/>
<path fill-rule="evenodd" clip-rule="evenodd" d="M46.1346 98.6671C46.1346 98.6671 47.4221 95.0277 50.8162 95.049C54.2104 95.0702 54.37 96.2408 55.8383 95.8045C57.3066 95.3682 59.2643 92.229 55.7425 90.2603C52.2207 88.2916 48.7201 88.3661 46.1134 90.6114C43.5172 92.8462 41.7722 95.613 43.5385 97.9009C45.3154 100.199 45.9963 99.0821 46.1346 98.6671Z" fill="white"/>
<path d="M125.583 145.352C129.328 137.85 127.349 134.317 127.349 134.317C127.349 134.317 139.043 133.88 139.926 120.632C139.926 120.632 139.926 116.439 138.383 112.906C138.383 112.906 140.681 110.607 141.703 107.223C141.437 103.254 140.298 98.6249 136.574 97.0713C136.574 97.0713 139.266 101.551 136.798 104.233C134.34 106.925 129.403 106.702 129.403 106.702C129.403 106.702 136.117 112.97 133.435 119.248C130.743 125.516 127.615 127.985 122.455 125.974L124.923 132.241C124.923 132.241 126.487 140.978 122.455 142.553C118.422 144.117 112.826 143.224 112.826 143.224L114.39 149.268C114.39 149.268 113.943 156.887 109.24 159.122C104.537 161.367 93.344 166.741 92.2162 172.562C91.2799 177.404 102.899 195.399 113.156 182.884C111.198 184.289 107.655 186.098 103.718 184.64C97.7596 182.437 95.5572 177.138 100.409 172.722C105.261 168.316 109.017 169.199 112.549 165.22C116.082 161.25 115.198 153.078 115.198 153.078C115.198 153.078 121.827 152.865 125.583 145.352Z" fill="#CED7C9"/>
<path d="M76.1182 133.401C76.1182 133.401 79.4697 135.455 82.0446 134.295C84.6195 133.135 85.3962 130.688 85.3962 130.688C85.3962 130.688 86.0452 136.232 82.1723 137.126C78.31 138.041 76.1182 133.401 76.1182 133.401Z" fill="#CED7C9"/>
<path d="M76.8416 174.776C76.8416 174.776 67.9785 179.107 64.2119 176.287C60.4454 173.456 61.0093 162.144 61.0093 162.144L61.9456 152.343C61.9456 152.343 59.8708 155.174 57.4237 157.249C54.9765 159.324 45.358 157.621 42.7192 154.237C40.0805 150.843 40.0805 142.745 40.0805 142.745L41.2084 137.275C41.2084 137.275 39.6975 140.286 37.6227 139.914C35.5479 139.542 30.2705 135.572 30.2705 135.572C31.3132 137.999 32.3134 139.829 33.1965 141.223C36.6119 143.713 39.9316 144.479 39.9316 144.479C39.9316 144.479 38.1654 155.514 46.1134 159.484C54.0614 163.453 60.2326 163.9 60.2326 163.9C60.2326 163.9 56.4767 174.935 65.5313 179.788C74.5753 184.64 77.0012 183.097 77.0012 183.097C77.0012 183.097 80.8103 190.493 87.5773 194.569C77.4374 185.14 76.8416 174.776 76.8416 174.776Z" fill="#CED7C9"/>
<path fill-rule="evenodd" clip-rule="evenodd" d="M150.63 143.819C150.523 144.373 150.385 144.947 150.247 145.543L150.821 146.022C150.821 146.022 154.002 151.918 156.641 160.548C156.865 159.739 157.077 158.92 157.269 158.079C156.141 154.142 154.141 149.076 150.63 143.819Z" fill="#454747"/>
<path fill-rule="evenodd" clip-rule="evenodd" d="M56.4663 186.545C57.7963 193.813 60.2648 200.975 64.6272 206.54C65.1166 206.721 65.6379 206.902 66.2019 207.072C62.0097 200.358 59.5945 191.397 58.839 188.343C57.9985 187.822 57.1898 187.247 56.4663 186.545Z" fill="#454747"/>
<path fill-rule="evenodd" clip-rule="evenodd" d="M181.943 124.558C181.943 130.731 176.942 135.732 170.782 135.732C164.611 135.732 159.61 130.731 159.61 124.558C159.61 118.397 164.611 113.396 170.782 113.396C176.942 113.396 181.943 118.397 181.943 124.558Z" fill="white"/>
<path fill-rule="evenodd" clip-rule="evenodd" d="M177.857 117.152C177.857 117.152 182.773 126.432 174.261 129.667C166.983 132.434 159.535 127.57 160.748 122.484C160.748 122.484 157.844 131.955 168.601 134.764C181.549 136.903 184.029 121.388 177.857 117.152Z" fill="#CED7C9"/>
<path fill-rule="evenodd" clip-rule="evenodd" d="M188.199 266.123C188.199 266.123 200.148 265.74 199.073 270.156C197.998 274.573 189.412 270.88 189.412 270.88C189.412 270.88 197.786 275.328 195.275 279.574C192.774 283.82 184.858 274.264 184.858 274.264C184.858 274.264 188.646 279.659 185.326 281.628C182.007 283.597 178.527 277.435 177.368 271.263C176.229 265.102 183.549 266.155 188.199 266.123Z" fill="#FAA939"/>
<path fill-rule="evenodd" clip-rule="evenodd" d="M170.654 265.591C170.654 265.591 174.591 270.379 179.591 270.496C184.603 270.613 188.603 258.95 188.603 258.95L170.654 265.591Z" fill="#1C2936"/>
<path fill-rule="evenodd" clip-rule="evenodd" d="M137.393 235.465C137.393 235.465 125.498 227.771 124.072 232.081C122.647 236.391 133.84 238.86 133.84 238.86C133.84 238.86 124.381 238.21 124.264 243.137C124.147 248.064 135.915 244.138 135.915 244.138C135.915 244.138 129.839 246.713 131.627 250.139C133.404 253.566 139.617 250.182 143.863 245.553C148.097 240.935 141.33 237.955 137.393 235.465Z" fill="#FAA939"/>
<path fill-rule="evenodd" clip-rule="evenodd" d="M172.728 204.498C172.728 204.498 134.435 181.13 129.062 172.872C129.062 172.872 127.37 169.733 128.019 178.554C128.679 187.387 128.679 207.946 152.768 211.884C176.857 215.832 172.728 204.498 172.728 204.498Z" fill="#1C2936"/>
<path d="M129.062 172.872C134.436 181.119 172.729 204.499 172.729 204.499C172.729 204.499 173.122 205.584 172.952 206.957C172.048 206.01 169.92 203.924 167.207 202.115C167.207 202.115 151.853 193.016 144.288 187.589C136.723 182.151 129.382 175.437 129.158 174.947C128.988 174.596 128.318 175.469 127.881 176.15C127.7 170.361 129.062 172.872 129.062 172.872Z" fill="#354555"/>
<path fill-rule="evenodd" clip-rule="evenodd" d="M214.012 195.783C214.012 195.783 231.376 203.945 242.857 223.631C249.847 235.635 252.667 247.373 252.667 247.373L232.717 259.259C232.717 259.259 226.748 225.781 208.085 208.467C189.412 191.154 214.012 195.783 214.012 195.783Z" fill="#DF2228"/>
<path d="M228.865 206.328C225.971 210.542 220.651 215.405 216.714 218.725C216.959 219.098 217.204 219.47 217.449 219.832C221.396 216.523 226.78 211.628 229.833 207.233C229.514 206.924 229.184 206.626 228.865 206.328Z" fill="#8E0C0E"/>
<path d="M241.357 221.184C241.112 220.811 240.878 220.428 240.633 220.066C234.409 225.941 227.248 229.176 223.375 230.612C223.556 231.017 223.747 231.41 223.928 231.804C227.897 230.314 235.068 227.058 241.357 221.184Z" fill="#8E0C0E"/>
<path d="M248.751 235.73C248.57 235.283 248.379 234.826 248.177 234.357C244.357 237.869 238.303 241.572 228.759 244.318C228.897 244.744 229.035 245.159 229.163 245.574C238.643 242.86 244.783 239.242 248.751 235.73Z" fill="#8E0C0E"/>
<path d="M235.59 213.352C234.717 212.309 233.834 211.319 232.951 210.383C228.961 215.14 223.386 219.896 219.417 223.036C220.098 224.195 220.736 225.366 221.353 226.537C225.365 223.397 231.206 218.47 235.59 213.352Z" fill="#8E0C0E"/>
<path d="M251.156 242.254C250.763 241.062 250.284 239.7 249.72 238.21C244.442 243.616 235.356 246.606 229.908 247.989C230.313 249.352 230.664 250.629 230.983 251.799C236.43 250.416 245.145 247.532 251.156 242.254Z" fill="#8E0C0E"/>
<path d="M244.464 226.526C243.953 225.568 243.421 224.6 242.857 223.631C242.687 223.344 242.516 223.057 242.336 222.77C240.186 226.079 235.292 231.144 224.769 233.709C225.301 234.954 225.812 236.178 226.28 237.391C236.09 234.88 241.527 230.272 244.464 226.526Z" fill="#8E0C0E"/>
<path d="M237.186 256.588L238.367 255.885C235.536 245.084 227.631 220.289 212.118 207.53L211.277 208.541C226.684 221.226 234.483 246.148 237.186 256.588Z" fill="#8E0C0E"/>
<path d="M220.97 203.955L220.077 204.923C220.321 205.147 243.804 226.866 248.762 249.692L249.954 248.99C244.708 225.898 221.215 204.179 220.97 203.955Z" fill="#8E0C0E"/>
<path fill-rule="evenodd" clip-rule="evenodd" d="M204.702 212.83C204.702 212.83 248.176 201.763 255.731 195.453C255.731 195.453 258.274 192.952 255.05 201.188C251.826 209.436 245.783 229.09 221.598 225.76C197.413 222.44 204.702 212.83 204.702 212.83Z" fill="#1C2936"/>
<path d="M255.731 195.453C248.177 201.763 204.702 212.83 204.702 212.83C204.702 212.83 204.01 213.745 203.755 215.118C204.904 214.48 207.543 213.107 210.671 212.181C210.671 212.181 228.025 208.01 236.845 205.041C245.676 202.072 254.667 197.815 255.029 197.411C255.284 197.123 255.678 198.156 255.891 198.932C257.763 193.463 255.731 195.453 255.731 195.453Z" fill="#354555"/>
<path fill-rule="evenodd" clip-rule="evenodd" d="M193.689 154.398C205.127 154.291 225.854 161.187 223.885 188.28C221.917 215.384 210.298 238.764 197.307 253.438C184.315 268.113 171.526 271.401 153.694 257.322C135.861 243.254 132.988 227.324 148.14 213.086C163.291 198.847 165.376 189.898 166.483 181.289C167.589 172.701 172.25 154.6 193.689 154.398Z" fill="#1C2936"/>
<path fill-rule="evenodd" clip-rule="evenodd" d="M192.753 181.236C192.753 181.236 192.87 167.136 183.571 166.753C174.272 166.359 169.675 174.691 169.462 184.758C169.249 194.825 163.781 205.339 154.215 212.862C144.65 220.375 137.947 230.921 149.502 247.362C161.057 263.803 183.145 273.934 202.138 240.945C221.13 207.957 222.854 177.245 214.139 169.562C205.436 161.879 197.711 175.394 198.041 182.045C198.35 188.685 192.753 181.236 192.753 181.236Z" fill="white"/>
<path fill-rule="evenodd" clip-rule="evenodd" d="M216.044 202.05C216.044 202.05 226.801 217.949 226.599 240.732C226.471 254.63 222.896 266.155 222.896 266.155L199.669 266.166C199.669 266.166 211.65 234.347 204.457 209.915C197.264 185.492 216.044 202.05 216.044 202.05Z" fill="#DF2228"/>
<path d="M223.417 218.704C218.768 220.854 211.724 222.301 206.638 223.142C206.659 223.589 206.681 224.025 206.702 224.472C211.788 223.642 218.917 222.184 223.79 219.981C223.662 219.555 223.545 219.13 223.417 218.704Z" fill="#8E0C0E"/>
<path d="M226.567 237.858C226.545 237.411 226.535 236.965 226.524 236.518C218.172 238.39 210.373 237.507 206.298 236.762C206.255 237.199 206.212 237.635 206.159 238.071C210.33 238.827 218.15 239.689 226.567 237.858Z" fill="#8E0C0E"/>
<path d="M225.492 254.151C225.566 253.672 225.63 253.183 225.705 252.682C220.619 253.747 213.533 253.842 203.914 251.32C203.818 251.757 203.723 252.182 203.616 252.608C213.15 255.109 220.278 255.13 225.492 254.151Z" fill="#8E0C0E"/>
<path d="M225.609 228.186C225.386 226.845 225.13 225.536 224.854 224.28C218.98 226.334 211.777 227.569 206.744 228.239C206.734 229.58 206.691 230.91 206.617 232.24C211.692 231.591 219.225 230.346 225.609 228.186Z" fill="#8E0C0E"/>
<path d="M224.215 260.983C224.492 259.759 224.779 258.344 225.056 256.769C217.746 258.716 208.415 256.641 203.02 255.045C202.669 256.428 202.329 257.705 201.999 258.865C207.383 260.461 216.352 262.441 224.215 260.983Z" fill="#8E0C0E"/>
<path d="M226.503 244.041C226.556 242.956 226.588 241.849 226.599 240.732C226.599 240.391 226.599 240.061 226.588 239.731C223.056 241.466 216.257 243.328 205.893 240.146C205.713 241.487 205.521 242.807 205.319 244.084C215.044 246.936 222.066 245.755 226.503 244.041Z" fill="#8E0C0E"/>
<path d="M204.872 266.165H206.245C209.33 255.439 215.214 230.08 208.394 211.181L207.16 211.628C213.937 230.399 207.894 255.801 204.872 266.165Z" fill="#8E0C0E"/>
<path d="M217.853 212.628L216.597 213.011C216.693 213.33 225.779 243.999 218.374 266.155H219.757C227.035 243.627 217.938 212.947 217.853 212.628Z" fill="#8E0C0E"/>
<path opacity="0.4" d="M216.608 202.955C213.543 203.53 206.127 205.083 204.287 207.02C204.148 207.158 203.978 207.318 203.787 207.467C203.978 208.233 204.202 209.053 204.457 209.925C205.393 213.107 206 216.417 206.361 219.769C213.235 220.992 219.204 216.8 221.97 214.384C219.874 208.627 217.629 204.636 216.608 202.955Z" fill="black"/>
<path fill-rule="evenodd" clip-rule="evenodd" d="M181.219 185.492C182.72 185.758 184.103 185.12 184.284 184.077C184.465 183.034 183.379 181.97 181.879 181.704C180.379 181.438 178.996 182.076 178.815 183.119C178.634 184.162 179.709 185.237 181.219 185.492Z" fill="#F15B67"/>
<path fill-rule="evenodd" clip-rule="evenodd" d="M207.734 187.003C209.245 187.269 210.617 186.631 210.798 185.588C210.979 184.545 209.905 183.481 208.394 183.215C206.883 182.949 205.51 183.587 205.329 184.63C205.149 185.673 206.223 186.737 207.734 187.003Z" fill="#F15B67"/>
<path d="M211.352 182.726C211.245 182.726 211.139 182.715 211.033 182.694C210.235 182.513 209.734 181.725 209.915 180.927C210.245 179.405 210.458 176.543 209.575 175.319C209.33 174.979 209 174.808 208.532 174.766C208 174.713 207.575 174.851 207.181 175.181C205.883 176.298 205.425 179.246 205.372 180.182C205.319 181.002 204.627 181.619 203.808 181.576C202.999 181.534 202.372 180.831 202.414 180.023C202.446 179.523 202.755 175.085 205.244 172.946C206.245 172.084 207.468 171.701 208.798 171.829C210.117 171.956 211.203 172.563 211.948 173.595C213.895 176.277 212.905 181.044 212.788 181.576C212.639 182.257 212.033 182.726 211.352 182.726Z" fill="#351906"/>
<path d="M185.454 180.81C185.348 180.81 185.242 180.799 185.135 180.778C184.337 180.597 183.837 179.81 184.018 179.012C184.358 177.49 184.561 174.617 183.678 173.404C183.433 173.063 183.103 172.893 182.635 172.85C182.103 172.797 181.677 172.925 181.284 173.265C179.985 174.383 179.528 177.33 179.475 178.267C179.432 179.076 178.73 179.703 177.921 179.661C177.102 179.618 176.485 178.916 176.527 178.107C176.559 177.607 176.868 173.17 179.358 171.031C180.358 170.179 181.581 169.786 182.922 169.913C184.231 170.041 185.327 170.647 186.072 171.68C188.019 174.361 187.029 179.129 186.912 179.661C186.742 180.342 186.125 180.81 185.454 180.81Z" fill="#351906"/>
<path fill-rule="evenodd" clip-rule="evenodd" d="M189.38 183.385C189.38 183.385 193.626 178.299 195.722 177.979C195.722 177.979 200.329 180.214 202.021 183.311L195.541 188.781L189.38 183.385Z" fill="#FCB341"/>
<path fill-rule="evenodd" clip-rule="evenodd" d="M195.722 177.979C195.69 177.979 195.668 178.001 195.637 178.001C195.573 179.618 195.349 185.354 195.541 188.781L202.021 183.311C200.329 180.214 195.722 177.979 195.722 177.979Z" fill="#E59C3B"/>
<path fill-rule="evenodd" clip-rule="evenodd" d="M224.003 182.768L223.971 186.184C223.971 186.184 216.97 193.782 202.904 192.845C188.848 191.898 169.803 185.056 166.834 179.235L167.494 175.787C167.494 175.787 161.801 177.256 162.057 182.938C162.312 188.621 161.461 191.898 159.131 196.017C156.79 200.135 160.759 205.264 171.42 209.063C182.081 212.862 207.766 220.056 217.395 214.703C227.014 209.35 225.333 205.519 226.556 198.751C227.78 191.983 229.184 183.651 224.003 182.768Z" fill="#DF2228"/>
<path d="M173.123 209.648C174.41 206.286 175.198 202.316 174.485 196.921C174.006 193.282 175.134 188.94 176.145 185.971C174.634 185.279 173.25 184.556 172.016 183.832C170.803 187.248 169.292 192.718 169.931 197.528C170.516 202.008 169.92 205.19 168.824 208.041C169.643 208.393 170.505 208.733 171.431 209.063C171.942 209.255 172.516 209.446 173.123 209.648Z" fill="#8E0C0E"/>
<path d="M166.345 205.296C167.196 203.902 168.367 201.976 167.664 195.921C166.919 189.493 168.388 184.843 169.611 182.225C169.228 181.938 168.877 181.64 168.558 181.342C167.217 184.055 165.547 189.036 166.356 196.07C167.005 201.688 166.015 203.306 165.217 204.615C164.962 205.04 164.717 205.445 164.536 205.924C164.909 206.147 165.302 206.36 165.717 206.583C165.845 206.105 166.068 205.732 166.345 205.296Z" fill="#8E0C0E"/>
<path d="M225.035 194.654C225.652 191.302 226.386 187.322 223.982 184.321L223.96 186.184C223.96 186.184 222.96 187.269 220.96 188.567C221.194 189.77 220.96 191.419 220.513 193.824C220.226 195.41 219.917 197.049 219.843 198.751C219.417 208.126 217.896 212.777 216.747 215.011C216.959 214.905 217.183 214.809 217.385 214.703C220.045 213.224 221.832 211.862 223.067 210.521C223.716 207.562 224.216 203.785 224.439 198.964C224.503 197.57 224.78 196.08 225.035 194.654Z" fill="#8E0C0E"/>
<path d="M204.383 198.113C202.893 202.987 202.255 208.882 202.01 211.958C201.904 213.235 201.276 214.692 200.265 216.14C201.999 216.353 203.702 216.491 205.33 216.565C206.043 215.129 206.479 213.692 206.585 212.33C206.819 209.436 207.405 203.923 208.777 199.464C209.533 197.006 209.437 194.623 209.096 192.718C207.649 192.888 206.106 192.963 204.447 192.92C204.776 194.314 204.957 196.208 204.383 198.113Z" fill="#8E0C0E"/>
<path d="M199.222 211.426C199.222 211.117 199.233 210.83 199.244 210.532C199.286 209.244 199.988 206.413 200.659 203.679C201.329 200.944 202.031 198.124 202.212 196.336C202.361 194.889 202.202 193.686 201.936 192.76C201.467 192.718 200.989 192.675 200.51 192.622C200.818 193.452 201.063 194.644 200.903 196.198C200.723 197.89 200.042 200.678 199.382 203.359C198.658 206.296 197.977 209.063 197.924 210.489C197.914 210.787 197.903 211.096 197.903 211.404C197.882 212.82 197.85 214.278 197.36 215.735C197.797 215.799 198.243 215.863 198.68 215.927C199.18 214.331 199.201 212.788 199.222 211.426Z" fill="#8E0C0E"/>
<path d="M190.115 208.265C189.583 205.732 189.859 195.452 191.785 191.143C190.285 190.802 188.785 190.419 187.306 190.004C184.837 196.389 185.167 207.105 185.603 209.201C185.795 210.138 185.508 211.713 185.082 213.181C186.54 213.554 188.04 213.915 189.561 214.256C190.083 212.436 190.508 210.127 190.115 208.265Z" fill="#8E0C0E"/>
<path d="M183.146 208.754C183.156 208.159 183.114 207.339 183.071 206.318C182.869 201.891 182.496 193.856 185.252 189.398C184.827 189.27 184.401 189.132 183.975 188.993C181.188 193.856 181.56 201.891 181.762 206.381C181.805 207.35 181.847 208.19 181.837 208.754C181.826 210.01 181.518 211.181 181.167 212.149C181.581 212.266 182.007 212.383 182.443 212.5C182.816 211.425 183.135 210.148 183.146 208.754Z" fill="#8E0C0E"/>
<path d="M215.863 207.893C216.959 203.711 218.81 196.623 216.469 190.877C216.076 191.037 215.661 191.186 215.235 191.335C217.448 196.709 215.65 203.54 214.597 207.563C214.31 208.638 214.097 209.478 214.001 210.096C213.714 211.905 212.937 214.395 212.277 216.278C212.788 216.204 213.288 216.108 213.756 216.002C214.363 214.182 215.022 211.99 215.288 210.298C215.384 209.744 215.608 208.882 215.863 207.893Z" fill="#8E0C0E"/>
<path d="M169.09 202.093C175.24 205.85 203.149 215.544 215.257 212.597C219.332 211.607 222.652 209.383 225.258 206.871C225.535 206.052 225.705 205.211 225.833 204.339C223.162 207.34 219.545 210.213 214.959 211.33C203.383 214.15 175.634 204.562 169.782 200.987C165.345 198.284 162.344 194.687 160.812 192.559C160.631 193.027 160.44 193.484 160.216 193.953C161.121 195.134 162.366 196.613 163.94 198.124C165.377 199.476 167.09 200.87 169.09 202.093Z" fill="#8E0C0E"/>
<path d="M167.526 188.44C175.772 195.059 191.551 198.656 200.116 199.103C203.191 199.262 218.949 199.688 226.567 192.26C226.95 191.888 227.301 191.494 227.631 191.09C227.684 190.26 227.706 189.462 227.674 188.706C227.131 189.643 226.461 190.515 225.641 191.313C220.034 196.772 208.415 198.209 200.169 197.783C191.774 197.347 176.357 193.835 168.335 187.408C165.143 184.843 163.238 182.938 162.1 181.587C162.046 182.002 162.015 182.449 162.046 182.917C162.057 183.13 162.057 183.321 162.068 183.524C163.313 184.843 165.058 186.461 167.526 188.44Z" fill="#8E0C0E"/>
</g>
<defs>
<linearGradient id="paint0_linear_28049_44192" x1="159.267" y1="39.4289" x2="160.76" y2="32.3365" gradientUnits="userSpaceOnUse">
<stop stop-color="#9D5A2C"/>
<stop offset="0.3495" stop-color="#3C1E10"/>
<stop offset="1" stop-color="#35190C"/>
</linearGradient>
<linearGradient id="paint1_linear_28049_44192" x1="140.698" y1="37.0348" x2="142.191" y2="29.9446" gradientUnits="userSpaceOnUse">
<stop stop-color="#9D5A2C"/>
<stop offset="0.3495" stop-color="#3C1E10"/>
<stop offset="1" stop-color="#35190C"/>
</linearGradient>
<clipPath id="clip0_28049_44192">
<rect width="274" height="282" fill="white"/>
</clipPath>
</defs>
</svg>
