<svg width="36" height="36" viewBox="0 0 36 36" fill="none" xmlns="http://www.w3.org/2000/svg">
<g clip-path="url(#clip0_28049_41148)">
<path d="M18.0004 35.8022C27.8323 35.8022 35.8026 27.8318 35.8026 18C35.8026 8.16807 27.8323 0.197754 18.0004 0.197754C8.16856 0.197754 0.198242 8.16807 0.198242 18C0.198242 27.8318 8.16856 35.8022 18.0004 35.8022Z" fill="#346DA6"/>
<path fill-rule="evenodd" clip-rule="evenodd" d="M32.5114 7.68499C31.9353 6.87609 31.2928 6.11654 30.5907 5.41422L30.5864 5.40987C29.884 4.70768 29.1244 4.06517 28.3154 3.48901L3.48926 28.315C4.06549 29.1239 4.70806 29.8834 5.41031 30.5857L5.41447 30.5901C6.11684 31.2923 6.87645 31.9348 7.68543 32.5109L32.5114 7.68499Z" fill="white"/>
<path fill-rule="evenodd" clip-rule="evenodd" d="M28.3155 32.5109C29.1244 31.9348 29.8839 31.2924 30.5862 30.5902L30.5906 30.5859C31.2928 29.8835 31.9353 29.1239 32.5114 28.3149L7.68548 3.48877C6.87656 4.065 6.11702 4.70757 5.41471 5.40982L5.41036 5.41398C4.70817 6.11635 4.06566 6.87597 3.4895 7.68495L28.3155 32.5109Z" fill="white"/>
<path fill-rule="evenodd" clip-rule="evenodd" d="M31.9032 29.1195C31.4902 29.6354 31.0489 30.128 30.5813 30.5951L18.0798 18.0932L19.4785 16.6946L31.9032 29.1195Z" fill="#CA4638"/>
<path fill-rule="evenodd" clip-rule="evenodd" d="M6.88069 31.9028C6.3648 31.4897 5.87218 31.0484 5.40508 30.5809L18.8958 17.0904L20.2944 18.489L6.88069 31.9028ZM29.12 4.09692C29.6359 4.50999 30.1285 4.95131 30.5956 5.41884L19.0827 16.9313L17.6841 15.5327L29.12 4.09692ZM4.09741 6.8802C4.51048 6.36431 4.95179 5.87169 5.41932 5.40459L16.734 16.7195L15.3353 18.1181L4.09741 6.8802Z" fill="#CA4638"/>
<path fill-rule="evenodd" clip-rule="evenodd" d="M35.5566 20.967C35.7184 20.0021 35.8026 19.0108 35.8026 18C35.8026 16.9892 35.7184 15.9978 35.5566 15.033H0.444308C0.282506 15.9978 0.198242 16.9892 0.198242 18C0.198242 19.0108 0.282506 20.0021 0.444308 20.967H35.5566Z" fill="white"/>
<path fill-rule="evenodd" clip-rule="evenodd" d="M20.9675 35.5561C20.0026 35.7179 19.0112 35.8022 18.0005 35.8022C16.9897 35.8022 15.9983 35.7179 15.0334 35.5561V0.44382C15.9983 0.282018 16.9897 0.197754 18.0005 0.197754C19.0112 0.197754 20.0026 0.282018 20.9675 0.44382V35.5561Z" fill="white"/>
<path fill-rule="evenodd" clip-rule="evenodd" d="M35.6938 19.978C35.7658 19.3286 35.8026 18.6686 35.8026 18C35.8026 17.3314 35.7658 16.6714 35.6938 16.022H0.307033C0.234836 16.6714 0.198242 17.3314 0.198242 18C0.198242 18.6686 0.235033 19.3286 0.307033 19.978H35.6938Z" fill="#CA4638"/>
<path fill-rule="evenodd" clip-rule="evenodd" d="M19.9785 35.6934C19.3291 35.7654 18.6691 35.8022 18.0005 35.8022C17.3319 35.8022 16.6718 35.7654 16.0225 35.6934V0.306545C16.6718 0.234347 17.3319 0.197754 18.0005 0.197754C18.6691 0.197754 19.3291 0.234545 19.9785 0.306545V35.6934Z" fill="#CA4638"/>
</g>
<defs>
<clipPath id="clip0_28049_41148">
<rect width="36" height="36" fill="white"/>
</clipPath>
</defs>
</svg>
