<svg width="237" height="211" viewBox="0 0 237 211" fill="none" xmlns="http://www.w3.org/2000/svg">
<g clip-path="url(#clip0_28049_44486)">
<path opacity="0.4" d="M118.5 211.006C183.946 211.006 237 204.837 237 197.228C237 189.619 183.946 183.45 118.5 183.45C53.0543 183.45 0 189.619 0 197.228C0 204.837 53.0543 211.006 118.5 211.006Z" fill="#92CAD8"/>
<path d="M58.8113 147.216L58.7386 152.157L58.1333 194.188L25.8041 194.485L25.102 150.591L25.0354 146.646L40.9246 146.913L43.4366 146.955L58.8113 147.216Z" fill="#DA4130"/>
<path d="M44.9982 194.31L42.5226 194.334L40.9246 146.913L43.4366 146.956L44.9982 194.31Z" fill="#E8CF56"/>
<path opacity="0.7" d="M58.8113 147.216L58.7386 152.157C50.6942 151.829 30.5013 150.852 25.0959 150.591L25.0354 146.646L40.9185 146.913L43.4305 146.955L58.8113 147.216Z" fill="#8F231E"/>
<path d="M52.7884 132.965C52.8852 133.013 53.8174 132.928 54.9917 134.166C56.1599 135.404 56.7107 137.074 56.7107 137.074L54.35 136.102C54.35 136.102 54.5316 137.899 54.5195 137.82C54.5074 137.741 52.1346 133.031 47.8733 134.288C43.618 135.544 46.6566 132.946 46.6566 132.946L52.7884 132.965Z" fill="#E09F32"/>
<path d="M54.9917 134.167C55.1309 134.331 48.4242 130.458 41.1182 139.86L38.4851 139.326C38.4851 139.326 42.8372 131.144 50.4035 131.794C50.3974 131.794 53.4663 132.358 54.9917 134.167Z" fill="#E8CF56"/>
<path d="M41.8021 130.009C41.8021 130.009 42.3529 127.284 44.1204 126.428C45.8879 125.573 46.5598 126.076 46.9472 127.23C47.3346 128.389 47.153 130.101 45.1131 133.584C43.0793 137.068 40.4644 140.449 40.4644 140.449L39.5625 138.021L40.2465 136.261C40.2465 136.261 43.7633 131.776 44.1688 129.597C44.5683 127.418 44.2536 127.187 43.5696 127.976C42.8796 128.759 42.2864 130.483 42.2864 130.483L41.8021 130.009Z" fill="#E09F32"/>
<path d="M37.2806 142.998C37.0505 143.137 36.7842 143.283 36.5239 143.222C36.8568 142.646 37.1595 142.051 37.444 141.45C38.4548 139.295 39.163 136.995 39.5444 134.646C39.9197 132.34 39.6352 129.894 40.531 127.697C41.0395 126.458 42.0019 125.281 43.3154 125.05C43.7028 124.984 44.1084 125.002 44.4897 125.087C45.5914 125.336 46.5477 126.173 46.9472 127.235C46.5356 126.131 44.6168 126.774 44.0357 127.345C43.7391 127.642 43.5273 128.012 43.3517 128.395C43.1157 128.91 42.9462 129.451 42.8009 130.003C42.0806 132.759 42.0624 135.666 41.3179 138.415C41.1424 139.071 40.9184 139.726 40.5552 140.303C40.2042 140.867 39.732 141.547 39.1388 141.869C38.5154 142.209 37.904 142.615 37.2806 142.998Z" fill="#E8CF56"/>
<path d="M34.2722 131.922C34.2722 131.922 32.1778 130.101 30.253 130.507C28.3281 130.914 28.1041 131.721 28.5036 132.875C28.9031 134.028 30.0895 135.272 33.8242 136.783C37.559 138.295 41.6871 139.369 41.6871 139.369L40.9184 136.899L39.3022 135.921C39.3022 135.921 33.7879 134.525 32.1415 133.045C30.4951 131.564 30.6101 131.193 31.627 131.388C32.65 131.588 34.1693 132.589 34.1693 132.589L34.2722 131.922Z" fill="#E09F32"/>
<path d="M45.7611 139.435C46.0274 139.405 46.324 139.362 46.4996 139.15C45.8882 138.895 45.2829 138.61 44.6897 138.306C42.5772 137.22 40.616 135.836 38.8849 134.203C37.184 132.607 35.9189 130.495 33.873 129.305C32.7168 128.638 31.2399 128.292 30.0535 128.917C29.7024 129.099 29.3998 129.366 29.1455 129.669C28.4252 130.543 28.1771 131.788 28.51 132.874C28.165 131.745 30.0717 131.078 30.8828 131.181C31.3004 131.229 31.6939 131.393 32.0631 131.594C32.5655 131.861 33.0316 132.182 33.4735 132.528C35.7191 134.27 37.5048 136.558 39.7686 138.282C40.3073 138.695 40.8824 139.077 41.5179 139.314C42.1414 139.545 42.9283 139.793 43.5881 139.69C44.3084 139.563 45.0347 139.514 45.7611 139.435Z" fill="#E8CF56"/>
<path d="M40.4039 135.957C41.5177 135.66 42.7828 135.987 43.6181 136.782C43.8299 136.983 44.0115 137.213 44.1508 137.468C44.3989 137.93 44.4837 138.47 44.4534 138.992C42.2441 139.01 40.0408 139.119 37.8435 139.326C38.0251 137.79 38.7817 136.358 40.4039 135.957Z" fill="#77BB61"/>
<path d="M61.0992 140.066L60.7421 148.818L43.6726 149.219L42.8433 149.237L40.6763 149.291L40.3313 149.298L23.6129 149.692L22.3357 140.145C25.1503 139.538 31.4636 138.19 39.4536 137.765C39.6171 137.759 39.7805 137.747 39.9439 137.747C40.7732 137.705 41.6085 137.674 42.4559 137.656C42.4983 137.65 42.5346 137.65 42.577 137.65C48.8842 137.523 55.5365 138.075 61.0992 140.066Z" fill="#DA4130"/>
<path d="M42.8493 149.237L40.6824 149.292L40.3373 149.298L39.95 137.741C40.7792 137.699 41.6145 137.669 42.462 137.65L42.8493 149.237Z" fill="#E8CF56"/>
<path d="M38.5457 107.339C40.9063 109.639 43.267 111.94 45.6277 114.234C47.0744 115.642 48.515 117.05 49.9617 118.452C51.1299 119.587 52.3042 120.741 53.1274 122.149C54.6043 124.692 54.7556 127.763 54.8646 130.701C55.3367 130.488 55.9118 130.543 56.3355 130.84C56.1176 128.746 56.1357 126.622 56.4021 124.534C64.0289 121.317 71.8131 118.452 79.7062 115.952C79.7546 114.137 79.1856 112.601 78.6711 111.588C76.3468 112.231 74.0164 113.73 71.8373 114.738C69.2829 115.927 66.7346 117.111 64.1863 118.295C62.8909 118.895 61.5895 119.502 60.2942 120.109C59.3075 120.565 57.7519 121.7 56.6805 121.791C53.3574 118.082 50.5851 114.07 47.4981 110.289C45.9606 108.401 44.3384 106.562 42.5346 104.851C41.6811 105.391 39.387 106.811 38.5457 107.339Z" fill="#683D1C"/>
<path opacity="0.5" d="M38.5457 107.339C40.9063 109.639 43.267 111.94 45.6277 114.234L47.492 110.295C45.9546 108.407 44.3323 106.568 42.5285 104.856C41.6811 105.391 39.387 106.811 38.5457 107.339Z" fill="#683D1C"/>
<path d="M17.2875 80.0567C16.8517 81.7744 16.7851 83.5649 16.9364 85.3251C17.112 87.3644 17.5962 89.3673 18.3407 91.2671C20.308 96.2744 24.1032 100.572 28.9093 102.987C31.1974 104.134 34.012 105.257 34.5568 107.758C34.6779 108.298 39.5687 105.907 39.9924 105.621C40.8217 105.057 46.6749 100.511 46.3783 99.9708C46.0212 99.3274 45.7246 98.6112 45.4825 97.8646C44.9983 96.3898 44.7319 94.7813 44.7077 93.3247C44.6532 90.5509 45.2948 87.8196 45.5188 85.0641C45.6096 83.9169 45.6217 82.7212 45.1798 81.653C44.738 80.5848 43.7513 79.6804 42.5952 79.6501C41.5057 79.6258 40.519 80.3906 39.9621 81.3313C39.4113 82.2721 39.2055 83.3768 39.0118 84.4511C38.7394 84.2022 38.4791 83.9473 38.2249 83.6802C38.116 83.571 38.0131 83.4557 37.9102 83.3403C36.7056 82.0111 35.719 80.4695 35.0229 78.8125C34.7142 78.072 34.4599 77.3133 34.1997 76.5425C33.8728 75.5592 33.5459 74.5699 33.098 73.6291C32.3051 71.9661 31.0339 70.4062 29.2786 69.8661C26.9118 69.1499 24.4119 70.4669 22.5294 72.0693C20.0719 74.1815 18.0805 76.9249 17.2875 80.0567Z" fill="#DA4130"/>
<path opacity="0.7" d="M33.9757 95.2002C34.4357 90.1322 38.4428 87.5648 38.4428 87.5648L39.0118 84.4633C38.6244 84.1112 38.2612 83.741 37.9101 83.3525L37.2745 87.0124C32.7711 90.3749 33.9757 95.2002 33.9757 95.2002Z" fill="#8F231E"/>
<path opacity="0.7" d="M18.3408 91.2734C20.3081 96.2808 24.1033 100.578 28.9094 102.994C31.1974 104.141 34.0121 105.264 34.5569 107.764C34.6779 108.304 39.5688 105.913 39.9925 105.628C40.8217 105.063 46.675 100.517 46.3784 99.9771C46.0213 99.3337 45.7247 98.6175 45.4826 97.871C43.4427 99.8436 38.1584 103.965 31.942 102.047C26.1613 100.268 20.7923 94.3143 18.3408 91.2734Z" fill="#8F231E"/>
<path d="M33.8244 106.204C33.8244 106.204 33.8668 106.265 34.0484 106.526C34.1331 106.647 34.2602 106.915 34.3692 107.163C40.3193 104.851 44.2235 101.07 45.9547 99.1213C45.8155 98.8239 45.6762 98.484 45.5612 98.1137C45.5612 98.1137 46.7537 97.7556 47.6132 98.8178L50.8576 103.588C51.2208 104.116 51.1845 104.821 50.7668 105.312C49.2294 107.121 45.1133 111.37 38.6124 113.834C38.001 114.064 37.317 113.84 36.9478 113.3L33.6186 108.408C33.1525 107.722 33.2312 106.799 33.8184 106.217C33.8244 106.204 33.8244 106.204 33.8244 106.204Z" fill="#E8CF56"/>
<path d="M119.656 195.583H44.4836C44.6229 194.333 45.0103 193.082 45.5248 191.978C47.5586 187.583 51.1299 184.609 54.8585 182.333C56.6865 181.216 58.9564 180.543 60.6331 179.159C62.0979 177.939 63.2056 176.422 64.846 175.353C65.5058 174.922 66.1898 174.528 66.8919 174.188C69.1739 173.071 71.6496 172.489 74.089 172.841C77.9508 173.399 81.2497 176.173 84.6091 178.461C87.2906 180.288 90.0932 181.854 93.0047 183.134C94.8448 183.948 96.7394 184.652 98.6945 184.949C101.667 185.404 104.705 184.901 107.683 185.362C112.011 186.03 116.206 188.9 118.742 193.052C119.232 193.884 119.529 194.733 119.656 195.583Z" fill="white"/>
<path opacity="0.7" d="M119.656 195.583H101.122C99.5602 193.683 97.5143 192.178 95.1899 191.353C91.3462 189.993 86.982 190.381 83.3018 188.609C79.4521 186.752 77.0672 182.886 74.3494 179.578C72.8603 177.763 71.0928 176.033 69.0045 174.922C68.26 174.528 67.57 174.315 66.886 174.188C69.168 173.071 71.6437 172.489 74.083 172.841C77.9449 173.399 81.2438 176.173 84.6032 178.461C87.2847 180.288 90.0872 181.854 92.9987 183.134C94.8388 183.948 96.7334 184.652 98.6886 184.949C101.661 185.404 104.699 184.901 107.677 185.362C112.005 186.03 116.2 188.9 118.736 193.052C119.233 193.884 119.529 194.733 119.656 195.583Z" fill="#92CAD8"/>
<path d="M166.319 157.886C160.478 173.776 145.951 186.018 129.511 188.92C121.333 190.358 112.931 189.63 104.736 188.313C97.4114 187.135 90.0751 185.454 83.4471 182.073C78.2778 179.439 73.6775 175.749 69.8641 171.348C64.035 164.623 60.04 156.223 58.6902 147.356C56.4445 132.68 61.4201 117.099 71.565 106.411C75.8263 101.919 80.9593 98.3201 86.5523 95.7649C87.7689 95.2065 89.0098 94.7027 90.2688 94.2414C97.1572 91.7287 104.306 91.0914 111.491 91.231C116.145 91.3281 120.812 91.7408 125.449 92.196C132.973 92.9304 140.345 95.4614 146.786 99.4976C151.241 102.296 155.248 105.804 158.559 109.937C160.714 112.626 162.554 115.558 164.073 118.647C165.465 121.481 166.579 124.455 167.415 127.514C170.132 137.438 169.872 148.224 166.319 157.886Z" fill="white"/>
<path opacity="0.4" d="M166.319 157.886C160.478 173.77 145.951 186.018 129.51 188.919C121.333 190.364 112.931 189.629 104.735 188.312C97.4113 187.135 90.0751 185.453 83.447 182.073C78.2777 179.438 73.6774 175.748 69.864 171.348C79.8152 174.814 90.7167 175.924 101.152 174.128C115.274 171.706 128.348 163.864 135.921 152.563C143.499 141.261 145.242 126.616 139.855 114.276C138.076 110.192 135.497 106.416 132.343 103.127C126.653 97.1907 119.571 93.549 111.485 91.2305C116.139 91.3215 120.806 91.7403 125.443 92.1955C132.967 92.9299 140.339 95.4609 146.78 99.4971C151.235 102.295 155.242 105.803 158.553 109.937C169.097 123.077 172.16 142.008 166.319 157.886Z" fill="#92CAD8"/>
<path opacity="0.7" d="M146.786 99.4975C143.65 102.478 139.655 104.669 135.273 105.579C133.959 105.852 132.549 106.046 131.514 106.848C130.418 107.697 129.971 109.051 129.19 110.162C127.21 113.008 123.125 114.095 119.505 113.621C115.885 113.148 112.623 111.4 109.536 109.591C107.798 108.571 105.94 107.491 103.882 107.552C101.673 107.625 99.7962 109.008 97.7321 109.743C94.863 110.769 91.2675 110.398 89.1671 108.316C87.0667 106.229 87.1696 102.381 89.7421 100.815C88.1562 99.3761 87.327 97.5917 86.5461 95.7587C87.7628 95.2003 89.0037 94.6905 90.2627 94.2353C101.612 90.1019 113.664 91.0427 125.443 92.1898C132.973 92.9243 140.345 95.4613 146.786 99.4975Z" fill="#92CAD8"/>
<path d="M152.615 72.4762C151.901 80.3544 147.797 87.6743 142.028 92.633C136.26 97.5979 128.929 100.287 121.545 100.875C111.896 101.652 101.872 98.8118 94.3908 92.2567C94.1003 92.0018 93.8097 91.7408 93.5313 91.4677C89.385 87.5529 86.195 82.4484 84.4457 76.8645C83.6165 74.2242 83.108 71.4687 82.9809 68.6949C82.9264 67.475 82.9385 66.255 83.0293 65.035C83.5075 58.6681 85.8137 53.4666 89.3002 49.3939C98.0348 39.1668 114.16 35.9864 127.235 39.1365C129.517 39.6827 131.708 40.4232 133.748 41.3519C139.867 44.1438 145.206 49.1208 148.65 55.1721C151.61 60.3797 153.172 66.3885 152.615 72.4762Z" fill="white"/>
<path opacity="0.4" d="M152.591 72.4757C151.876 80.3539 147.772 87.6737 142.004 92.6325C136.235 97.5973 128.905 100.286 121.52 100.875C111.872 101.652 101.848 98.8112 94.3666 92.2562C94.0761 92.0013 93.7855 91.7403 93.5071 91.4672C101.14 93.2334 109.269 92.7782 116.484 89.7556C126.98 85.3491 135.134 75.3344 136.58 64.0209C137.5 56.7982 135.521 49.272 131.338 43.336C130.188 41.7033 128.687 40.4166 127.216 39.1299C129.498 39.6761 131.69 40.4166 133.729 41.3453C145.115 46.5407 153.789 59.311 152.591 72.4757Z" fill="#92CAD8"/>
<path d="M104.657 100.39C104.239 100.893 103.646 101.203 103.071 101.494C100.934 102.562 98.7371 103.521 96.5035 104.359C95.2626 104.82 93.9855 105.251 92.6659 105.263C92.0303 105.269 91.3827 105.16 90.7955 104.936C90.1539 104.687 89.5789 104.298 89.1612 103.752C88.3985 102.757 88.2775 101.361 88.6709 100.165C89.0644 98.9754 89.9299 97.98 90.9408 97.2395C90.16 95.8436 89.4699 94.1562 90.0934 92.6813C90.6442 91.3703 92.1393 90.6481 93.5557 90.6359C94.9782 90.6238 96.334 91.2004 97.587 91.862C99.5663 92.9059 101.364 94.2109 103.168 95.5219C103.41 95.6918 103.646 95.8678 103.882 96.0378C104.494 96.4809 105.171 96.7297 105.329 97.5309C105.504 98.4534 105.256 99.6734 104.657 100.39Z" fill="#DA4130"/>
<path opacity="0.7" d="M104.657 100.39C104.239 100.893 103.646 101.203 103.071 101.494C100.934 102.563 98.737 103.522 96.5034 104.359C95.2625 104.82 93.9854 105.251 92.6658 105.263C92.0302 105.27 91.3826 105.16 90.7954 104.936C93.6403 104.42 96.3097 102.86 98.1075 100.584C98.2951 100.347 98.4827 100.056 98.4101 99.7706C98.3254 99.4368 97.9561 99.285 97.6293 99.1819C95.8376 98.5931 94.0459 98.0104 92.2542 97.4278C94.518 97.5916 96.7879 97.7495 99.0517 97.9133C99.2273 97.9255 99.4391 97.9255 99.5541 97.7859C99.7357 97.5552 99.4876 97.2396 99.2636 97.0575C97.8593 95.9529 96.3339 94.9939 94.7299 94.2109C96.9332 94.3748 97.6172 94.7511 99.1183 95.0607C100.184 95.2852 101.273 96.0136 102.351 95.8133C102.635 95.7647 102.901 95.6433 103.18 95.528C103.422 95.698 103.658 95.874 103.894 96.0439C104.506 96.487 105.183 96.7358 105.341 97.537C105.504 98.4535 105.256 99.6735 104.657 100.39Z" fill="#8F231E"/>
<path d="M107.411 101.258C107.774 101.889 108.374 102.344 108.955 102.775C111.11 104.359 113.349 105.834 115.655 107.182C116.933 107.928 118.258 108.645 119.717 108.906C120.419 109.033 121.152 109.039 121.848 108.899C122.604 108.748 123.312 108.426 123.875 107.904C124.904 106.945 125.304 105.434 125.098 104.044C124.886 102.66 124.124 101.391 123.149 100.39C124.269 98.994 125.352 97.2703 124.947 95.5223C124.584 93.9746 123.07 92.8942 121.515 92.6089C119.953 92.3297 118.349 92.706 116.836 93.1977C114.457 93.9746 112.229 95.0671 109.99 96.1717C109.693 96.3174 109.397 96.463 109.1 96.6087C108.343 96.979 107.544 97.1307 107.217 97.9804C106.836 98.9637 106.885 100.348 107.411 101.258Z" fill="#DA4130"/>
<path opacity="0.7" d="M107.411 101.257C107.774 101.888 108.373 102.344 108.954 102.775C111.109 104.359 113.349 105.834 115.655 107.181C116.932 107.928 118.258 108.644 119.717 108.905C120.419 109.032 121.151 109.038 121.847 108.899C118.803 107.782 116.158 105.56 114.608 102.708C114.451 102.41 114.293 102.058 114.432 101.749C114.59 101.397 115.026 101.3 115.407 101.245C117.495 100.942 119.584 100.638 121.672 100.335C119.142 100.08 116.612 99.8247 114.081 99.5759C113.882 99.5516 113.652 99.5152 113.549 99.3392C113.391 99.0539 113.724 98.7504 114.009 98.5926C115.77 97.6397 117.628 96.875 119.547 96.3166C117.09 96.0799 116.26 96.3651 114.547 96.4198C113.331 96.4622 111.987 97.0631 110.837 96.6383C110.534 96.529 110.256 96.3469 109.977 96.1709C109.681 96.3166 109.384 96.4622 109.088 96.6079C108.331 96.9781 107.532 97.1299 107.205 97.9796C106.836 98.9629 106.884 100.347 107.411 101.257Z" fill="#8F231E"/>
<path d="M102.726 98.3446C102.514 99.5403 103.083 100.724 103.925 101.549C104.754 102.357 106.249 102.357 107.266 101.895C108.319 101.41 109.094 100.341 109.179 99.1822C109.312 97.4342 107.829 95.7286 106.073 95.8136C104.639 95.8864 102.992 96.8272 102.726 98.3446Z" fill="#E8CF56"/>
<path d="M103.955 97.1308C103.779 97.3554 103.694 97.6589 103.773 97.932C103.797 98.017 103.84 98.102 103.912 98.1505C103.979 98.1991 104.064 98.2233 104.148 98.2233C104.457 98.2416 104.748 98.0655 104.96 97.841C105.087 97.7074 105.196 97.5436 105.238 97.3615C105.45 96.4389 104.324 96.6574 103.955 97.1308Z" fill="white"/>
<path d="M102.302 76.9189C102.847 76.755 103.313 76.2573 103.295 75.6868C103.265 74.8249 102.157 74.4001 101.443 74.6671C100.898 74.8674 100.438 75.5169 100.492 76.1117C100.565 76.9918 101.624 77.1192 102.302 76.9189Z" fill="#272425"/>
<path d="M105.898 80.1053C106.485 80.4755 107.32 80.4998 107.823 80.0264C108.591 79.3041 108.083 77.9446 107.266 77.4954C106.642 77.1555 105.68 77.2587 105.172 77.7868C104.427 78.5637 105.165 79.644 105.898 80.1053Z" fill="#272425"/>
<path d="M112.98 80.9433C113.525 80.7795 113.991 80.2818 113.972 79.7112C113.942 78.8494 112.834 78.4245 112.12 78.6915C111.575 78.8918 111.115 79.5413 111.17 80.1361C111.249 81.0101 112.302 81.1436 112.98 80.9433Z" fill="#272425"/>
<path d="M119.081 79.1226C119.699 78.9405 120.231 78.3639 120.213 77.7205C120.177 76.7373 118.918 76.2578 118.101 76.5552C117.477 76.7858 116.957 77.5202 117.017 78.2061C117.096 79.2015 118.307 79.3472 119.081 79.1226Z" fill="#272425"/>
<path d="M123.512 74.8857C124.057 74.7218 124.523 74.2241 124.505 73.6536C124.474 72.7917 123.367 72.3669 122.652 72.6339C122.108 72.8342 121.648 73.4837 121.702 74.0785C121.775 74.9586 122.834 75.086 123.512 74.8857Z" fill="#272425"/>
<path opacity="0.7" d="M109.838 67.1465C109.917 70.0174 107.653 72.9793 104.681 73.1189C103.325 73.1856 101.975 72.8397 100.619 72.87C98.864 72.9125 97.3023 73.6894 95.8133 74.5331C94.3303 75.3767 93.2771 76.8334 91.5641 77.2825C90.0508 77.6892 88.4649 77.1976 86.9214 76.9305C86.1224 76.797 85.2568 76.7181 84.4397 76.8637C83.6104 74.2235 83.102 71.468 82.9749 68.6942C83.217 68.8217 83.4591 68.9795 83.6831 69.113C84.4821 69.5439 85.4566 69.5075 86.3464 69.3315C87.2362 69.1494 88.1078 68.8459 89.0158 68.7731C90.4322 68.6639 91.8425 69.1434 93.2589 69.0887C96.0312 68.9855 98.6159 66.8734 101.34 67.4196C102.665 67.6867 103.803 68.5607 105.123 68.8642C106.848 69.2647 108.773 68.5667 109.838 67.1465Z" fill="#92CAD8"/>
<path opacity="0.4" d="M106.388 107.94C106.206 107.758 106.001 107.606 105.783 107.485C105.347 107.315 104.966 107.114 104.687 107.06C104.457 107.011 104.221 106.981 103.985 106.969C103.985 106.969 103.985 106.975 103.979 106.975C103.549 106.908 103.095 106.957 102.647 107.139C100.214 108.14 99.6329 111.472 100.238 113.56C100.432 114.222 100.765 114.889 101.388 115.272C101.564 115.381 101.751 115.454 101.945 115.502C102.193 115.654 102.557 115.739 102.75 115.77C102.829 115.782 103.688 115.885 103.725 115.782C104.427 115.715 105.129 115.393 105.619 114.914C106.449 114.1 106.788 112.978 107.03 111.885C107.338 110.544 107.49 109.026 106.388 107.94Z" fill="#92CAD8"/>
<path d="M105.559 107.332C105.377 107.15 105.171 106.999 104.953 106.877C104.518 106.707 104.136 106.507 103.858 106.452C103.628 106.404 103.392 106.373 103.156 106.361C103.095 106.471 103.022 106.531 102.992 106.653C102.956 106.823 103.01 107.041 103.053 107.211C103.144 107.587 103.325 107.939 103.464 108.304C103.797 109.135 103.955 110.033 103.858 110.92C103.761 111.8 103.41 112.668 102.798 113.359C102.55 113.645 102.242 113.906 101.86 114.003C101.697 114.045 101.533 114.051 101.37 114.088C101.207 114.124 101.043 114.191 100.946 114.312C100.529 114.846 101.539 115.114 101.915 115.168C101.993 115.18 102.853 115.283 102.889 115.18C103.591 115.114 104.294 114.792 104.784 114.312C105.613 113.499 105.952 112.376 106.194 111.284C106.503 109.936 106.654 108.419 105.559 107.332Z" fill="#363636"/>
<path d="M99.415 112.953C99.6087 113.615 99.9416 114.282 100.565 114.665C101.576 115.284 103.029 114.901 103.858 114.088C104.687 113.275 105.026 112.152 105.268 111.059C105.565 109.718 105.716 108.201 104.621 107.114C103.876 106.38 102.841 106.113 101.824 106.532C99.3908 107.533 98.8097 110.865 99.415 112.953Z" fill="#272425"/>
<path d="M101.025 109.966C101.061 110.051 101.122 110.136 101.213 110.179C101.297 110.215 101.394 110.203 101.479 110.167C101.558 110.13 101.624 110.064 101.673 109.997C101.842 109.766 101.872 109.475 101.866 109.202C101.866 109.105 101.86 109.007 101.824 108.922C101.733 108.698 101.431 108.649 101.261 108.825C101.073 109.02 100.958 109.274 100.946 109.529C100.934 109.675 100.958 109.827 101.025 109.966Z" fill="#363636"/>
<path d="M102.109 112.182C102.145 112.267 102.205 112.352 102.296 112.395C102.381 112.431 102.478 112.419 102.563 112.383C102.641 112.346 102.708 112.279 102.756 112.213C102.926 111.982 102.956 111.691 102.95 111.417C102.95 111.32 102.944 111.223 102.908 111.138C102.817 110.914 102.514 110.865 102.345 111.041C102.157 111.235 102.042 111.49 102.03 111.745C102.024 111.891 102.048 112.043 102.109 112.182Z" fill="#363636"/>
<path opacity="0.4" d="M103.785 124.231C103.604 124.049 103.398 123.897 103.18 123.776C102.744 123.606 102.363 123.405 102.084 123.351C101.854 123.302 101.618 123.272 101.382 123.26C101.382 123.26 101.382 123.266 101.376 123.266C100.946 123.199 100.492 123.248 100.045 123.43C97.6112 124.431 97.0301 127.763 97.6354 129.851C97.8291 130.513 98.162 131.18 98.7855 131.563C98.961 131.672 99.1487 131.745 99.3424 131.794C99.5905 131.945 99.9537 132.03 100.147 132.061C100.226 132.073 101.086 132.176 101.122 132.073C101.824 132.006 102.526 131.684 103.017 131.205C103.846 130.391 104.185 129.269 104.427 128.176C104.736 126.835 104.887 125.317 103.785 124.231Z" fill="#92CAD8"/>
<path d="M102.956 123.623C102.774 123.441 102.568 123.29 102.351 123.168C101.915 122.998 101.533 122.798 101.255 122.743C101.025 122.695 100.789 122.664 100.553 122.652C100.492 122.762 100.42 122.822 100.389 122.944C100.353 123.114 100.408 123.332 100.45 123.502C100.541 123.878 100.722 124.23 100.862 124.595C101.194 125.426 101.352 126.324 101.255 127.211C101.158 128.091 100.807 128.959 100.196 129.65C99.9475 129.936 99.6388 130.197 99.2575 130.294C99.0941 130.336 98.9306 130.342 98.7672 130.379C98.6038 130.415 98.4403 130.482 98.3435 130.603C97.9258 131.137 98.9367 131.405 99.312 131.459C99.3907 131.471 100.25 131.575 100.286 131.471C100.989 131.405 101.691 131.083 102.181 130.603C103.01 129.79 103.349 128.667 103.591 127.575C103.9 126.233 104.051 124.71 102.956 123.623Z" fill="#363636"/>
<path d="M96.8122 129.25C97.0059 129.911 97.3388 130.579 97.9623 130.962C98.9731 131.581 100.426 131.198 101.255 130.385C102.084 129.572 102.423 128.449 102.665 127.356C102.962 126.015 103.113 124.498 102.018 123.411C101.273 122.677 100.238 122.41 99.2213 122.828C96.788 123.824 96.2069 127.156 96.8122 129.25Z" fill="#272425"/>
<path d="M98.4223 126.263C98.4586 126.348 98.5191 126.433 98.6099 126.476C98.6947 126.512 98.7915 126.5 98.8762 126.464C98.9549 126.427 99.0215 126.36 99.0699 126.294C99.2394 126.063 99.2697 125.772 99.2636 125.499C99.2636 125.401 99.2576 125.304 99.2213 125.219C99.1305 124.995 98.8278 124.946 98.6583 125.122C98.4707 125.316 98.3557 125.571 98.3436 125.826C98.3315 125.972 98.3557 126.124 98.4223 126.263Z" fill="#363636"/>
<path d="M99.5119 128.479C99.5482 128.564 99.6087 128.649 99.6995 128.692C99.7843 128.728 99.8811 128.716 99.9658 128.679C100.045 128.643 100.111 128.576 100.16 128.509C100.329 128.279 100.359 127.987 100.353 127.714C100.353 127.617 100.347 127.52 100.311 127.435C100.22 127.211 99.9174 127.162 99.7479 127.338C99.5603 127.532 99.4453 127.787 99.4332 128.042C99.4211 128.188 99.4453 128.339 99.5119 128.479Z" fill="#363636"/>
<path opacity="0.4" d="M103.458 140.739C103.246 140.594 103.023 140.472 102.786 140.387C102.326 140.296 101.921 140.163 101.636 140.151C101.4 140.145 101.164 140.151 100.934 140.175V140.181C100.498 140.187 100.063 140.308 99.651 140.563C97.4174 141.959 97.3992 145.34 98.3435 147.3C98.6401 147.92 99.082 148.527 99.7599 148.794C99.9476 148.866 100.147 148.909 100.347 148.927C100.619 149.03 100.989 149.055 101.188 149.055C101.267 149.055 102.133 149.012 102.151 148.903C102.835 148.721 103.47 148.284 103.87 147.731C104.554 146.791 104.699 145.625 104.76 144.509C104.826 143.149 104.723 141.626 103.458 140.739Z" fill="#92CAD8"/>
<path d="M102.532 140.284C102.32 140.139 102.096 140.017 101.86 139.932C101.4 139.841 100.995 139.708 100.71 139.696C100.474 139.689 100.238 139.696 100.008 139.72C99.9717 139.835 99.9052 139.914 99.8991 140.035C99.8931 140.211 99.9839 140.418 100.056 140.576C100.214 140.928 100.444 141.249 100.644 141.583C101.11 142.348 101.412 143.21 101.467 144.096C101.521 144.982 101.316 145.893 100.831 146.675C100.632 146.997 100.371 147.307 100.014 147.465C99.8628 147.531 99.6994 147.568 99.542 147.628C99.3907 147.689 99.2393 147.78 99.1606 147.92C98.8398 148.515 99.8749 148.606 100.256 148.606C100.335 148.606 101.201 148.563 101.219 148.454C101.903 148.272 102.538 147.835 102.938 147.282C103.622 146.342 103.767 145.176 103.828 144.06C103.9 142.694 103.797 141.17 102.532 140.284Z" fill="#363636"/>
<path d="M97.4174 146.858C97.714 147.477 98.1559 148.084 98.8338 148.351C99.9355 148.794 101.303 148.169 101.987 147.228C102.671 146.288 102.817 145.122 102.877 144.006C102.944 142.634 102.841 141.11 101.582 140.224C100.728 139.623 99.6571 139.532 98.7249 140.115C96.4913 141.511 96.4671 144.898 97.4174 146.858Z" fill="#272425"/>
<path d="M98.501 143.646C98.5554 143.725 98.622 143.798 98.7189 143.823C98.8036 143.841 98.9065 143.816 98.9792 143.768C99.0518 143.719 99.1063 143.64 99.1426 143.568C99.2697 143.313 99.2515 143.021 99.2031 142.748C99.185 142.657 99.1668 142.56 99.1123 142.475C98.9852 142.269 98.6826 142.269 98.5433 142.475C98.386 142.7 98.3194 142.967 98.3496 143.228C98.3678 143.373 98.4162 143.519 98.501 143.646Z" fill="#363636"/>
<path d="M99.9475 145.644C100.002 145.722 100.069 145.795 100.165 145.82C100.25 145.838 100.353 145.814 100.426 145.765C100.498 145.716 100.553 145.638 100.589 145.565C100.716 145.31 100.698 145.018 100.65 144.745C100.631 144.654 100.613 144.557 100.559 144.472C100.432 144.266 100.129 144.266 99.9899 144.472C99.8325 144.697 99.7659 144.964 99.7962 145.225C99.8083 145.37 99.8628 145.516 99.9475 145.644Z" fill="#363636"/>
<path opacity="0.4" d="M104.929 157.898C104.699 157.776 104.463 157.691 104.221 157.637C103.755 157.6 103.337 157.521 103.053 157.546C102.817 157.57 102.587 157.606 102.357 157.661V157.667C101.927 157.728 101.503 157.904 101.128 158.207C99.0819 159.87 99.4814 163.227 100.662 165.054C101.037 165.63 101.545 166.176 102.254 166.358C102.453 166.413 102.653 166.425 102.853 166.419C103.131 166.492 103.507 166.468 103.7 166.443C103.779 166.431 104.633 166.28 104.639 166.176C105.292 165.909 105.873 165.393 106.2 164.799C106.763 163.779 106.763 162.608 106.685 161.491C106.588 160.119 106.297 158.62 104.929 157.898Z" fill="#92CAD8"/>
<path d="M103.961 157.558C103.731 157.436 103.494 157.351 103.252 157.297C102.786 157.26 102.369 157.181 102.084 157.206C101.848 157.23 101.618 157.266 101.388 157.321C101.364 157.442 101.309 157.527 101.315 157.649C101.328 157.825 101.449 158.019 101.533 158.165C101.733 158.499 101.999 158.784 102.242 159.087C102.798 159.791 103.204 160.605 103.367 161.479C103.531 162.353 103.44 163.281 103.053 164.119C102.895 164.459 102.677 164.799 102.338 165.005C102.193 165.09 102.036 165.151 101.89 165.23C101.745 165.309 101.606 165.418 101.551 165.569C101.303 166.201 102.344 166.164 102.726 166.11C102.804 166.098 103.658 165.946 103.664 165.843C104.318 165.576 104.899 165.06 105.226 164.465C105.789 163.445 105.789 162.274 105.71 161.157C105.613 159.779 105.323 158.286 103.961 157.558Z" fill="#363636"/>
<path d="M99.6932 164.714C100.069 165.29 100.577 165.837 101.285 166.019C102.429 166.322 103.712 165.533 104.275 164.514C104.838 163.494 104.838 162.323 104.76 161.206C104.657 159.834 104.366 158.335 103.004 157.613C102.084 157.121 101.007 157.17 100.159 157.861C98.1134 159.531 98.5129 162.887 99.6932 164.714Z" fill="#272425"/>
<path d="M100.371 161.393C100.432 161.466 100.51 161.533 100.607 161.539C100.698 161.551 100.789 161.509 100.856 161.448C100.922 161.387 100.964 161.308 100.995 161.23C101.092 160.963 101.037 160.677 100.952 160.41C100.922 160.319 100.892 160.228 100.831 160.155C100.68 159.967 100.377 160.01 100.262 160.228C100.135 160.471 100.099 160.744 100.159 160.999C100.202 161.139 100.274 161.278 100.371 161.393Z" fill="#363636"/>
<path d="M102.054 163.202C102.114 163.275 102.193 163.342 102.29 163.348C102.381 163.36 102.472 163.317 102.538 163.257C102.605 163.196 102.647 163.117 102.677 163.038C102.774 162.771 102.72 162.486 102.635 162.219C102.605 162.128 102.574 162.037 102.514 161.964C102.363 161.776 102.06 161.818 101.945 162.037C101.818 162.279 101.782 162.553 101.842 162.808C101.884 162.947 101.951 163.087 102.054 163.202Z" fill="#363636"/>
<path opacity="0.7" d="M167.414 127.514L147.149 114.386C147.149 114.386 157.415 117.002 164.073 118.653C165.465 121.481 166.585 124.455 167.414 127.514Z" fill="#92CAD8"/>
<path d="M190.822 102.144C188.503 104.821 186.179 107.491 183.861 110.168C182.438 111.807 181.022 113.445 179.599 115.078C178.455 116.401 177.293 117.742 176.543 119.321C175.187 122.173 175.308 125.481 175.453 128.631C174.932 128.449 174.315 128.558 173.891 128.916C173.94 126.653 173.722 124.383 173.25 122.173C164.794 119.412 156.204 117.051 147.53 115.09C147.319 113.154 147.785 111.454 148.251 110.319C150.799 110.799 153.432 112.195 155.847 113.081C158.686 114.125 161.519 115.163 164.358 116.201C165.798 116.729 167.245 117.263 168.686 117.791C169.781 118.192 171.555 119.266 172.705 119.266C175.925 114.993 178.54 110.447 181.506 106.119C182.983 103.959 184.557 101.846 186.336 99.8496C187.287 100.341 189.871 101.652 190.822 102.144Z" fill="#683D1C"/>
<path d="M149.28 107.733C149.28 107.733 146.017 113.706 148.414 118.956C148.414 118.956 143.311 113.172 149.28 107.733Z" fill="#363636"/>
<path opacity="0.5" d="M190.822 102.144C188.503 104.821 186.179 107.491 183.861 110.168L181.512 106.119C182.989 103.959 184.563 101.846 186.342 99.8496C187.287 100.341 189.871 101.652 190.822 102.144Z" fill="#683D1C"/>
<path d="M211.13 71.0128C211.747 72.8093 211.983 74.7273 211.977 76.627C211.971 78.8303 211.638 81.0153 211.002 83.1153C209.35 88.6507 205.67 93.5974 200.737 96.6139C198.394 98.0463 195.476 99.503 195.119 102.234C195.041 102.823 189.587 100.705 189.109 100.432C188.17 99.9036 181.494 95.5639 181.766 94.9569C182.093 94.2346 182.347 93.4456 182.541 92.6202C182.929 90.9935 183.068 89.2516 182.965 87.6917C182.771 84.7177 181.845 81.8468 181.355 78.9213C181.155 77.7013 181.034 76.4207 181.415 75.2371C181.791 74.0536 182.771 72.9975 184 72.864C185.162 72.7365 186.288 73.4648 186.966 74.4238C187.644 75.3828 187.959 76.5421 188.267 77.6771C188.534 77.3857 188.794 77.0883 189.042 76.7788C189.145 76.6513 189.248 76.5178 189.351 76.3903C190.525 74.8547 191.439 73.1249 192.032 71.2798C192.299 70.4604 192.504 69.6228 192.71 68.7792C192.97 67.6927 193.237 66.6063 193.63 65.5623C194.326 63.7112 195.549 61.9207 197.383 61.1923C199.853 60.2091 202.649 61.3926 204.81 62.9464C207.619 64.9736 210.004 67.7292 211.13 71.0128Z" fill="#DA4130"/>
<path opacity="0.7" d="M194.623 88.7297C193.673 83.3461 189.151 80.9547 189.151 80.9547L188.267 77.6832C188.649 77.2705 189.006 76.8456 189.351 76.3965L190.356 80.2567C195.476 83.4553 194.623 88.7297 194.623 88.7297Z" fill="#8F231E"/>
<path opacity="0.7" d="M211.009 83.1152C209.356 88.6506 205.676 93.5972 200.743 96.6138C198.4 98.0462 195.483 99.5029 195.125 102.234C195.047 102.823 189.593 100.705 189.115 100.432C188.177 99.9035 181.5 95.5638 181.773 94.9568C182.099 94.2345 182.354 93.4455 182.547 92.6201C184.908 94.5441 190.931 98.4832 197.42 95.8733C203.448 93.4516 208.66 86.5931 211.009 83.1152Z" fill="#8F231E"/>
<path d="M195.773 100.499C195.773 100.499 195.731 100.565 195.561 100.863C195.483 101.002 195.368 101.3 195.271 101.573C188.697 99.6367 184.169 95.9343 182.148 94.0103C182.275 93.6826 182.39 93.3063 182.475 92.8996C182.475 92.8996 181.167 92.6204 180.338 93.8404L177.293 99.2422C176.954 99.8431 177.057 100.596 177.547 101.081C179.357 102.878 184.139 107.06 191.33 109.105C192.002 109.299 192.716 108.996 193.061 108.383L196.185 102.841C196.62 102.065 196.457 101.087 195.773 100.511C195.773 100.499 195.773 100.499 195.773 100.499Z" fill="#E8CF56"/>
<path d="M177.299 195.383C176.99 194.988 173.552 195.383 173.074 195.383H119.729C117.386 195.383 114.529 195.838 112.223 195.383C111.969 195.334 111.6 195.389 111.382 195.401C110.71 192.785 113.034 190.09 114.838 188.379C117.023 186.309 119.753 184.858 122.562 183.839C125.691 182.71 128.99 182.115 132.21 181.277C133.475 180.956 134.728 180.586 135.957 180.136C139.934 178.674 143.959 176.118 148.348 176.331C152.058 176.507 155.321 178.74 158.353 180.895C162.506 183.839 166.652 186.782 170.798 189.726C173.147 191.389 175.55 193.113 177.299 195.383Z" fill="white"/>
<path opacity="0.4" d="M177.299 195.383C176.99 194.988 173.552 195.383 173.074 195.383H161.604C156.664 190.764 152.821 184.579 146.604 181.975C142.089 180.082 137.101 180.409 132.204 181.283C133.469 180.962 134.722 180.591 135.951 180.142C139.928 178.679 143.953 176.124 148.341 176.337C152.052 176.513 155.315 178.746 158.347 180.901C162.499 183.845 166.646 186.788 170.792 189.732C173.147 191.389 175.55 193.113 177.299 195.383Z" fill="#92CAD8"/>
<path d="M110.601 65.8177C110.595 66.801 110.419 67.7842 110.153 68.5247C109.596 70.0967 108.283 71.4623 106.636 71.7415C105.395 71.96 104.154 71.5595 102.914 71.2681C102.72 71.2256 102.52 71.1771 102.326 71.1467C101.709 71.0314 101.098 70.9707 100.486 71.0557C98.8338 71.2863 97.4961 72.4942 95.9283 73.0708C93.7371 73.8841 91.3099 73.4107 89.0279 72.9312C88.1684 72.7491 87.3633 72.4092 86.5219 72.1725C86.3282 72.1178 86.1345 72.0632 85.9348 72.0268C85.6442 71.9661 85.3537 71.9297 85.051 71.9176C84.2944 71.8993 83.5438 72.0511 82.7872 72.0572C81.2074 72.0632 80.3297 71.1589 78.9557 70.7158C78.2898 70.5034 77.4727 70.4305 76.6616 70.4548C75.8686 70.4791 75.0878 70.5883 74.4401 70.734C74.2706 70.7765 74.1011 70.819 73.9316 70.7947C73.7622 70.7704 73.5927 70.6672 73.5503 70.4973C73.4837 70.2424 73.7319 70.0239 73.9559 69.8782C75.6628 68.7918 77.3213 68.2819 79.3188 68.0209C81.3163 67.7599 83.3623 67.7539 85.2992 67.1591C87.3572 66.5218 89.3063 65.49 91.3886 64.9741C91.6549 64.9073 91.9333 64.8466 92.2057 64.798C92.3631 64.7677 92.5144 64.7495 92.6718 64.7313C92.6779 64.7313 92.6779 64.7313 92.6779 64.7313C93.7371 64.5856 94.8085 64.5674 95.8617 64.4157C96.0675 64.3853 96.2794 64.3489 96.4913 64.3064C96.7031 64.2639 96.9089 64.2093 97.1208 64.1486C99.203 63.5295 100.91 61.9818 102.986 61.3445C103.301 61.2474 103.652 61.1745 104.015 61.1199H104.021C104.384 61.0653 104.766 61.041 105.159 61.041C106.854 61.041 108.682 61.5266 109.699 62.6798C110.359 63.4324 110.607 64.622 110.601 65.8177Z" fill="#D27236"/>
<g opacity="0.5">
<path d="M86.528 72.1723C86.3343 72.1177 86.1406 72.0631 85.9408 72.0267C85.9045 71.7475 85.8803 71.535 85.8621 71.4683C85.6684 70.6671 85.2387 68.9555 84.5244 68.4639C85.3295 69.0223 85.8803 69.9084 86.195 70.8431C86.3464 71.274 86.4553 71.7232 86.528 72.1723Z" fill="#D27236"/>
<path d="M102.913 71.2675C102.72 71.225 102.52 71.1765 102.326 71.1461C102.217 70.4906 102.157 69.7866 102.126 69.647C101.933 68.8519 101.503 67.1403 100.783 66.6426C101.594 67.207 102.139 68.0871 102.459 69.0279C102.714 69.7441 102.835 70.5088 102.913 71.2675Z" fill="#D27236"/>
<path d="M94.7842 71.5533C94.5784 70.1452 94.3544 68.7068 93.731 67.42C93.3254 66.5764 92.7262 65.7995 91.9514 65.2593C91.8182 65.1682 91.6003 65.0772 91.3884 64.9801C91.6548 64.9133 91.9332 64.8526 92.2056 64.8041C92.363 64.7737 92.5143 64.7555 92.6717 64.7373C92.6777 64.7373 92.6777 64.7373 92.6777 64.7373C92.7443 64.7919 92.7988 64.8526 92.8593 64.9133C94.5178 66.6371 95.2624 69.2045 94.7842 71.5533Z" fill="#D27236"/>
<path d="M97.3507 68.6342C97.1933 67.5478 97.0177 66.4431 96.5456 65.4538C96.364 65.0835 96.1401 64.7315 95.8677 64.4159C96.0735 64.3855 96.2853 64.3491 96.4972 64.3066C97.3204 65.563 97.6473 67.1532 97.3507 68.6342Z" fill="#D27236"/>
<path d="M106.703 66.2242C106.545 65.1377 106.376 64.0331 105.898 63.0437C105.589 62.3943 105.123 61.7934 104.53 61.3807C104.409 61.2957 104.203 61.2168 104.021 61.1258C104.384 61.0712 104.766 61.0469 105.159 61.0469C105.183 61.0651 105.202 61.0894 105.226 61.1136C106.497 62.4368 107.072 64.4154 106.703 66.2242Z" fill="#D27236"/>
</g>
<path opacity="0.3" d="M110.601 65.8174C110.595 66.8006 110.419 67.7839 110.153 68.5244C109.596 70.0964 108.283 71.462 106.636 71.7412C105.395 71.9597 104.154 71.5591 102.914 71.2678C102.72 71.2253 102.52 71.1767 102.326 71.1464C101.709 71.0311 101.098 70.9704 100.486 71.0554C98.8338 71.286 97.4961 72.4938 95.9284 73.0704C93.7372 73.8837 91.3099 73.4103 89.0279 72.9308C88.1684 72.7487 87.3634 72.4089 86.522 72.1721C86.3283 72.1175 86.1346 72.0629 85.9348 72.0265C85.6443 71.9658 85.3538 71.9294 85.0511 71.9172C84.2945 71.899 83.5439 72.0508 82.7873 72.0568C81.2074 72.0629 80.3298 71.1585 78.9557 70.7155C78.2899 70.503 77.4727 70.4302 76.6616 70.4545C77.4788 70.1449 78.3625 70.0175 79.2342 70.1085C80.354 70.2178 81.4193 70.6608 82.5452 70.7458C83.6831 70.8308 84.8271 70.5394 85.953 70.679C87.2484 70.8308 88.4226 71.5227 89.7119 71.6805C90.9104 71.8262 92.1755 71.371 93.2227 70.8126C94.4696 70.151 95.3473 69.0706 96.7455 68.5851C99.6086 67.5775 102.817 69.1435 105.849 68.7672C107.58 68.5487 109.184 67.6564 110.22 66.3758C110.377 66.1937 110.486 65.9934 110.601 65.8174Z" fill="#D27236"/>
<path d="M121.926 59.184C121.163 58.1522 120.086 57.3753 118.833 57.1446C117.592 56.9201 116.212 57.3328 115.425 58.3221C114.893 58.9837 114.663 59.8334 114.469 60.6589C114.384 61.017 114.36 61.4601 114.402 61.8303C114.426 62.0245 114.548 62.2066 114.729 62.2855C115.359 62.5768 115.631 61.6725 115.77 61.2537C116.152 60.1187 116.938 58.9898 118.113 58.7713C119.711 58.4739 121.042 60.1066 121.363 61.5147C121.502 62.1216 121.436 63.111 122.017 63.4933C122.217 63.6269 122.489 63.6572 122.707 63.5601C123.125 63.372 123.131 62.8196 123.113 62.4312C123.064 61.2962 122.628 60.1369 121.926 59.184Z" fill="#272425"/>
<path d="M92.0122 56.1366C92.7688 55.3051 93.7797 54.7224 94.8934 54.6375C95.9951 54.5525 97.1633 55.0381 97.7625 55.9667C98.1681 56.5919 98.2952 57.3566 98.3921 58.091C98.4344 58.4127 98.4163 58.8012 98.3436 59.1168C98.3073 59.2806 98.1802 59.4324 98.0168 59.487C97.4417 59.6812 97.2844 58.874 97.1996 58.4916C96.9696 57.4659 96.3825 56.4098 95.3777 56.1124C94.0097 55.7057 92.7022 57.0167 92.2967 58.2124C92.1211 58.7283 92.0909 59.6023 91.5461 59.8815C91.3585 59.9786 91.1224 59.9847 90.9347 59.8815C90.5897 59.6812 90.6321 59.1957 90.6866 58.8618C90.8318 57.8786 91.3161 56.9014 92.0122 56.1366Z" fill="#272425"/>
<path opacity="0.7" d="M148.65 55.1721C125.025 61.0838 100.202 53.5273 89.3003 49.3939C98.0348 39.1668 114.16 35.9864 127.235 39.1365C129.517 39.6827 131.708 40.4232 133.748 41.3519C139.867 44.1438 145.206 49.1208 148.65 55.1721Z" fill="#92CAD8"/>
<path d="M156.816 48.0883C156.816 48.0883 156.549 48.1369 156.211 48.1915C153.468 43.0263 139.365 37.1329 121.781 34.1831C104.076 31.2151 88.7375 32.2166 84.5912 36.2771L83.6045 36.5987L83.5077 38.371C83.5016 38.4439 83.4956 38.5106 83.4956 38.5835L83.4895 38.6502C83.4956 44.1674 98.7855 51.123 118.403 54.4188C138.596 57.8056 155.72 56.0211 156.652 50.4311C156.683 50.249 156.695 50.067 156.689 49.8788L156.816 48.0883Z" fill="#363636"/>
<path d="M156.771 48.5375C157.767 42.5633 142.207 34.9744 122.015 31.5872C101.823 28.2 84.6457 30.2973 83.649 36.2715C82.6522 42.2458 98.2131 49.8347 118.405 53.2219C138.597 56.609 155.774 54.5118 156.771 48.5375Z" fill="#272425"/>
<path d="M152.93 15.6532C152.93 15.6593 152.924 15.6593 152.924 15.6593C150.944 21.5285 145.89 36.5141 144.837 44.9689C144.837 44.9689 122.459 48.3739 98.0652 37.3699C98.0652 37.3699 100.045 19.5013 97.472 10.221C97.2722 9.49872 97.1935 8.78859 97.2238 8.09667C97.5628 -0.133566 113.585 -2.06974 129.904 2.18498C147.597 6.80387 154.897 9.79006 152.93 15.6532Z" fill="#272425"/>
<path d="M150.569 27.0155C149.94 27.6285 149.201 28.1262 148.396 28.4721C148.723 28.3568 149.098 28.7513 149.056 29.1216C149.007 29.51 148.675 29.8014 148.348 30.0138C147.621 30.4872 146.798 30.7907 145.945 30.9121C146.308 30.8939 146.629 31.3005 146.586 31.6768C146.544 32.0774 146.205 32.3991 145.836 32.5569C145.466 32.7147 145.055 32.7511 144.655 32.8179C143.366 33.0425 142.155 33.6798 141.211 34.578C140.733 35.0333 140.315 35.5613 139.988 36.144C139.831 36.4232 139.68 36.7206 139.577 37.0241C139.48 37.3032 139.462 37.6917 139.268 37.9163C139.226 37.9648 139.165 38.0012 139.099 38.0194C139.026 38.0377 138.959 38.0255 138.905 37.983C138.82 37.9102 138.814 37.7827 138.826 37.6674C138.959 36.3989 140.061 35.5431 140.57 34.4384C141.078 33.3399 141.12 31.9135 140.848 30.7543C140.733 30.2566 140.551 29.7649 140.539 29.2551C140.527 28.7453 140.721 28.1869 141.169 27.9502C141.574 27.7377 142.174 27.938 142.301 28.3568C142.149 27.4707 142.21 26.5481 142.476 25.6862C142.585 25.3403 142.767 24.9579 143.118 24.8668C143.421 24.7879 143.747 24.97 143.929 25.2189C144.117 25.4738 144.189 25.7894 144.262 26.0929C144.316 25.5952 144.268 25.0914 144.28 24.5877C144.292 24.0839 144.383 23.5619 144.673 23.1553C144.964 22.7486 145.509 22.4876 145.981 22.6454C146.368 22.7729 146.61 23.2342 146.52 23.6105C147.113 22.4937 148.057 21.5711 149.183 20.9945C149.558 20.8064 150.036 20.6607 150.369 20.9217C150.412 20.952 150.448 20.9945 150.478 21.0309C150.684 21.298 150.672 21.7046 150.624 22.0567C150.436 23.3495 150.018 24.5998 149.401 25.753C149.685 25.6013 149.994 25.4799 150.315 25.5102C150.636 25.5345 150.957 25.7469 151.023 26.0565C151.102 26.4085 150.835 26.7545 150.569 27.0155Z" fill="#315242"/>
<path opacity="0.5" d="M150.569 27.0158C149.94 27.6288 149.201 28.1265 148.396 28.4725C148.723 28.3571 149.098 28.7516 149.056 29.1219C149.007 29.5103 148.675 29.8017 148.348 30.0141C147.621 30.4875 146.798 30.791 145.945 30.9124C146.308 30.8942 146.629 31.3008 146.586 31.6771C146.544 32.0777 146.205 32.3994 145.836 32.5572C145.466 32.715 145.055 32.7514 144.655 32.8182C143.366 33.0428 142.155 33.6801 141.211 34.5784C140.733 35.0336 140.315 35.5616 139.988 36.1443C139.831 36.4235 139.68 36.7209 139.577 37.0244C139.48 37.3036 139.462 37.692 139.268 37.9166C139.226 37.9651 139.165 38.0016 139.099 38.0198C139.147 37.6192 139.292 37.0183 139.668 36.3992C140.333 35.3067 143.209 31.0884 145.781 27.908C147.603 25.6562 149.516 22.6154 150.478 21.0312C150.684 21.2983 150.672 21.705 150.624 22.057C150.436 23.3498 150.018 24.6001 149.401 25.7533C149.685 25.6016 149.994 25.4802 150.315 25.5105C150.636 25.5348 150.957 25.7472 151.023 26.0568C151.102 26.4088 150.835 26.7548 150.569 27.0158Z" fill="#315242"/>
<path opacity="0.3" d="M145.642 23.665C145.642 23.665 145.642 23.7075 145.642 23.7864C145.642 23.8653 145.642 23.9807 145.636 24.1263C145.624 24.4177 145.612 24.8365 145.575 25.3342C145.533 25.8318 145.472 26.4145 145.382 27.0336C145.333 27.3432 145.279 27.6588 145.218 27.9865C145.188 28.1504 145.152 28.3082 145.121 28.4721C145.103 28.5449 145.103 28.6299 145.127 28.6784C145.152 28.7209 145.194 28.7391 145.267 28.7209C145.333 28.7027 145.412 28.6602 145.491 28.6299L145.721 28.5328C145.872 28.466 146.023 28.3992 146.175 28.3325C146.471 28.199 146.768 28.0654 147.046 27.9319C147.609 27.6709 148.136 27.4221 148.584 27.1975C149.032 26.9729 149.401 26.7908 149.661 26.6573C149.921 26.5238 150.067 26.4509 150.067 26.4509C150.067 26.4509 149.921 26.5359 149.673 26.6816C149.419 26.8272 149.062 27.0336 148.62 27.2703C148.178 27.501 147.664 27.7741 147.101 28.0411C146.822 28.1747 146.526 28.3143 146.229 28.4478C146.078 28.5146 145.926 28.5813 145.775 28.6481L145.545 28.7513C145.466 28.7816 145.4 28.818 145.303 28.8484C145.254 28.8605 145.2 28.8666 145.146 28.8484C145.091 28.8362 145.037 28.7877 145.012 28.7331C144.964 28.6299 144.988 28.5328 145 28.4478C145.037 28.2839 145.067 28.1261 145.103 27.9622C145.17 27.6406 145.224 27.3249 145.279 27.0154C145.382 26.4024 145.46 25.8258 145.515 25.3281C145.569 24.8304 145.606 24.4177 145.63 24.1263C145.63 23.835 145.642 23.665 145.642 23.665Z" fill="#315242"/>
<path opacity="0.3" d="M143.239 26.3906C143.239 26.3906 143.227 26.5484 143.209 26.8276C143.19 27.1068 143.172 27.5013 143.154 27.9748C143.136 28.4482 143.13 29.0005 143.136 29.5953C143.136 29.8927 143.142 30.1962 143.154 30.5118C143.16 30.6696 143.166 30.8214 143.172 30.9792C143.172 31.0581 143.178 31.1309 143.209 31.1734C143.215 31.1855 143.221 31.1855 143.233 31.1977C143.239 31.2037 143.251 31.2037 143.263 31.2037C143.287 31.2098 143.318 31.2037 143.354 31.1916C143.42 31.1734 143.493 31.137 143.566 31.1066L143.784 31.0156C143.929 30.9549 144.074 30.8942 144.219 30.8335C144.504 30.7121 144.788 30.5968 145.061 30.4815C145.606 30.2508 146.12 30.0445 146.556 29.8624C146.992 29.6803 147.361 29.5407 147.621 29.4375C147.882 29.3343 148.027 29.2797 148.027 29.2797C148.027 29.2797 147.882 29.3465 147.633 29.4618C147.379 29.5771 147.022 29.741 146.586 29.9352C146.15 30.1234 145.648 30.354 145.103 30.5907C144.831 30.706 144.552 30.8274 144.262 30.9549C144.117 31.0156 143.977 31.0763 143.832 31.143L143.614 31.2341C143.541 31.2644 143.475 31.3008 143.39 31.3251C143.348 31.3373 143.299 31.3494 143.245 31.3373C143.221 31.3312 143.19 31.3251 143.166 31.3069C143.148 31.2948 143.118 31.2705 143.106 31.2523C143.045 31.1552 143.051 31.0641 143.045 30.9852C143.039 30.8274 143.033 30.6696 143.027 30.5118C143.021 30.2023 143.015 29.8927 143.015 29.5953C143.015 29.0005 143.045 28.4421 143.075 27.9687C143.106 27.4953 143.148 27.1008 143.178 26.8216C143.215 26.5484 143.239 26.3906 143.239 26.3906Z" fill="#315242"/>
<path opacity="0.3" d="M141.453 29.0361C141.453 29.0361 141.484 29.1636 141.532 29.3821C141.574 29.6006 141.641 29.9162 141.702 30.2986C141.756 30.681 141.817 31.124 141.853 31.6035C141.871 31.8463 141.889 32.0952 141.895 32.344C141.901 32.4715 141.901 32.5989 141.907 32.7264L141.913 32.9206C141.913 32.9874 141.913 33.042 141.932 33.0784C141.95 33.1088 141.98 33.133 142.028 33.127C142.077 33.127 142.131 33.1027 142.18 33.0723C142.283 33.0117 142.386 32.9327 142.494 32.8721C142.712 32.7385 142.924 32.6111 143.142 32.5018C143.572 32.2833 143.996 32.1255 144.359 32.0041C144.54 31.9434 144.716 31.9009 144.867 31.8645C145.019 31.8281 145.152 31.7978 145.261 31.7795C145.37 31.7553 145.46 31.7431 145.515 31.7371C145.575 31.731 145.606 31.7249 145.606 31.7249C145.606 31.7249 145.479 31.7492 145.267 31.8038C145.049 31.8584 144.746 31.9434 144.383 32.0709C144.02 32.1983 143.614 32.3744 143.191 32.5989C142.979 32.7082 142.767 32.8356 142.555 32.9692C142.446 33.0359 142.349 33.1088 142.234 33.1816C142.174 33.2119 142.107 33.2484 142.028 33.2544C141.986 33.2605 141.944 33.2544 141.901 33.2302C141.883 33.218 141.853 33.1998 141.847 33.1877C141.829 33.1695 141.817 33.1513 141.804 33.133C141.768 33.0541 141.774 32.9752 141.774 32.9145V32.7203C141.774 32.5929 141.768 32.4654 141.768 32.3379C141.762 32.0891 141.75 31.8402 141.732 31.5975C141.702 31.118 141.665 30.6749 141.617 30.2925C141.574 29.9101 141.532 29.5945 141.496 29.37C141.472 29.1636 141.453 29.0361 141.453 29.0361Z" fill="#315242"/>
<path opacity="0.3" d="M147.948 22.4023C147.948 22.4023 147.906 22.724 147.833 23.2096C147.815 23.331 147.803 23.4645 147.785 23.598C147.767 23.7376 147.755 23.8833 147.736 24.035C147.718 24.1868 147.706 24.3446 147.688 24.5024C147.682 24.5813 147.67 24.6663 147.664 24.7452C147.652 24.8301 147.64 24.903 147.64 24.9758C147.64 25.0486 147.658 25.1215 147.688 25.1518L147.73 25.1943C147.742 25.2004 147.755 25.2065 147.767 25.2125C147.797 25.2247 147.827 25.2307 147.857 25.2307C147.991 25.2307 148.136 25.17 148.269 25.0972C148.402 25.0244 148.523 24.9455 148.65 24.8787C148.771 24.8119 148.886 24.7512 148.995 24.6905C149.207 24.5692 149.383 24.466 149.498 24.3871C149.619 24.3142 149.685 24.2657 149.685 24.2657C149.685 24.2657 149.625 24.3203 149.51 24.4053C149.395 24.4903 149.238 24.6177 149.032 24.7512C148.929 24.818 148.82 24.8908 148.699 24.9637C148.578 25.0304 148.463 25.1215 148.324 25.2004C148.19 25.2732 148.039 25.3582 147.851 25.3582C147.803 25.3582 147.755 25.346 147.712 25.3278C147.688 25.3157 147.664 25.3036 147.646 25.2854L147.603 25.2429C147.525 25.1579 147.512 25.0547 147.512 24.9637C147.512 24.8726 147.531 24.7937 147.543 24.7148C147.555 24.6359 147.561 24.557 147.573 24.4781C147.591 24.3203 147.615 24.1625 147.634 24.0108C147.652 23.859 147.676 23.7134 147.7 23.5738C147.724 23.4342 147.749 23.3067 147.773 23.1853C147.821 22.9425 147.87 22.7483 147.9 22.6087C147.924 22.4812 147.948 22.4023 147.948 22.4023Z" fill="#315242"/>
<path d="M140.182 21.965C140.358 22.9179 140.364 23.9072 140.194 24.8662C140.285 24.4899 140.884 24.3867 141.193 24.6538C141.52 24.939 141.58 25.4185 141.574 25.8555C141.562 26.8145 141.338 27.7674 140.927 28.6232C141.132 28.2712 141.701 28.2287 142.022 28.4958C142.367 28.781 142.452 29.2848 142.367 29.7279C142.289 30.171 142.065 30.5655 141.883 30.9782C141.296 32.3074 141.145 33.8127 141.393 35.239C141.52 35.9613 141.75 36.6714 142.083 37.3269C142.246 37.6425 142.422 37.9642 142.64 38.2495C142.833 38.5104 143.184 38.7654 143.269 39.087C143.287 39.1538 143.287 39.2388 143.257 39.3055C143.233 39.3784 143.178 39.4391 143.1 39.4634C142.979 39.4998 142.858 39.4209 142.761 39.342C141.677 38.4437 141.562 36.902 140.86 35.7549C140.158 34.6138 138.875 33.7034 137.64 33.2421C137.113 33.0479 136.55 32.9083 136.078 32.6109C135.6 32.3135 135.207 31.7915 135.267 31.227C135.316 30.7233 135.872 30.2923 136.332 30.4259C135.424 30.0192 134.613 29.4001 133.984 28.6293C133.73 28.3198 133.494 27.9131 133.621 27.5368C133.73 27.209 134.099 27.0209 134.444 27.0027C134.789 26.9845 135.128 27.1119 135.455 27.2333C135.031 26.8752 134.535 26.6142 134.081 26.2925C133.627 25.9709 133.203 25.5763 133.003 25.0544C132.81 24.5324 132.894 23.8769 133.336 23.537C133.687 23.2578 134.262 23.3124 134.553 23.628C133.893 22.3959 133.615 20.9575 133.778 19.5675C133.833 19.1063 133.996 18.5782 134.432 18.4265C134.486 18.4083 134.547 18.3961 134.601 18.3901C134.97 18.3597 135.34 18.6268 135.63 18.8878C136.702 19.8528 137.597 21.006 138.275 22.2745C138.312 21.9225 138.39 21.5583 138.608 21.2791C138.826 20.9999 139.214 20.83 139.547 20.9575C139.952 21.1092 140.103 21.5644 140.182 21.965Z" fill="#4A7E67"/>
<path opacity="0.5" d="M140.182 21.9652C140.358 22.9181 140.364 23.9074 140.194 24.8664C140.285 24.4901 140.884 24.3869 141.193 24.654C141.52 24.9393 141.58 25.4187 141.574 25.8557C141.562 26.8147 141.338 27.7676 140.927 28.6234C141.132 28.2714 141.701 28.2289 142.022 28.496C142.367 28.7812 142.452 29.285 142.367 29.7281C142.288 30.1712 142.064 30.5657 141.883 30.9784C141.296 32.3076 141.144 33.8129 141.393 35.2392C141.52 35.9615 141.75 36.6716 142.083 37.3271C142.246 37.6427 142.422 37.9644 142.64 38.2497C142.833 38.5107 143.184 38.7656 143.269 39.0873C143.287 39.154 143.287 39.239 143.257 39.3058C142.918 39.0144 142.452 38.5107 142.113 37.7823C141.52 36.5016 139.401 31.2576 138.051 26.9361C137.095 23.8771 135.473 20.2415 134.607 18.3842C134.976 18.3539 135.346 18.6209 135.636 18.8819C136.708 19.8469 137.603 21.0002 138.281 22.2687C138.318 21.9166 138.396 21.5525 138.614 21.2733C138.832 20.9941 139.22 20.8241 139.552 20.9516C139.952 21.1094 140.103 21.5646 140.182 21.9652Z" fill="#4A7E67"/>
<path opacity="0.3" d="M134.087 24.4722C134.087 24.4722 134.123 24.4965 134.196 24.5451C134.268 24.5936 134.371 24.6665 134.504 24.7575C134.765 24.9456 135.14 25.2127 135.576 25.5526C136.012 25.8986 136.508 26.3052 137.016 26.7726C137.271 27.0032 137.531 27.2521 137.791 27.507C137.918 27.6344 138.045 27.7619 138.179 27.8954C138.239 27.9561 138.312 28.0107 138.366 28.0168C138.421 28.0229 138.463 27.9925 138.487 27.9136C138.511 27.8408 138.524 27.7437 138.542 27.6526L138.59 27.3795C138.62 27.1974 138.651 27.0214 138.687 26.8393C138.747 26.4812 138.808 26.1292 138.856 25.7893C138.959 25.1095 139.056 24.4662 139.123 23.9199C139.189 23.3736 139.25 22.9124 139.286 22.5907C139.323 22.269 139.341 22.0869 139.341 22.0869C139.341 22.0869 139.335 22.269 139.31 22.5907C139.286 22.9124 139.262 23.3736 139.201 23.926C139.147 24.4783 139.08 25.1217 138.978 25.8014C138.929 26.1413 138.875 26.4994 138.82 26.8575C138.79 27.0396 138.76 27.2156 138.729 27.3977L138.681 27.6709C138.663 27.7619 138.657 27.8469 138.626 27.95C138.608 27.9986 138.584 28.0532 138.53 28.0957C138.481 28.1382 138.402 28.1564 138.342 28.1503C138.215 28.1261 138.142 28.0532 138.07 27.9865C137.942 27.8529 137.815 27.7255 137.688 27.598C137.434 27.3431 137.18 27.0942 136.926 26.8575C136.423 26.3902 135.945 25.9593 135.521 25.6072C135.098 25.2552 134.74 24.9639 134.486 24.7696C134.232 24.5875 134.087 24.4722 134.087 24.4722Z" fill="#4A7E67"/>
<path opacity="0.3" d="M135.116 28.3628C135.116 28.3628 135.255 28.472 135.497 28.6541C135.739 28.8422 136.09 29.1032 136.514 29.4067C136.938 29.7162 137.446 30.0561 137.991 30.4203C138.263 30.6024 138.548 30.7784 138.844 30.9605C138.99 31.0515 139.141 31.1365 139.286 31.2276C139.359 31.2761 139.432 31.3125 139.486 31.3125C139.498 31.3125 139.51 31.3125 139.522 31.3004C139.528 31.2943 139.54 31.2882 139.547 31.2761C139.565 31.2579 139.577 31.2215 139.589 31.1851C139.607 31.1122 139.625 31.0212 139.643 30.9362L139.692 30.6813C139.722 30.5114 139.758 30.3414 139.789 30.1715C139.855 29.8316 139.916 29.4977 139.976 29.1761C140.097 28.5327 140.224 27.9318 140.327 27.4159C140.43 26.9 140.527 26.4751 140.588 26.1717C140.654 25.8743 140.691 25.6982 140.691 25.6982C140.691 25.6982 140.666 25.8743 140.618 26.1717C140.569 26.4751 140.503 26.9061 140.412 27.428C140.321 27.944 140.224 28.5509 140.103 29.2003C140.043 29.522 139.982 29.8558 139.922 30.1957C139.892 30.3657 139.861 30.5356 139.831 30.7056L139.783 30.9666C139.764 31.0515 139.758 31.1365 139.728 31.2336C139.716 31.2822 139.692 31.3307 139.655 31.3793C139.637 31.4036 139.607 31.4218 139.577 31.44C139.553 31.4521 139.516 31.4582 139.486 31.4643C139.359 31.4643 139.28 31.3975 139.208 31.355C139.056 31.264 138.911 31.1729 138.766 31.0819C138.475 30.8998 138.191 30.7116 137.918 30.5296C137.374 30.1654 136.877 29.7952 136.459 29.4795C136.042 29.1579 135.709 28.8787 135.473 28.6784C135.249 28.4781 135.116 28.3628 135.116 28.3628Z" fill="#4A7E67"/>
<path opacity="0.3" d="M136.459 31.6339C136.459 31.6339 136.593 31.6824 136.823 31.7735C137.053 31.8645 137.38 31.9981 137.767 32.1801C138.148 32.3622 138.596 32.5747 139.062 32.8356C139.292 32.9631 139.534 33.1027 139.77 33.2484C139.892 33.3212 140.007 33.394 140.128 33.4729L140.309 33.5883C140.37 33.6247 140.424 33.6611 140.467 33.6672C140.503 33.6732 140.545 33.655 140.569 33.6065C140.594 33.5579 140.606 33.4972 140.612 33.4305C140.618 33.2969 140.612 33.1513 140.618 33.0117C140.624 32.7264 140.648 32.4533 140.678 32.1862C140.739 31.6521 140.854 31.1665 140.969 30.7538C141.023 30.5474 141.09 30.3654 141.151 30.2015C141.211 30.0376 141.266 29.898 141.314 29.7827C141.362 29.6674 141.405 29.5824 141.435 29.5217C141.465 29.461 141.477 29.4307 141.477 29.4307C141.477 29.4307 141.423 29.5642 141.344 29.7948C141.26 30.0255 141.157 30.3654 141.054 30.7781C140.951 31.1908 140.866 31.6764 140.812 32.1984C140.781 32.4593 140.769 32.7325 140.763 33.0117C140.757 33.1513 140.769 33.2848 140.763 33.4365C140.757 33.5154 140.745 33.5943 140.703 33.6732C140.678 33.7097 140.648 33.7521 140.606 33.7764C140.588 33.7886 140.545 33.8007 140.533 33.8007C140.503 33.8068 140.479 33.8068 140.454 33.8068C140.358 33.7946 140.291 33.74 140.237 33.7036L140.061 33.5883C139.94 33.5154 139.825 33.4365 139.704 33.3637C139.468 33.218 139.232 33.0784 139.002 32.9449C138.542 32.6778 138.112 32.4411 137.731 32.253C137.355 32.0588 137.035 31.9009 136.811 31.7978C136.587 31.6946 136.459 31.6339 136.459 31.6339Z" fill="#4A7E67"/>
<path opacity="0.3" d="M134.335 21.5644C134.335 21.5644 134.601 21.8011 135.007 22.1653C135.11 22.2563 135.219 22.3473 135.334 22.4505C135.455 22.5537 135.576 22.6569 135.703 22.7601C135.836 22.8693 135.969 22.9786 136.102 23.0878C136.169 23.1424 136.242 23.2031 136.308 23.2638C136.375 23.3245 136.441 23.3852 136.508 23.4338C136.575 23.4823 136.653 23.5066 136.702 23.5005L136.768 23.4823C136.78 23.4763 136.792 23.4702 136.805 23.4641C136.829 23.4459 136.859 23.4216 136.877 23.3913C136.962 23.2638 136.992 23.0939 137.004 22.93C137.023 22.7661 137.023 22.6023 137.041 22.4445C137.059 22.2927 137.065 22.147 137.077 22.0135C137.095 21.7465 137.107 21.5219 137.107 21.3641C137.113 21.2063 137.113 21.1152 137.113 21.1152C137.113 21.1152 137.125 21.2063 137.138 21.3641C137.15 21.5219 137.162 21.7465 137.162 22.0196C137.162 22.1531 137.156 22.3049 137.15 22.4566C137.144 22.6083 137.15 22.7722 137.138 22.9422C137.125 23.1121 137.107 23.3003 136.992 23.4763C136.962 23.5188 136.926 23.5552 136.877 23.5855C136.853 23.5977 136.823 23.6159 136.799 23.6219L136.732 23.6401C136.605 23.6584 136.502 23.6098 136.423 23.5552C136.345 23.5005 136.278 23.4338 136.211 23.3731C136.145 23.3124 136.078 23.2578 136.012 23.2031C135.878 23.0878 135.745 22.9725 135.618 22.8632C135.491 22.754 135.37 22.6387 135.255 22.5355C135.146 22.4262 135.037 22.3231 134.94 22.232C134.747 22.0439 134.595 21.8739 134.486 21.7586C134.395 21.6372 134.335 21.5644 134.335 21.5644Z" fill="#4A7E67"/>
<path d="M138.505 30.184C138.427 31.3737 139.111 32.4722 140.019 33.1824C140.915 33.8804 142.379 33.7226 143.318 33.1581C144.298 32.5754 144.94 31.4465 144.897 30.3054C144.837 28.5817 143.215 27.0765 141.508 27.3496C140.109 27.5742 138.602 28.6727 138.505 30.184Z" fill="#DA4130"/>
<path d="M139.577 28.8665C139.432 29.1032 139.377 29.4128 139.486 29.6677C139.522 29.7466 139.571 29.8255 139.643 29.868C139.716 29.9105 139.801 29.9226 139.879 29.9165C140.182 29.8983 140.448 29.698 140.63 29.4613C140.739 29.3157 140.83 29.1457 140.854 28.9636C140.963 28.0289 139.885 28.3628 139.577 28.8665Z" fill="white"/>
<path d="M147.524 32.8484C146.296 37.267 145.255 41.6309 144.837 44.9692C144.837 44.9692 132.422 46.8568 116.012 43.2758C110.389 42.0437 104.294 40.1743 98.0652 37.3702C98.0652 37.3702 98.7068 31.5313 98.7855 24.7881C111.745 30.0868 124.027 32.1261 133.487 32.7755C139.492 33.2004 144.359 33.0608 147.524 32.8484Z" fill="#E8CF56"/>
<path d="M149.873 9.0918C152.627 11.9627 152.542 14.4754 144.401 14.8032C124.759 15.5922 100.783 10.4028 99.9597 10.2268C100.456 10.4574 100.983 10.6638 101.534 10.8277C116.545 15.1977 132.192 18.1778 147.773 16.9397C149.364 16.8122 150.987 16.6362 152.421 15.9382C152.591 15.8532 152.76 15.7622 152.924 15.6651C153.813 13.0248 152.827 10.9733 149.873 9.0918Z" fill="#363636"/>
<path d="M147.524 32.8482C146.296 37.2668 145.255 41.6308 144.837 44.969C144.837 44.969 132.422 46.8566 116.012 43.2756C116.212 43.2089 116.412 43.136 116.612 43.0693C121.266 41.4487 125.915 39.5732 129.777 36.5081C131.151 35.4217 132.41 34.1714 133.488 32.7754C139.492 33.2003 144.359 33.0607 147.524 32.8482Z" fill="#E8CF56"/>
<path d="M187.401 151.269C187.262 151.245 186.3 150.487 184.018 150.851C181.742 151.215 179.805 152.453 179.805 152.453L183.176 153.212C183.176 153.212 181.548 154.838 181.621 154.772C181.693 154.699 188.067 151.816 191.754 156.125C195.434 160.44 194.169 155.694 194.169 155.694L187.401 151.269Z" fill="#E09F32"/>
<path d="M184.018 150.851C183.733 150.912 194.205 151.986 194.744 166.474L198.067 167.858C198.067 167.858 199.804 156.702 190.961 151.859C190.967 151.852 187.141 150.183 184.018 150.851Z" fill="#E8CF56"/>
<path d="M204.889 159.494C204.889 159.494 208.018 157.631 210.548 158.426C213.079 159.221 213.248 160.229 212.522 161.558C211.795 162.887 209.985 164.198 204.689 165.43C199.399 166.662 193.642 167.306 193.642 167.306L195.089 164.447L197.432 163.524C197.432 163.524 205.113 162.711 207.576 161.188C210.046 159.664 209.955 159.197 208.539 159.276C207.122 159.355 204.907 160.32 204.907 160.32L204.889 159.494Z" fill="#E09F32"/>
<path d="M188.134 166.735C187.777 166.656 187.383 166.553 187.19 166.273C188.061 166.061 188.921 165.818 189.774 165.545C192.807 164.568 195.682 163.208 198.291 161.515C200.851 159.858 202.909 157.509 205.869 156.404C207.54 155.779 209.598 155.597 211.087 156.538C211.529 156.817 211.898 157.181 212.189 157.588C213.018 158.753 213.145 160.295 212.516 161.551C213.169 160.246 210.7 159.142 209.598 159.13C209.029 159.124 208.466 159.263 207.933 159.439C207.213 159.682 206.529 159.998 205.869 160.343C202.546 162.092 199.762 164.568 196.421 166.286C195.622 166.698 194.786 167.062 193.884 167.251C193.007 167.433 191.899 167.609 191.021 167.372C190.077 167.123 189.102 166.947 188.134 166.735Z" fill="#E8CF56"/>
<path d="M189.199 159.354C189.199 159.354 186.203 157.278 183.624 157.898C181.046 158.517 180.81 159.512 181.445 160.884C182.081 162.255 183.8 163.688 188.993 165.284C194.187 166.88 199.883 167.912 199.883 167.912L198.636 164.962L196.366 163.882C196.366 163.882 188.757 162.547 186.403 160.859C184.042 159.166 184.163 158.711 185.567 158.887C186.972 159.063 189.121 160.18 189.121 160.18L189.199 159.354Z" fill="#E09F32"/>
<path d="M205.422 167.724C205.785 167.669 206.184 167.597 206.396 167.33C205.543 167.056 204.695 166.759 203.872 166.425C200.912 165.242 198.134 163.688 195.646 161.824C193.207 159.998 191.312 157.515 188.431 156.204C186.803 155.464 184.769 155.148 183.213 155.98C182.753 156.228 182.36 156.562 182.045 156.951C181.137 158.061 180.907 159.585 181.446 160.884C180.883 159.536 183.419 158.602 184.521 158.668C185.09 158.705 185.64 158.875 186.155 159.093C186.857 159.385 187.517 159.749 188.152 160.137C191.348 162.104 193.963 164.768 197.177 166.71C197.946 167.172 198.757 167.603 199.641 167.845C200.507 168.088 201.596 168.337 202.486 168.161C203.46 167.979 204.447 167.87 205.422 167.724Z" fill="#E8CF56"/>
<path d="M195.658 162.146C197.189 161.849 198.884 162.316 199.98 163.336C200.252 163.591 200.494 163.876 200.664 164.197C200.978 164.774 201.063 165.43 200.991 166.067C197.988 165.964 194.986 165.97 191.99 166.091C192.329 164.24 193.436 162.541 195.658 162.146Z" fill="#DA4130"/>
<path d="M174.902 173.526L175.09 179.462L175.193 182.873L175.386 189.125L175.483 192.433L175.622 197.015H214.779L215.361 191.929L215.827 187.911L216.601 181.125L216.753 179.778L216.965 177.89L217.576 172.64L214.9 172.482L208.969 172.161L198.999 171.59L198.479 171.56L195.216 171.378L190.846 171.123L180.32 170.534L174.817 170.225L174.902 173.211V173.526Z" fill="#DA4130"/>
<path d="M180.32 170.534C179.466 171.111 178.613 171.693 177.717 172.197C176.809 172.701 175.865 173.12 174.902 173.532L174.896 173.217L174.817 170.225L180.32 170.534Z" fill="white"/>
<path d="M198.479 171.56C194.423 173.496 190.029 174.692 186.209 177.053C184.932 177.836 183.721 178.758 182.402 179.493C181.167 180.185 179.841 180.713 178.54 181.289C177.414 181.793 176.294 182.327 175.193 182.879L175.09 179.468C175.913 178.819 176.694 178.127 177.547 177.514C179.714 175.942 182.226 174.953 184.684 173.903C186.76 173.017 188.8 172.088 190.846 171.129L195.216 171.378L198.479 171.56Z" fill="white"/>
<path d="M214.9 172.482C214.471 172.64 214.053 172.816 213.629 172.998C210.306 174.461 207.376 176.688 204.156 178.358C199.84 180.591 195.022 181.787 190.894 184.336C189.605 185.119 188.394 186.042 187.087 186.776C185.84 187.468 184.514 187.996 183.219 188.566C180.973 189.562 178.8 190.691 176.633 191.826C176.246 192.026 175.871 192.22 175.489 192.421L175.392 189.113C176.573 188.706 177.723 188.22 178.837 187.456C180.017 186.642 181.076 185.629 182.238 184.791C184.405 183.219 186.917 182.23 189.375 181.18C191.929 180.087 194.453 178.922 196.965 177.751C198.866 176.864 200.754 175.984 202.649 175.11C204.768 174.121 206.868 173.138 208.974 172.148L214.9 172.482Z" fill="white"/>
<path d="M185.465 197.015C186.27 196.621 187.081 196.232 187.898 195.868C189.206 195.298 190.525 194.77 191.766 194.078C193.086 193.343 194.284 192.421 195.573 191.638C199.714 189.089 204.526 187.893 208.835 185.659C211.499 184.282 213.956 182.528 216.602 181.125L216.753 179.778L216.965 177.896C213.751 179.414 210.542 180.913 207.322 182.406C205.434 183.292 203.533 184.172 201.644 185.058C199.12 186.236 196.596 187.395 194.042 188.488C191.596 189.538 189.072 190.527 186.905 192.099C185.743 192.937 184.69 193.95 183.504 194.764C181.778 195.935 179.932 196.481 178.05 197.015H185.465Z" fill="white"/>
<path d="M203.969 197.015C207.128 195.619 210.451 194.545 213.526 192.949C214.156 192.627 214.761 192.275 215.366 191.929L215.826 187.911C214.549 188.512 213.278 189.107 212.001 189.696C210.112 190.582 208.224 191.462 206.323 192.348C203.799 193.513 201.287 194.691 198.733 195.777C197.782 196.184 196.82 196.584 195.876 197.015H203.969Z" fill="white"/>
<path d="M198.14 197.015L199.005 171.596L195.222 171.378L194.792 197.015H198.14Z" fill="#E8CF56"/>
<path opacity="0.7" d="M217.57 172.646L216.753 179.778L174.902 173.217L174.811 170.225L195.222 171.378L199.005 171.596L217.57 172.646Z" fill="#8F231E"/>
<path d="M221.141 169.12L220.996 169.721L220.088 173.563L219.416 176.421L213.702 175.948L208.811 175.547L199.974 174.819L198.188 174.673L194.459 174.37L193.576 174.303L184.545 173.55L178.322 173.041L173.25 172.616L173.056 171.05L172.65 167.687L172.239 164.373C173.746 164.307 176.204 164.216 179.278 164.185C181.379 164.155 183.788 164.167 186.373 164.222C188.963 164.27 191.754 164.373 194.641 164.555C195.21 164.592 195.779 164.628 196.348 164.677C197.068 164.719 197.801 164.78 198.533 164.835C199.544 164.92 200.555 165.023 201.572 165.12C204.562 165.436 207.558 165.86 210.482 166.394C212.134 166.698 213.744 167.032 215.318 167.426C217.358 167.9 219.307 168.464 221.141 169.12Z" fill="#DA4130"/>
<path d="M186.379 164.21C184.466 164.968 182.596 165.764 180.858 166.838C179.726 167.542 178.661 168.337 177.505 168.993C176.403 169.6 175.241 170.067 174.091 170.583C173.74 170.735 173.407 170.892 173.068 171.044L172.663 167.682C172.844 167.53 173.032 167.39 173.226 167.251C175.072 165.915 177.19 165.053 179.291 164.179C181.385 164.137 183.788 164.149 186.379 164.21Z" fill="white"/>
<path d="M201.578 165.102C199.956 166.079 198.358 167.123 196.669 167.991C192.868 169.964 188.624 171.02 184.98 173.26C184.835 173.345 184.702 173.442 184.557 173.539L178.334 173.029C179.999 171.997 181.833 171.257 183.643 170.498C185.901 169.527 188.11 168.495 190.331 167.463C192.002 166.68 193.673 165.903 195.331 165.133C195.67 164.981 196.015 164.811 196.354 164.659C197.074 164.702 197.807 164.762 198.539 164.817C199.544 164.908 200.555 165.005 201.578 165.102Z" fill="white"/>
<path d="M215.318 167.409C214.876 167.591 214.435 167.761 213.993 167.924C212.383 168.513 210.718 169.005 209.144 169.703C206.215 170.996 203.642 172.962 200.797 174.419C200.531 174.552 200.264 174.692 199.992 174.813L198.206 174.668L194.478 174.364L193.594 174.297C193.885 174.164 194.169 174.03 194.46 173.897C196.13 173.114 197.801 172.337 199.471 171.566C202.946 169.933 206.432 168.319 209.907 166.662C210.101 166.571 210.294 166.474 210.482 166.383C212.134 166.68 213.745 167.014 215.318 167.409Z" fill="white"/>
<path d="M221.002 169.721L220.094 173.563C219.446 173.848 218.787 174.115 218.121 174.352C216.65 174.892 215.155 175.335 213.714 175.948L208.823 175.547C210.567 174.734 212.298 173.915 214.029 173.089C216.365 171.979 218.69 170.862 221.002 169.721Z" fill="white"/>
<path d="M198.539 164.823L198.206 174.662L194.484 174.359L194.647 164.538C195.93 164.617 197.226 164.714 198.539 164.823Z" fill="#E8CF56"/>
<path d="M164.654 148.236C164.654 148.236 164.098 145.019 165.744 143.478C167.39 141.936 168.377 142.276 169.321 143.435C170.266 144.594 170.804 146.561 169.999 151.119C169.194 155.677 167.681 160.302 167.681 160.302L165.599 157.899L165.611 155.708C165.611 155.708 167.675 149.547 167.179 146.986C166.688 144.424 166.228 144.279 165.786 145.377C165.344 146.476 165.417 148.594 165.417 148.594L164.654 148.236Z" fill="#4A7E67"/>
<path d="M165.151 164.192C164.951 164.423 164.715 164.678 164.388 164.69C164.515 163.938 164.606 163.173 164.666 162.408C164.884 159.671 164.691 156.879 164.097 154.135C163.516 151.44 162.124 148.812 162.197 146.069C162.233 144.521 162.82 142.889 164.225 142.197C164.636 141.99 165.108 141.881 165.587 141.851C166.955 141.76 168.407 142.379 169.321 143.429C168.371 142.336 166.458 143.684 166.047 144.515C165.835 144.94 165.756 145.426 165.72 145.911C165.677 146.561 165.72 147.222 165.792 147.884C166.174 151.192 167.421 154.433 167.766 157.741C167.85 158.53 167.881 159.331 167.723 160.096C167.566 160.842 167.324 161.753 166.791 162.305C166.216 162.912 165.695 163.561 165.151 164.192Z" fill="#77BB61"/>
<path d="M172.881 150.019C172.881 150.019 175.048 147.579 177.275 147.919C179.503 148.259 179.848 149.242 179.527 150.705C179.206 152.168 178.001 153.813 173.94 156.01C169.878 158.207 165.32 159.894 165.32 159.894L165.907 156.762L167.627 155.409C167.627 155.409 173.722 153.206 175.417 151.227C177.112 149.248 176.942 148.799 175.81 149.133C174.672 149.467 173.068 150.839 173.068 150.839L172.881 150.019Z" fill="#4A7E67"/>
<path d="M160.714 160.326C160.405 160.314 160.066 160.283 159.848 160.034C160.514 159.664 161.168 159.264 161.804 158.833C164.073 157.303 166.137 155.415 167.917 153.249C169.66 151.124 170.853 148.393 173.044 146.748C174.279 145.82 175.919 145.267 177.33 145.941C177.747 146.141 178.122 146.439 178.443 146.797C179.363 147.816 179.787 149.34 179.533 150.712C179.799 149.279 177.553 148.624 176.652 148.812C176.185 148.909 175.756 149.146 175.362 149.425C174.824 149.795 174.333 150.238 173.867 150.706C171.519 153.061 169.757 156.053 167.39 158.377C166.821 158.936 166.216 159.458 165.52 159.804C164.842 160.144 163.977 160.52 163.214 160.447C162.379 160.362 161.549 160.362 160.714 160.326Z" fill="#77BB61"/>
<path d="M161.071 150.299C161.071 150.299 159.237 147.732 157.003 147.671C154.77 147.61 154.31 148.442 154.449 149.82C154.582 151.197 155.569 152.885 159.297 155.549C163.026 158.214 167.306 160.496 167.306 160.496L167.112 157.558L165.587 156.047C165.587 156.047 159.86 153.043 158.432 150.967C157.003 148.891 157.227 148.515 158.305 149.006C159.382 149.498 160.799 151.003 160.799 151.003L161.071 150.299Z" fill="#4A7E67"/>
<path d="M171.785 161.643C172.088 161.68 172.433 161.71 172.675 161.522C172.064 161.079 171.47 160.605 170.895 160.114C168.849 158.353 167.046 156.302 165.563 154.044C164.104 151.829 163.269 149.158 161.313 147.307C160.212 146.257 158.668 145.486 157.197 145.862C156.762 145.972 156.356 146.184 155.999 146.451C154.97 147.222 154.371 148.533 154.449 149.82C154.365 148.478 156.653 148.254 157.518 148.576C157.966 148.739 158.353 149.031 158.717 149.34C159.201 149.765 159.631 150.251 160.03 150.748C162.052 153.267 163.42 156.272 165.466 158.772C165.956 159.373 166.489 159.944 167.13 160.375C167.76 160.793 168.559 161.279 169.322 161.334C170.145 161.406 170.962 161.54 171.785 161.643Z" fill="#77BB61"/>
<path d="M176.506 159.895C176.506 159.895 179.642 160.162 181.137 158.499C182.632 156.836 182.299 155.944 181.167 155.155C180.035 154.366 178.11 154.013 173.673 155.13C169.237 156.241 164.727 158.025 164.727 158.025L167.082 159.786L169.212 159.604C169.212 159.604 175.211 157.188 177.711 157.449C180.211 157.704 180.356 158.123 179.285 158.626C178.213 159.13 176.149 159.227 176.149 159.227L176.506 159.895Z" fill="#4A7E67"/>
<path d="M160.944 160.696C160.72 160.902 160.472 161.145 160.46 161.448C161.192 161.272 161.937 161.127 162.681 161.011C165.345 160.593 168.068 160.55 170.75 160.89C173.377 161.218 175.943 162.31 178.619 162.025C180.126 161.867 181.718 161.187 182.384 159.822C182.584 159.415 182.686 158.972 182.717 158.523C182.795 157.236 182.196 155.925 181.167 155.154C182.238 155.962 180.925 157.849 180.12 158.298C179.702 158.529 179.23 158.644 178.764 158.711C178.128 158.802 177.487 158.814 176.845 158.796C173.619 158.705 170.453 157.795 167.227 157.728C166.458 157.71 165.677 157.746 164.933 157.958C164.207 158.165 163.317 158.462 162.778 159.002C162.197 159.597 161.561 160.131 160.944 160.696Z" fill="#77BB61"/>
<path d="M167.245 154.518C168.534 154.779 169.654 155.738 170.108 156.976C170.223 157.286 170.296 157.607 170.308 157.941C170.332 158.536 170.151 159.125 169.854 159.647C167.596 158.56 165.29 157.565 162.948 156.667C163.904 155.192 165.387 154.118 167.245 154.518Z" fill="#DA4130"/>
<path d="M179.642 190.291C178.28 192.609 176.44 194.576 174.139 195.948C170.895 197.89 167.088 198.697 163.335 198.703C162.336 198.709 161.422 198.606 160.526 198.436C159.655 198.272 158.813 198.011 157.99 197.714C157.457 197.514 156.931 197.289 156.404 197.052C156.18 196.961 155.974 196.858 155.738 196.749C155.302 196.536 154.849 196.324 154.395 196.087C154.019 195.893 153.632 195.693 153.238 195.505C152.288 195.019 151.35 194.527 150.436 193.999C148.59 192.955 146.834 191.784 145.345 190.297C144.492 189.441 143.717 188.5 143.033 187.493C142.065 186.103 141.29 184.573 140.715 182.977C139.843 180.61 139.438 178.073 139.601 175.591C139.607 175.251 139.643 174.911 139.686 174.577C139.752 173.994 139.843 173.412 139.988 172.841C140.146 172.149 140.358 171.482 140.618 170.808C140.66 170.656 140.733 170.504 140.793 170.353C141.368 169.036 142.155 167.803 143.009 166.644C143.39 166.116 143.79 165.606 144.189 165.102C146.156 162.717 148.438 160.581 151.071 158.997C151.671 158.632 152.288 158.299 152.93 157.995C156.229 156.447 159.776 155.974 163.238 156.368C164.061 156.466 164.872 156.599 165.671 156.799C166.174 156.909 166.658 157.048 167.142 157.194C167.306 157.242 167.475 157.297 167.62 157.352C169.83 158.086 171.924 159.167 173.807 160.538C173.819 160.544 173.819 160.544 173.819 160.544C175.156 161.485 176.379 162.584 177.463 163.791C179.63 166.183 181.264 169.036 182.111 172.192C182.142 172.246 182.154 172.313 182.166 172.374C182.577 173.982 182.813 175.718 182.85 177.484C182.88 178.498 182.844 179.518 182.753 180.543C182.705 181.005 182.65 181.478 182.577 181.951C182.559 182.055 182.547 182.164 182.523 182.267C182.402 183.02 182.244 183.772 182.051 184.507C181.845 185.32 181.591 186.121 181.294 186.892C180.852 188.094 180.308 189.229 179.642 190.291Z" fill="#E8CF56"/>
<path d="M147.439 166.384C146.078 166.317 144.958 165.843 144.189 165.103C146.156 162.718 148.438 160.581 151.071 158.997C151.416 159.319 151.725 159.707 152.009 160.156C153.825 163.07 150.363 166.535 147.439 166.384Z" fill="white"/>
<path d="M173.831 171.967C175.64 174.868 172.19 178.346 169.261 178.182C165.998 178.006 164.013 175.536 165.429 172.568C167.172 168.914 171.5 168.241 173.831 171.967Z" fill="white"/>
<path d="M160.641 181.752C162.457 184.653 159.001 188.131 156.071 187.967C152.809 187.785 150.823 185.321 152.24 182.353C153.977 178.693 158.311 178.019 160.641 181.752Z" fill="white"/>
<path d="M179.642 190.291C177.293 189.563 176.082 187.427 177.275 184.938C178.383 182.595 180.544 181.484 182.577 181.958C182.559 182.061 182.547 182.17 182.523 182.274C182.402 183.026 182.244 183.779 182.051 184.513C181.845 185.326 181.591 186.128 181.294 186.898C180.852 188.094 180.307 189.229 179.642 190.291Z" fill="white"/>
<path d="M154.31 171.318C155.787 173.679 152.972 176.507 150.587 176.374C147.93 176.228 146.32 174.219 147.47 171.803C148.886 168.836 152.415 168.283 154.31 171.318Z" fill="white"/>
<path d="M172.039 187.633C173.516 189.994 170.701 192.822 168.316 192.688C165.659 192.543 164.049 190.54 165.199 188.118C166.616 185.144 170.138 184.598 172.039 187.633Z" fill="white"/>
<path d="M161.979 162.87C163.214 164.849 160.859 167.222 158.862 167.112C156.634 166.991 155.284 165.31 156.247 163.283C157.439 160.782 160.393 160.327 161.979 162.87Z" fill="white"/>
<path d="M155.738 196.743C155.302 196.531 154.848 196.318 154.394 196.082C154.019 195.887 153.632 195.687 153.238 195.499C152.288 195.013 151.35 194.522 150.436 193.994C151.761 191.966 154.407 191.742 155.877 194.103C156.434 194.989 156.265 195.96 155.738 196.743Z" fill="white"/>
<path d="M174.043 166.408C171.827 166.287 170.471 164.606 171.428 162.572C171.966 161.449 172.85 160.751 173.807 160.539C173.819 160.545 173.819 160.545 173.819 160.545C175.156 161.486 176.379 162.584 177.463 163.792C177.16 165.243 175.513 166.487 174.043 166.408Z" fill="white"/>
<path d="M182.85 177.491C180.992 177.127 179.956 175.573 180.84 173.734C181.155 173.072 181.603 172.55 182.117 172.198C182.148 172.253 182.16 172.32 182.172 172.38C182.583 173.983 182.813 175.725 182.85 177.491Z" fill="white"/>
<path d="M143.033 187.493C142.064 186.103 141.29 184.574 140.715 182.977C142.077 181.108 144.613 180.974 146.035 183.256C147.252 185.193 145.006 187.517 143.033 187.493Z" fill="white"/>
<path d="M160.532 198.437C159.655 198.267 158.813 198.018 157.99 197.708C157.457 197.508 156.931 197.29 156.404 197.053C158.402 188.865 164.243 163.131 165.677 156.794C166.174 156.909 166.664 157.043 167.148 157.195C167.312 157.243 167.469 157.298 167.626 157.352L160.532 198.437Z" fill="#E8CF56"/>
<path d="M157.99 197.708C156.785 197.265 155.617 196.701 154.388 196.082L163.232 156.369C164.558 156.521 165.865 156.8 167.148 157.195L157.99 197.708Z" fill="#77BB61"/>
<path d="M181.294 186.899L139.589 175.591C139.607 175.251 139.637 174.918 139.674 174.578C139.746 173.995 139.843 173.412 139.976 172.842L182.517 182.28C182.396 183.032 182.238 183.773 182.045 184.507C181.845 185.321 181.591 186.122 181.294 186.899Z" fill="#E8CF56"/>
<path d="M182.057 184.507L139.686 174.578C139.837 173.291 140.14 172.028 140.618 170.814L182.759 180.544C182.626 181.879 182.396 183.208 182.057 184.507Z" fill="#77BB61"/>
</g>
<defs>
<clipPath id="clip0_28049_44486">
<rect width="237" height="211" fill="white"/>
</clipPath>
</defs>
</svg>
