<svg width="105" height="141" viewBox="0 0 105 141" fill="none" xmlns="http://www.w3.org/2000/svg">
<g opacity="0.55">
<path d="M93.3172 75.9165C93.1989 75.9165 93.1989 75.7981 93.1989 75.6798L93.0806 73.3131C93.0806 73.1947 93.1989 73.0764 93.3172 73.0764L95.684 72.603C95.8023 72.603 96.039 72.7214 96.039 72.8397C96.039 72.958 96.039 73.0764 95.9207 73.1947L93.7906 73.5497L93.9089 75.6798C93.9089 75.7981 93.7906 75.9165 93.6723 75.9165C93.4356 75.9165 93.3172 75.9165 93.3172 75.9165Z" fill="url(#paint0_radial_28049_41893)"/>
<path d="M87.8737 74.6147L87.7554 74.4963C87.7554 74.378 87.7553 74.2597 87.8737 74.1413L90.2404 73.668C90.3588 73.668 90.4771 73.668 90.5955 73.7863L92.1338 75.9164C92.2522 76.0347 92.2522 76.1531 92.1338 76.2714C92.0155 76.3897 91.7788 76.2714 91.7788 76.1531L90.3588 74.2597L88.2287 74.733C87.992 74.733 87.8737 74.733 87.8737 74.6147Z" fill="url(#paint1_radial_28049_41893)"/>
<path d="M86.6902 73.1947C86.5718 73.0764 86.5718 72.9581 86.5718 72.8397L87.8735 71.3013L86.4535 69.4079C86.3352 69.2896 86.3352 69.1713 86.4535 69.0529C86.5718 68.9346 86.8085 69.0529 86.8085 69.1713L88.3469 71.183C88.4652 71.3013 88.4652 71.4197 88.3469 71.538L86.9268 73.3131C87.0452 73.3131 86.9268 73.3131 86.6902 73.1947Z" fill="url(#paint2_radial_28049_41893)"/>
<path d="M87.5187 68.2243C87.4004 68.1059 87.4004 67.9876 87.4004 67.8693C87.4004 67.7509 87.6371 67.6326 87.7554 67.7509L90.0038 68.6976L91.1872 67.0409C91.3055 66.9226 91.4239 66.9226 91.5422 67.0409C91.6605 67.1592 91.6605 67.2776 91.6605 67.3959L90.3588 69.171C90.2405 69.2893 90.1222 69.2893 90.0038 69.2893L87.5187 68.2243Z" fill="url(#paint3_radial_28049_41893)"/>
<path d="M92.9623 70.4729C92.8439 70.4729 92.8439 70.3546 92.8439 70.2362L92.7256 67.8695C92.7256 67.7511 92.8439 67.6328 92.9623 67.6328C93.0806 67.6328 93.1989 67.7512 93.1989 67.9878L93.3173 70.1179L95.5657 70.9463C95.684 71.0646 95.8024 71.1829 95.8024 71.3013C95.8024 71.4196 95.5657 71.5379 95.4474 71.4196L92.9623 70.4729Z" fill="url(#paint4_radial_28049_41893)"/>
<path d="M94.6188 78.7567C94.5005 78.6384 94.5005 78.6384 94.5005 78.52L94.7372 74.6149C94.7372 74.4965 94.8555 74.4965 94.8555 74.3782L98.6423 73.1948C98.7606 73.1948 98.9973 73.1948 98.9973 73.4315C99.1157 73.5498 98.9973 73.6682 98.879 73.7865L95.2105 74.9699L94.9738 78.7567C94.9738 78.875 94.8555 78.9934 94.7372 78.9934C94.7372 78.7567 94.6188 78.7567 94.6188 78.7567Z" fill="url(#paint5_radial_28049_41893)"/>
<path d="M85.507 76.2714L85.3887 76.1531C85.3887 76.0347 85.3887 75.9164 85.6253 75.7981L89.6488 75.3247C89.7671 75.3247 89.8855 75.3247 89.8855 75.443L92.8439 78.7565C92.9623 78.8748 92.9623 78.9932 92.8439 79.1115C92.7256 79.2298 92.6073 79.1115 92.4889 78.9932L89.6488 75.7981L85.7437 76.1531C85.7437 76.3897 85.6253 76.3897 85.507 76.2714Z" fill="url(#paint6_radial_28049_41893)"/>
<path d="M84.205 74.4963C84.0867 74.378 84.0867 74.2596 84.0867 74.1413L85.9801 71.0645L83.7316 67.5144C83.6133 67.396 83.7316 67.1594 83.85 67.1594C83.9683 67.041 84.205 67.1594 84.205 67.2777L86.4534 70.9462C86.4534 71.0645 86.5718 71.1828 86.4534 71.1828L84.4417 74.378C84.4417 74.4963 84.3233 74.6146 84.205 74.4963Z" fill="url(#paint7_radial_28049_41893)"/>
<path d="M85.0334 65.9759C84.915 65.8576 84.915 65.7393 84.915 65.7393C84.915 65.6209 85.0334 65.5026 85.2701 65.6209L89.2935 66.9227L91.7786 64.3192C91.897 64.2009 92.0153 64.2009 92.1336 64.3192C92.252 64.4376 92.252 64.5559 92.1336 64.6742L89.5302 67.396C89.4119 67.5143 89.4119 67.5143 89.2935 67.396L85.0334 65.9759Z" fill="url(#paint8_radial_28049_41893)"/>
<path d="M94.5006 69.5261C94.3822 69.5261 94.3822 69.4078 94.3822 69.2894L93.7905 65.266C93.7905 65.1476 93.9089 65.0293 94.0272 65.0293C94.1456 65.0293 94.3822 65.1476 94.3822 65.266L94.9739 69.1711L98.7607 71.0645C98.8791 71.1828 98.9974 71.3012 98.8791 71.4195C98.8791 71.5379 98.6424 71.5379 98.524 71.5379L94.5006 69.5261C94.6189 69.5261 94.6189 69.5261 94.5006 69.5261Z" fill="url(#paint9_radial_28049_41893)"/>
<path d="M95.6838 81.5969C95.5654 81.4786 95.5654 81.3603 95.5654 81.2419L96.7488 76.1534C96.7488 76.0351 96.7488 76.0351 96.8671 76.0351L101.482 73.55C101.601 73.4317 101.837 73.55 101.837 73.6683C101.956 73.7867 101.956 74.0233 101.719 74.0233L97.1038 76.5084L95.9205 81.5969C96.1571 81.7153 96.0388 81.7153 95.6838 81.5969C95.8021 81.7153 95.8021 81.5969 95.6838 81.5969Z" fill="url(#paint10_radial_28049_41893)"/>
<path d="M83.2585 77.8103C83.1401 77.8103 83.1401 77.6919 83.1401 77.5736C83.1401 77.4553 83.2585 77.3369 83.3768 77.3369L89.057 77.6919C89.1753 77.6919 89.1754 77.6919 89.2937 77.8103L93.9089 81.7154C94.0272 81.8337 94.0272 81.9521 94.0272 82.0704C93.9089 82.1888 93.7905 82.1888 93.6722 82.0704L89.057 78.1653L83.4952 77.8103C83.2585 77.8103 83.2585 77.8103 83.2585 77.8103Z" fill="url(#paint11_radial_28049_41893)"/>
<path d="M81.7198 75.798C81.6015 75.6797 81.6015 75.5613 81.6015 75.443L83.3765 70.5912L81.1281 65.3843C81.0098 65.266 81.1281 65.1476 81.2465 65.0293C81.3648 65.0293 81.6015 65.0293 81.6015 65.266L83.8499 70.5912C83.8499 70.7095 83.8499 70.7095 83.8499 70.8278L82.0748 75.6797C82.0748 75.9163 81.9565 75.9163 81.7198 75.798C81.8381 75.9163 81.7198 75.9163 81.7198 75.798Z" fill="url(#paint12_radial_28049_41893)"/>
<path d="M82.5485 63.9645C82.4301 63.8461 82.4302 63.8461 82.4302 63.7278C82.4302 63.6094 82.5485 63.4911 82.6668 63.4911L88.3471 64.3195L92.6072 61.361C92.7255 61.2427 92.8439 61.361 92.9622 61.4794C93.0805 61.5977 93.0805 61.716 92.9622 61.8344L88.702 64.7928C88.702 64.7928 88.5837 64.7928 88.4654 64.7928L82.6668 63.8461C82.5485 64.0828 82.5485 63.9645 82.5485 63.9645Z" fill="url(#paint13_radial_28049_41893)"/>
<path d="M96.5121 68.3431L96.3937 68.2248L94.6187 62.7813C94.6187 62.6629 94.6187 62.5446 94.8553 62.4263C94.9737 62.4263 95.2103 62.5446 95.2103 62.6629L96.9854 67.9881L101.837 71.4199C101.956 71.5383 102.074 71.6566 101.956 71.7749C101.837 71.8933 101.719 71.8933 101.601 71.7749L96.5121 68.3431Z" fill="url(#paint14_radial_28049_41893)"/>
<path d="M98.2873 81.715C98.169 81.5967 98.1689 81.5967 98.1689 81.4784L98.6423 77.5732C98.6423 77.4549 98.7606 77.4549 98.7606 77.3366L102.429 75.9165C102.547 75.9165 102.784 75.9165 102.784 76.0348C102.902 76.1532 102.784 76.3899 102.666 76.3899L99.1156 77.6916L98.6423 81.4784C98.6423 81.5967 98.524 81.715 98.2873 81.715Z" fill="url(#paint15_radial_28049_41893)"/>
<path d="M84.3234 80.1768C84.205 80.1768 84.2051 80.0585 84.2051 79.9401C84.2051 79.8218 84.3234 79.7035 84.4417 79.7035L88.5835 79.4668C88.7019 79.4668 88.8202 79.4668 88.8202 79.5851L91.897 82.7803C92.0154 82.8986 92.0154 83.0169 91.897 83.1353C91.7787 83.2536 91.6603 83.2536 91.542 83.1353L88.5835 80.0585L84.5601 80.2952C84.4417 80.1768 84.3234 80.1768 84.3234 80.1768Z" fill="url(#paint16_radial_28049_41893)"/>
<path d="M79.7084 74.1415C79.5901 74.0231 79.59 73.9048 79.59 73.7865L81.2468 70.5913L79.2351 66.9229C79.1167 66.8045 79.2351 66.5679 79.3534 66.5679C79.4717 66.5679 79.7084 66.5679 79.7084 66.6862L81.8385 70.473C81.8385 70.5914 81.8385 70.5913 81.8385 70.7097L80.0634 74.0231C80.0634 74.1415 79.9451 74.1415 79.7084 74.1415Z" fill="url(#paint17_radial_28049_41893)"/>
<path d="M83.3766 61.8342C83.2583 61.7159 83.2583 61.7159 83.2583 61.5975C83.2583 61.4792 83.3767 61.3609 83.6133 61.3609L87.6368 62.4259L90.3586 59.9408C90.4769 59.8225 90.5952 59.8225 90.7136 59.9408C90.8319 60.0591 90.8319 60.1775 90.7136 60.2958L87.8735 62.7809C87.7551 62.7809 87.7551 62.8992 87.6368 62.7809L83.495 61.7159C83.3767 61.8342 83.3766 61.8342 83.3766 61.8342Z" fill="url(#paint18_radial_28049_41893)"/>
<path d="M98.1689 67.2781C98.0505 67.2781 98.0505 67.1597 98.0505 67.0414L97.2222 63.0179C97.2222 62.8996 97.3405 62.7812 97.4588 62.7812C97.5772 62.7812 97.8139 62.8996 97.8139 63.0179L98.6422 66.9231L102.311 69.0531C102.429 69.1715 102.547 69.2898 102.429 69.4081C102.311 69.5265 102.192 69.5265 102.074 69.5265L98.1689 67.2781Z" fill="url(#paint19_radial_28049_41893)"/>
<path d="M100.891 81.4785C100.772 81.4785 100.773 81.3601 100.773 81.2418L100.417 78.9934C100.417 78.875 100.536 78.7567 100.654 78.7567L102.903 78.52C103.021 78.52 103.258 78.6384 103.258 78.7567C103.258 78.875 103.258 78.9934 103.021 78.9934L101.009 79.1117L101.364 81.1235C101.364 81.2418 101.246 81.3601 101.128 81.3601C101.009 81.5968 100.891 81.5968 100.891 81.4785Z" fill="url(#paint20_radial_28049_41893)"/>
<path d="M85.7435 82.5432C85.6252 82.4249 85.6252 82.5432 85.7435 82.5432C85.6252 82.3066 85.6252 82.1882 85.7435 82.0699L87.8736 81.3599C87.9919 81.3599 88.1103 81.3599 88.2286 81.4782L89.5304 83.6083C89.6487 83.7266 89.5303 83.9633 89.412 83.9633C89.2937 83.9633 89.057 83.9633 89.057 83.8449L87.9919 81.9516L86.0985 82.5432C85.8619 82.6616 85.7435 82.5432 85.7435 82.5432Z" fill="url(#paint21_radial_28049_41893)"/>
<path d="M77.8148 72.0116C77.6965 71.8933 77.6965 71.6566 77.6965 71.6566L78.9982 70.3549L77.4598 68.6982C77.3415 68.5798 77.3415 68.4615 77.4598 68.3431C77.5782 68.2248 77.6965 68.2248 77.8148 68.3431L79.4716 70.2365C79.5899 70.3549 79.5899 70.4732 79.4716 70.5916L77.9332 72.13C78.0515 72.13 77.9332 72.1299 77.8148 72.0116Z" fill="url(#paint22_radial_28049_41893)"/>
<path d="M84.5602 59.7044C84.4419 59.586 84.4419 59.4677 84.4419 59.3494C84.4419 59.231 84.6786 59.231 84.7969 59.231L86.8086 60.2961L87.7554 58.6393C87.8737 58.521 87.992 58.521 88.1104 58.521C88.2287 58.6393 88.347 58.7577 88.2287 58.876L87.1637 60.7694C87.0453 60.8877 86.927 60.8877 86.8086 60.8877L84.5602 59.7044Z" fill="url(#paint23_radial_28049_41893)"/>
<path d="M99.8259 66.3311C99.7075 66.2128 99.7075 66.2128 99.7075 66.0945L99.8259 63.8461C99.8259 63.7277 99.9442 63.6094 100.181 63.6094C100.299 63.6094 100.418 63.8461 100.418 63.9644L100.299 65.9761L102.429 66.5678C102.548 66.5678 102.666 66.8045 102.666 66.9228C102.666 67.0412 102.548 67.1595 102.311 67.0412L99.8259 66.3311Z" fill="url(#paint24_radial_28049_41893)"/>
<path d="M102.784 82.1883L102.666 82.07L102.192 80.6499L90.9504 72.0113C90.832 72.0113 90.832 71.893 90.832 71.7746C90.832 71.6563 90.832 71.6563 90.832 71.5379L90.9504 71.4196C90.9504 71.4196 91.0687 71.3013 91.1871 71.3013C91.3054 71.3013 91.3054 71.3013 91.4237 71.4196L102.666 80.1766L104.086 80.2949C104.204 80.2949 104.323 80.4133 104.441 80.5316L104.796 81.8333C104.796 81.8333 104.796 81.8333 104.796 81.9516C104.796 81.9516 104.796 81.9516 104.796 82.07C104.796 82.07 104.796 82.07 104.678 82.07L103.257 82.1883C102.902 82.1883 102.902 82.1883 102.784 82.1883ZM103.021 81.1233L103.139 81.5966H103.613L103.021 81.1233ZM103.376 80.7683L103.968 81.2416L103.849 80.7683H103.376Z" fill="url(#paint25_radial_28049_41893)"/>
<path d="M86.6903 85.7388C86.572 85.6204 86.572 85.6204 86.6903 85.7388L85.862 84.3187C85.7437 84.2004 85.862 84.0821 85.9803 83.9637L87.1637 83.372L90.5955 71.6566C90.5955 71.5383 90.8322 71.4199 90.9505 71.5383C90.9505 71.5383 90.9505 71.5383 91.0688 71.5383C91.0688 71.5383 91.0689 71.5383 91.1872 71.5383C91.3055 71.6566 91.4238 71.7749 91.4238 71.8933L87.8737 83.6087L88.4654 84.9104C88.4654 85.0287 88.4654 85.1471 88.3471 85.2654L87.1637 85.7388C87.1637 85.7388 87.1637 85.7388 87.0454 85.7388C86.8087 85.8571 86.8087 85.7388 86.6903 85.7388ZM86.4537 84.3187L86.6903 84.7921L86.927 84.0821L86.4537 84.3187ZM87.5187 84.4371L87.282 85.0287L87.6371 84.9104L87.5187 84.4371Z" fill="url(#paint26_radial_28049_41893)"/>
<path d="M75.9215 71.0649L74.8564 69.9998C74.8564 69.9998 74.8564 69.9998 74.8564 69.8815C74.8564 69.8815 74.8564 69.8815 74.8564 69.7632C74.8564 69.7632 74.8564 69.7632 74.8564 69.6448C74.8564 69.6448 74.8564 69.6448 74.8564 69.5265L75.8032 68.6981C75.9215 68.5798 76.0398 68.5798 76.1582 68.6981L77.3415 69.6448L90.7137 71.0649C90.832 71.0649 90.9504 71.1832 91.0687 71.4199C91.0687 71.4199 91.0687 71.4199 91.0687 71.5382C91.0687 71.5382 91.0687 71.5382 91.0687 71.6566C91.0687 71.7749 90.9503 71.8932 90.832 71.8932L77.4599 70.3549L76.3949 71.0649C76.1582 71.1832 76.0398 71.1832 75.9215 71.0649ZM75.8032 70.1182L76.1582 70.4732L76.5132 70.2365L75.8032 70.1182ZM76.0398 69.2898L75.6848 69.5265L76.3949 69.6448L76.0398 69.2898Z" fill="url(#paint27_radial_28049_41893)"/>
<path d="M90.7136 71.5381L90.5953 71.4198L85.8618 58.7577L84.6784 57.9293C84.5601 57.811 84.5601 57.6927 84.5601 57.5743L85.1517 56.5093C85.1517 56.5093 85.1518 56.5093 85.2701 56.5093C85.2701 56.5093 85.2701 56.5093 85.3884 56.5093C85.3884 56.5093 85.3884 56.5093 85.5067 56.5093L86.8085 57.2193C86.9268 57.3376 87.0451 57.456 86.9268 57.5743L86.4535 58.876L91.3053 71.4198C91.3053 71.5381 91.3053 71.6565 91.187 71.7748C91.187 71.7748 91.187 71.7748 91.0686 71.7748C91.0686 71.7748 91.0686 71.7748 90.9503 71.7748C90.8319 71.6565 90.832 71.6565 90.7136 71.5381ZM85.2701 57.2193L85.1517 57.5743L85.6251 57.811L85.2701 57.2193ZM85.8618 57.101L86.0984 57.811L86.2168 57.3376L85.8618 57.101Z" fill="url(#paint28_radial_28049_41893)"/>
<path d="M91.0689 71.6564C90.9506 71.538 90.9506 71.538 90.9506 71.538C90.8322 71.4197 90.8322 71.3014 90.9506 71.183L101.483 64.9111L101.719 63.4911C101.719 63.3727 101.838 63.2544 102.074 63.3727L103.494 63.7278C103.494 63.7278 103.494 63.7278 103.613 63.7278C103.613 63.7278 103.613 63.7278 103.731 63.7278C103.731 63.7278 103.731 63.7278 103.849 63.8461C103.849 63.8461 103.849 63.8461 103.849 63.9644C103.849 63.9644 103.849 63.9644 103.849 64.0828L103.731 65.3845C103.731 65.5028 103.613 65.6212 103.494 65.6212L101.956 65.3845L91.5423 71.7747C91.3056 71.7747 91.1873 71.7747 91.0689 71.6564ZM103.139 64.5561L102.548 64.9111L103.139 65.0295V64.5561ZM102.311 63.9644L102.193 64.4378L102.784 64.0828L102.311 63.9644Z" fill="url(#paint29_radial_28049_41893)"/>
</g>
<g opacity="0.8">
<path d="M79.6156 22.788C79.4989 22.788 79.3823 22.788 79.2657 22.6713C79.1491 22.5547 79.1491 22.2048 79.2657 22.0882L96.7596 4.59431C96.8762 4.47768 97.2261 4.47768 97.3427 4.59431C97.4594 4.71093 97.4594 5.06081 97.3427 5.17744L79.9655 22.6713C79.8488 22.788 79.7322 22.788 79.6156 22.788Z" fill="url(#paint30_radial_28049_41893)"/>
<path d="M101.658 34.3341C101.541 34.3341 101.541 34.3341 101.424 34.3341L79.4987 23.138C79.2655 23.0214 79.1489 22.7881 79.2655 22.5549C79.3821 22.3216 79.6154 22.205 79.8486 22.3216L101.774 33.5177C102.008 33.6344 102.124 33.8676 102.008 34.1009C102.008 34.2175 101.774 34.3341 101.658 34.3341Z" fill="url(#paint31_radial_28049_41893)"/>
<path d="M75.5334 47.6292C75.1835 47.6292 75.0669 47.396 75.0669 47.1627L78.9156 22.7879C78.9156 22.5546 79.1488 22.438 79.3821 22.438C79.6153 22.438 79.7319 22.6712 79.7319 22.9045L75.8833 47.2793C75.8833 47.5126 75.7667 47.6292 75.5334 47.6292Z" fill="url(#paint32_radial_28049_41893)"/>
<path d="M54.7741 26.9863C54.5409 26.9863 54.4242 26.8697 54.3076 26.6365C54.3076 26.4032 54.4242 26.1699 54.6575 26.1699L79.0323 22.3213C79.2656 22.3213 79.4988 22.4379 79.4988 22.6712C79.4988 22.9044 79.3822 23.1377 79.149 23.1377L54.7741 26.9863Z" fill="url(#paint33_radial_28049_41893)"/>
<path d="M79.2656 22.7878C79.1489 22.7878 78.9157 22.6712 78.9157 22.5546L67.7196 0.628883C67.603 0.395631 67.7196 0.162379 67.9528 0.045753C68.1861 -0.0708731 68.4193 0.045753 68.536 0.279005L79.7321 22.2047C79.8487 22.438 79.7321 22.6712 79.4988 22.7878C79.3822 22.7878 79.3822 22.7878 79.2656 22.7878Z" fill="url(#paint34_radial_28049_41893)"/>
<path d="M82.7644 22.4377C82.6478 22.4377 82.6478 22.4377 82.5312 22.4377C82.2979 22.3211 82.1813 22.0878 82.2979 21.8546L84.0473 17.8893L80.082 19.6387C79.8488 19.7553 79.6155 19.6387 79.4989 19.4054C79.3823 19.1722 79.4989 18.9389 79.7321 18.8223L84.7471 16.6064C84.8637 16.4898 85.0969 16.6064 85.2136 16.723C85.3302 16.8397 85.3302 17.0729 85.3302 17.1895L83.1143 22.2045C83.1143 22.3211 82.9977 22.4377 82.7644 22.4377Z" fill="url(#paint35_radial_28049_41893)"/>
<path d="M86.3799 26.6367L80.8985 26.0536C80.6652 26.0536 80.432 25.8203 80.5486 25.5871C80.5486 25.3538 80.7818 25.1206 81.0151 25.2372L85.3303 25.7037L82.4146 22.4382C82.298 22.2049 82.298 21.9717 82.4146 21.855C82.6479 21.7384 82.8811 21.7384 82.9977 21.855L86.6132 25.937C86.7298 26.0536 86.7298 26.2868 86.7298 26.4035C86.7298 26.5201 86.6132 26.6367 86.3799 26.6367Z" fill="url(#paint36_radial_28049_41893)"/>
<path d="M78.2158 30.835C77.9825 30.835 77.8659 30.7184 77.7493 30.4851L76.583 25.1203C76.583 24.8871 76.6996 24.6538 76.9329 24.6538C77.1661 24.6538 77.3994 24.7704 77.3994 25.0037L78.3324 29.2022L80.5483 25.4702C80.6649 25.2369 80.8982 25.2369 81.1314 25.3536C81.3647 25.4702 81.3647 25.7034 81.2481 25.9367L78.449 30.6017C78.449 30.7184 78.3324 30.835 78.2158 30.835Z" fill="url(#paint37_radial_28049_41893)"/>
<path d="M76.9329 25.4701L71.5681 24.3039C71.3349 24.3039 71.2183 24.0706 71.2183 23.954C71.2183 23.7207 71.2183 23.6041 71.4515 23.4875L76.1166 20.6884C76.3498 20.5718 76.5831 20.6884 76.6997 20.8051C76.8163 21.0383 76.6997 21.2716 76.5831 21.3882L72.851 23.6041L77.0496 24.5371C77.2828 24.5371 77.3994 24.7704 77.3994 25.0036C77.3994 25.3535 77.1662 25.4701 76.9329 25.4701Z" fill="url(#paint38_radial_28049_41893)"/>
<path d="M76.3499 21.3882C76.1167 21.3882 75.8834 21.2716 75.8834 21.0383L75.3003 15.6735C75.3003 15.4403 75.4169 15.3236 75.5335 15.207C75.6502 15.0904 75.8834 15.207 76 15.3236L80.082 18.939C80.3152 19.0557 80.3152 19.4055 80.082 19.5222C79.9653 19.7554 79.6154 19.7554 79.4988 19.5222L76.2333 16.6065L76.6998 20.9217C76.8164 21.1549 76.6998 21.3882 76.3499 21.3882Z" fill="url(#paint39_radial_28049_41893)"/>
<path d="M85.3304 21.3883C85.0972 21.3883 84.8639 21.155 84.8639 21.0384L84.6307 17.5396L81.1319 17.3064C80.8986 17.3064 80.6654 17.0731 80.782 16.8399C80.782 16.6066 81.0152 16.3734 81.2485 16.49L85.0972 16.7233C85.3304 16.7233 85.447 16.9565 85.447 17.0731L85.6803 20.9218C85.6803 21.155 85.5637 21.2717 85.3304 21.3883Z" fill="url(#paint40_radial_28049_41893)"/>
<path d="M82.881 28.0357C82.7644 28.0357 82.5311 27.9191 82.5311 27.8025C82.4145 27.5692 82.5311 27.336 82.7644 27.2194L86.0299 25.9365L85.2135 22.5543C85.2135 22.3211 85.3301 22.0878 85.5634 21.9712C85.7966 21.9712 86.0299 22.0878 86.1465 22.3211L87.0795 26.0531C87.0795 26.2864 86.9629 26.5196 86.8463 26.5196L83.2309 28.0357C82.9976 28.0357 82.881 28.0357 82.881 28.0357Z" fill="url(#paint41_radial_28049_41893)"/>
<path d="M78.2161 30.8352C78.0995 30.8352 77.9828 30.8352 77.8662 30.7186L75.4171 27.8029C75.3004 27.5697 75.3004 27.3364 75.4171 27.2198C75.6503 27.1032 75.8836 27.1032 76.0002 27.2198L78.2161 29.9022L81.1317 28.0362C81.365 27.9196 81.5983 27.9196 81.7149 28.1528C81.8315 28.3861 81.8315 28.6193 81.5982 28.7359L78.3327 30.8352C78.3327 30.8352 78.3327 30.8352 78.2161 30.8352Z" fill="url(#paint42_radial_28049_41893)"/>
<path d="M74.6005 26.7532C74.4838 26.7532 74.3672 26.7532 74.3672 26.6365L71.4516 24.1874C71.3349 24.0708 71.2183 23.8375 71.3349 23.6043L73.4342 20.3387C73.5508 20.1055 73.7841 20.1055 74.0173 20.2221C74.2506 20.3387 74.2506 20.572 74.134 20.8052L72.2679 23.7209L74.9503 25.9368C75.1836 26.0534 75.1836 26.4033 74.9503 26.5199C74.8337 26.7532 74.7171 26.7532 74.6005 26.7532Z" fill="url(#paint43_radial_28049_41893)"/>
<path d="M74.3673 19.6392H74.2507C74.0174 19.5225 73.9008 19.2893 74.0174 19.056L75.5336 15.4406C75.6502 15.2074 75.8834 15.0907 76.0001 15.2074L79.7321 16.1404C79.9654 16.1404 80.082 16.4903 80.082 16.7235C80.082 16.9568 79.7321 17.0734 79.4989 17.0734L76.1167 16.257L74.8338 19.5225C74.7172 19.5225 74.6006 19.6392 74.3673 19.6392Z" fill="url(#paint44_radial_28049_41893)"/>
<path d="M94.777 20.1054H94.6604L85.9135 16.49C85.7968 16.49 85.6802 16.3733 85.6802 16.2567L82.0648 7.50974C81.9482 7.27649 82.0648 7.04324 82.2981 6.92661C82.5313 6.80999 82.7646 6.92661 82.8812 7.15986L86.38 15.7902L95.0103 19.289C95.2435 19.4056 95.3602 19.6389 95.2435 19.8721C95.1269 19.9887 94.8937 20.1054 94.777 20.1054Z" fill="url(#paint45_radial_28049_41893)"/>
<path d="M86.9631 36.6661C86.7298 36.6661 86.4966 36.4328 86.4966 36.1996L87.1963 26.7529C87.1963 26.6363 87.313 26.5196 87.313 26.403L94.5438 20.3384C94.777 20.2218 95.0103 20.2218 95.1269 20.3384C95.2435 20.5717 95.2435 20.805 95.1269 20.9216L88.0127 26.8695L87.313 36.083C87.4296 36.5495 87.1963 36.6661 86.9631 36.6661Z" fill="url(#paint46_radial_28049_41893)"/>
<path d="M86.0302 37.2492C85.9135 37.2492 85.9135 37.2492 85.7969 37.1326L77.8663 32.2343L68.8861 34.4502C68.6529 34.4502 68.4196 34.3335 68.303 34.1003C68.1864 33.867 68.4196 33.6338 68.6529 33.5172L77.8663 31.3013C77.983 31.3013 78.0996 31.3013 78.2162 31.3013L86.2634 36.3162C86.4967 36.4328 86.4967 36.6661 86.38 36.8993C86.2634 37.1326 86.1468 37.2492 86.0302 37.2492Z" fill="url(#paint47_radial_28049_41893)"/>
<path d="M67.953 33.6336C67.6032 33.517 67.4865 33.2838 67.4865 33.0505L69.7024 24.0703L64.8041 16.1397C64.6875 15.9065 64.6875 15.6732 64.9208 15.5566C65.154 15.44 65.3873 15.44 65.5039 15.6732L70.5188 23.7204C70.6354 23.837 70.6354 23.9537 70.5188 24.0703L68.3029 33.2838C68.4196 33.517 68.1863 33.6336 67.953 33.6336Z" fill="url(#paint48_radial_28049_41893)"/>
<path d="M65.737 15.4405C65.5038 15.4405 65.2705 15.2073 65.2705 15.0906C65.2705 14.8574 65.3871 14.6241 65.6204 14.6241L74.8338 13.9244L80.7818 6.81019C80.8984 6.57694 81.2483 6.57694 81.3649 6.81019C81.5982 6.92682 81.5982 7.2767 81.3649 7.39332L75.3004 14.6241C75.1837 14.7408 75.0671 14.7408 74.9505 14.7408L65.737 15.4405Z" fill="url(#paint49_radial_28049_41893)"/>
<path d="M97.3429 18.1229C97.2263 18.1229 97.2263 18.1229 97.3429 18.1229L86.9632 15.4405C86.8466 15.4405 86.73 15.3239 86.6133 15.0906L83.9309 4.82753C83.8143 4.59428 84.0476 4.36103 84.2808 4.2444C84.5141 4.12777 84.7473 4.36103 84.8639 4.59428L87.4297 14.6241L97.4596 17.1899C97.6928 17.3065 97.8094 17.5398 97.8094 17.773C97.6928 18.0063 97.4595 18.1229 97.3429 18.1229Z" fill="url(#paint50_radial_28049_41893)"/>
<path d="M89.6453 38.5322C89.412 38.5322 89.1788 38.2989 89.1788 38.0657L88.479 27.4527C88.479 27.3361 88.5956 27.1028 88.7123 27.1028L97.6925 21.3881C97.9257 21.2715 98.159 21.2715 98.2756 21.5048C98.3922 21.738 98.3922 21.9713 98.159 22.0879L89.412 27.6859L90.1118 38.0657C90.1118 38.2989 89.8785 38.5322 89.6453 38.5322Z" fill="url(#paint51_radial_28049_41893)"/>
<path d="M85.9135 40.3985C85.7969 40.3985 85.6803 40.3985 85.6803 40.2818L77.6331 33.6341L67.9531 37.4828C67.7199 37.5994 67.4866 37.4828 67.37 37.2496C67.2533 37.0163 67.37 36.7831 67.6032 36.6664L77.5164 32.7011C77.6331 32.5845 77.8663 32.7011 77.9829 32.8178L86.1468 39.5821C86.38 39.6987 86.38 40.0486 86.1468 40.1652C86.2634 40.2818 86.0301 40.3985 85.9135 40.3985Z" fill="url(#paint52_radial_28049_41893)"/>
<path d="M64.9205 34.5673H64.8038C64.5706 34.4507 64.4539 34.2174 64.5706 33.9842L68.4192 24.3042L61.7716 16.257C61.6549 16.0238 61.6549 15.7905 61.7716 15.6739C62.0048 15.5573 62.2381 15.5573 62.3547 15.6739L69.119 23.8377C69.2356 23.9543 69.2356 24.1876 69.2356 24.3042L65.2703 34.2174C65.2703 34.4507 65.1537 34.5673 64.9205 34.5673Z" fill="url(#paint53_radial_28049_41893)"/>
<path d="M74.6005 13.4577L63.9875 12.7579C63.7542 12.7579 63.521 12.5247 63.521 12.2914C63.521 12.0582 63.7542 11.8249 63.9875 11.8249L74.3672 12.5247L79.9653 3.77771C80.0819 3.54445 80.3152 3.54445 80.5484 3.66108C80.7817 3.77771 80.7817 4.01096 80.665 4.24421L74.9504 13.2244C74.8337 13.4577 74.7171 13.4577 74.6005 13.4577Z" fill="url(#paint54_radial_28049_41893)"/>
<path d="M97.8094 15.4404C97.6927 15.4404 97.6927 15.4404 97.8094 15.4404L88.8292 13.5744C88.7125 13.5744 88.4793 13.4578 88.4793 13.2245L86.6133 4.24434C86.6133 4.01108 86.7299 3.77783 86.9632 3.77783C87.1964 3.77783 87.4297 3.89446 87.4297 4.12771L89.1791 12.758L97.8094 14.5074C98.0426 14.5074 98.1593 14.7407 98.1593 14.9739C98.1593 15.3238 97.926 15.4404 97.8094 15.4404Z" fill="url(#paint55_radial_28049_41893)"/>
<path d="M92.3277 38.1828C92.0944 38.1828 91.8612 38.0662 91.8612 37.8329L90.8115 28.7361C90.8115 28.6195 90.9282 28.3862 91.0448 28.2696L98.9753 23.7212C99.2086 23.6045 99.4419 23.7212 99.5585 23.8378C99.6751 24.071 99.5585 24.3043 99.4419 24.4209L91.7445 28.7361L92.6775 37.483C92.7942 37.9495 92.5609 38.0662 92.3277 38.1828Z" fill="url(#paint56_radial_28049_41893)"/>
<path d="M84.0473 42.3813C83.9306 42.3813 83.814 42.3813 83.6974 42.2647L77.1663 36.3168L69.1191 39.9322C68.8859 40.0488 68.6526 39.9322 68.536 39.6989C68.4194 39.4657 68.536 39.2324 68.7692 39.1158L77.0497 35.3838C77.1663 35.2671 77.3996 35.3838 77.5162 35.5004L84.2805 41.6816C84.5138 41.7982 84.5138 42.1481 84.2805 42.2647C84.2805 42.2647 84.1639 42.3813 84.0473 42.3813Z" fill="url(#paint57_radial_28049_41893)"/>
<path d="M62.4715 33.4008C62.3548 33.4008 62.3548 33.4008 62.2382 33.4008C62.0049 33.2842 61.8883 33.051 62.005 32.8177L65.6204 24.7705L59.6724 18.2394C59.5558 18.0062 59.5558 17.7729 59.6724 17.6563C59.9057 17.5397 60.1389 17.5397 60.2556 17.6563L66.4367 24.4206C66.5534 24.5373 66.5534 24.7705 66.5534 24.8871L62.8213 33.1676C62.8213 33.2842 62.7047 33.4008 62.4715 33.4008Z" fill="url(#paint58_radial_28049_41893)"/>
<path d="M73.4343 11.1253C73.3177 11.1253 73.3177 11.1253 73.4343 11.1253L64.3374 10.0757C64.1042 10.0757 63.8709 9.84243 63.9876 9.60918C63.9876 9.37593 64.2208 9.14268 64.4541 9.2593L73.201 10.1923L77.5162 2.49499C77.6328 2.26174 77.8661 2.26174 78.0993 2.37836C78.3326 2.49499 78.3326 2.72824 78.216 2.96149L73.6675 10.8921C73.6675 11.1253 73.5509 11.1253 73.4343 11.1253Z" fill="url(#paint59_radial_28049_41893)"/>
<path d="M98.1593 12.408L91.2783 11.2418C91.0451 11.2418 90.9285 11.1251 90.9285 10.8919L89.7622 4.01094C89.7622 3.77769 89.8788 3.54443 90.1121 3.54443C90.3453 3.54443 90.5786 3.66106 90.5786 3.89431L91.7448 10.4254L98.2759 11.5916C98.5092 11.5916 98.6258 11.8249 98.6258 12.0581C98.5092 12.1748 98.3925 12.408 98.1593 12.408Z" fill="url(#paint60_radial_28049_41893)"/>
<path d="M95.36 37.4827C95.1267 37.4827 95.0101 37.3661 94.8934 37.1328L93.9604 30.2519C93.9604 30.0187 94.0771 29.902 94.1937 29.7854L100.375 26.5199C100.608 26.4032 100.841 26.5199 100.958 26.7531C101.075 26.9864 100.958 27.2196 100.725 27.3363L94.8934 30.4852L95.8265 37.0162C95.8265 37.2495 95.5932 37.4827 95.36 37.4827Z" fill="url(#paint61_radial_28049_41893)"/>
<path d="M81.8314 44.4803C81.7148 44.4803 81.5982 44.4803 81.4815 44.3636L76.6999 39.6986L70.7519 42.6143C70.5187 42.7309 70.2854 42.6143 70.1688 42.381C70.0522 42.1478 70.1688 41.9145 70.402 41.7979L76.6999 38.7656C76.8165 38.649 77.0497 38.7656 77.1664 38.8822L82.1813 43.6639C82.2979 43.7805 82.4145 44.1304 82.1813 44.247C82.0647 44.3636 81.948 44.4803 81.8314 44.4803Z" fill="url(#paint62_radial_28049_41893)"/>
<path d="M59.7892 31.8847C59.6726 31.8847 59.6726 31.8847 59.556 31.8847C59.3227 31.7681 59.2061 31.5348 59.3227 31.3016L62.2384 25.3536L57.5733 20.572C57.4567 20.4553 57.4567 20.1055 57.5733 19.9888C57.6899 19.8722 58.0398 19.8722 58.1564 19.9888L62.9381 25.0038C63.0547 25.1204 63.0547 25.3536 63.0547 25.4703L60.0225 31.7681C60.1391 31.7681 60.0225 31.8847 59.7892 31.8847Z" fill="url(#paint63_radial_28049_41893)"/>
<path d="M71.8015 8.09271L64.804 7.1597C64.5707 7.1597 64.4541 6.92645 64.4541 6.69319C64.4541 6.45994 64.6873 6.34332 64.9206 6.34332L71.4517 7.27633L74.6006 1.44502C74.7172 1.21177 74.9504 1.09514 75.1837 1.21177C75.417 1.32839 75.5336 1.56165 75.4169 1.7949L72.1514 7.97608C72.1514 7.97608 71.9182 8.09271 71.8015 8.09271Z" fill="url(#paint64_radial_28049_41893)"/>
<path d="M93.6106 8.7927C93.4939 8.7927 93.3773 8.7927 93.2607 8.67608C93.1441 8.55945 93.144 8.44283 93.144 8.3262L93.2607 4.94404C93.2607 4.71079 93.4939 4.47754 93.7272 4.47754C93.9604 4.47754 94.1937 4.71079 94.1937 4.94404L94.0771 7.8597L96.9927 7.74307C97.226 7.74307 97.4592 7.97632 97.4592 8.20957C97.4592 8.44283 97.226 8.67608 96.9927 8.67608L93.6106 8.7927Z" fill="url(#paint65_radial_28049_41893)"/>
<path d="M98.3925 35.3833C98.1593 35.3833 98.0427 35.2667 97.926 35.0335L96.7598 31.8846C96.7598 31.7679 96.7598 31.6513 96.7598 31.5347C96.7598 31.4181 96.8764 31.3014 96.993 31.3014L100.259 30.3684C100.492 30.2518 100.725 30.485 100.842 30.7183C100.958 30.9516 100.725 31.1848 100.492 31.3014L97.6928 32.1178L98.6258 34.9168C98.7424 35.1501 98.6258 35.3833 98.3925 35.5C98.5091 35.3833 98.5091 35.3833 98.3925 35.3833Z" fill="url(#paint66_radial_28049_41893)"/>
<path d="M78.2161 45.6465C78.0995 45.6465 77.9829 45.5299 77.8662 45.4133L76.2335 42.9641L73.9009 44.7135C73.6677 44.8301 73.4344 44.8301 73.3178 44.5969C73.2012 44.3636 73.2012 44.1304 73.4344 44.0137L76.1169 41.9145C76.2335 41.7978 76.3501 41.7979 76.4667 41.7979C76.5834 41.7979 76.7 41.9145 76.8166 42.0311L78.6826 44.8301C78.7992 45.0634 78.7992 45.2966 78.566 45.4133C78.3327 45.6465 78.3328 45.6465 78.2161 45.6465Z" fill="url(#paint67_radial_28049_41893)"/>
<path d="M57.5729 28.852C57.4563 28.852 57.3397 28.8521 57.3397 28.7354C57.1064 28.6188 57.1065 28.2689 57.2231 28.1523L58.9725 25.8198L56.5233 24.187C56.2901 24.0704 56.2901 23.7205 56.4067 23.6039C56.5233 23.3706 56.8732 23.3706 56.9898 23.4873L59.7888 25.3533C59.9055 25.4699 59.9055 25.4699 60.0221 25.7031C60.0221 25.8198 60.0221 25.9364 59.9055 26.053L57.8062 28.7354C57.8062 28.8521 57.6896 28.852 57.5729 28.852Z" fill="url(#paint68_radial_28049_41893)"/>
<path d="M70.2853 5.17705H70.1686L67.0197 4.01079C66.7865 3.89417 66.6699 3.66092 66.7865 3.42766C66.9031 3.19441 67.1364 3.07778 67.3696 3.19441L70.1686 4.12742L70.985 1.32839C71.1016 1.09514 71.3349 0.978516 71.5681 0.978516C71.8014 1.09514 71.918 1.32839 71.918 1.56165L70.985 4.82718C70.985 4.9438 70.8684 5.06043 70.7518 5.06043C70.4019 5.17705 70.4019 5.17705 70.2853 5.17705Z" fill="url(#paint69_radial_28049_41893)"/>
<path d="M89.5286 20.8052C89.412 20.8052 89.2954 20.8052 89.2954 20.6885L84.8636 17.423C84.8636 17.423 84.7469 17.423 84.7469 17.3064L81.4814 12.8746C81.3648 12.6413 81.3648 12.4081 81.598 12.2915C81.8313 12.1748 82.0645 12.1748 82.1812 12.4081L85.4467 16.8399L89.8785 20.1054C90.1117 20.222 90.1117 20.5719 89.9951 20.6885C89.7618 20.6885 89.6452 20.8052 89.5286 20.8052Z" fill="url(#paint70_radial_28049_41893)"/>
<path d="M84.6305 31.8849H84.5139C84.2806 31.7683 84.164 31.535 84.2806 31.3018L86.03 26.0536C86.03 26.0536 86.03 25.937 86.1466 25.937L89.4122 21.3885C89.5288 21.1553 89.8787 21.1553 89.9953 21.2719C90.2285 21.3885 90.2285 21.7384 90.1119 21.855L86.963 26.2868L85.2136 31.535C84.9804 31.7683 84.8638 31.8849 84.6305 31.8849Z" fill="url(#paint71_radial_28049_41893)"/>
<path d="M83.4641 32.4676H83.3475L78.0993 30.8349H72.6179C72.3846 30.8349 72.1514 30.6016 72.1514 30.3684C72.1514 30.1351 72.3846 29.9019 72.6179 29.9019H78.2159H78.3326L83.6974 31.5346C83.9306 31.6512 84.0472 31.8845 83.9306 32.1178C83.814 32.351 83.6974 32.4676 83.4641 32.4676Z" fill="url(#paint72_radial_28049_41893)"/>
<path d="M71.6851 29.7854C71.4518 29.7854 71.2186 29.5522 71.2186 29.3189V23.8375L69.5858 18.5893C69.4692 18.3561 69.5858 18.1228 69.819 18.0062C70.0523 17.8896 70.2855 18.0062 70.4022 18.2395L72.0349 23.6043V23.7209V29.3189C72.1516 29.6688 71.9183 29.7854 71.6851 29.7854Z" fill="url(#paint73_radial_28049_41893)"/>
<path d="M70.5186 17.7731C70.2853 17.7731 70.1687 17.6565 70.0521 17.4233C69.9355 17.19 70.0521 16.9568 70.2853 16.8401L75.5335 15.0907L79.9653 11.9418C80.1986 11.8252 80.4318 11.8252 80.5484 12.0585C80.6651 12.2917 80.6651 12.525 80.4318 12.6416L75.8834 15.9071C75.8834 15.9071 75.7668 15.9071 75.7668 16.0238L70.5186 17.7731C70.6352 17.7731 70.6352 17.7731 70.5186 17.7731Z" fill="url(#paint74_radial_28049_41893)"/>
</g>
<g opacity="0.85">
<path d="M74.0026 103.994H37.4727C37.237 103.994 36.7656 103.758 36.7656 103.287C36.7656 103.051 37.0013 102.58 37.4727 102.58H74.0026C74.2383 102.58 74.7096 102.815 74.7096 103.287C74.4739 103.758 74.2383 103.994 74.0026 103.994Z" fill="url(#paint75_radial_28049_41893)"/>
<path d="M63.1616 129.918C62.9259 129.918 62.9259 129.918 62.6903 129.682L37.0015 103.993C36.7658 103.758 36.7658 103.286 37.0015 103.051C37.2371 102.815 37.7085 102.815 37.9442 103.051L63.633 128.975C63.8686 129.211 63.8686 129.682 63.633 129.918C63.633 129.918 63.3973 129.918 63.1616 129.918Z" fill="url(#paint76_radial_28049_41893)"/>
<path d="M37.2368 140.759C37.0011 140.759 36.5298 140.524 36.5298 140.052V103.522C36.5298 103.287 36.7655 102.815 37.2368 102.815C37.4725 102.815 37.9438 103.051 37.9438 103.522V140.052C37.9438 140.524 37.7082 140.759 37.2368 140.759Z" fill="url(#paint77_radial_28049_41893)"/>
<path d="M11.3127 129.919C11.077 129.919 11.077 129.919 10.8413 129.683C10.6056 129.447 10.6056 128.976 10.8413 128.74L36.7658 103.287C37.0015 103.051 37.4728 103.051 37.7085 103.287C37.9442 103.523 37.9442 103.994 37.7085 104.23L11.784 129.919C11.784 129.919 11.5483 129.919 11.3127 129.919Z" fill="url(#paint78_radial_28049_41893)"/>
<path d="M0.707031 103.994C0.471354 103.994 0 103.758 0 103.287C0 103.051 0.235677 102.58 0.707031 102.58H37.237C37.4726 102.58 37.944 102.815 37.944 103.287C37.944 103.522 37.7083 103.994 37.237 103.994H0.707031Z" fill="url(#paint79_radial_28049_41893)"/>
<path d="M37.2371 103.994C37.0014 103.994 37.0014 103.994 36.7658 103.758L10.8413 78.0692C10.6056 77.8335 10.6056 77.3621 10.8413 77.1265C11.077 76.8908 11.5483 76.8908 11.784 77.1265L37.4728 102.815C37.7085 103.051 37.7085 103.522 37.4728 103.758C37.4728 103.994 37.2371 103.994 37.2371 103.994Z" fill="url(#paint80_radial_28049_41893)"/>
<path d="M37.2368 103.994C37.0011 103.994 36.5298 103.758 36.5298 103.287V66.7568C36.5298 66.5212 36.7655 66.0498 37.2368 66.0498C37.4725 66.0498 37.9438 66.2855 37.9438 66.7568V103.287C37.9438 103.758 37.7082 103.994 37.2368 103.994Z" fill="url(#paint81_radial_28049_41893)"/>
<path d="M37.4728 103.994C37.2371 103.994 37.2371 103.994 37.0015 103.758C36.7658 103.522 36.7658 103.051 37.0015 102.815L62.6903 77.1265C62.9259 76.8908 63.3973 76.8908 63.633 77.1265C63.8686 77.3621 63.8686 77.8335 63.633 78.0692L37.9442 103.758C37.7085 103.994 37.4728 103.994 37.4728 103.994Z" fill="url(#paint82_radial_28049_41893)"/>
<path d="M50.9062 106.822H50.6706L46.1927 104.229C45.957 104.229 45.957 103.994 45.957 103.758C45.957 103.522 45.957 103.287 46.1927 103.287L50.6706 100.694C50.9062 100.459 51.3776 100.694 51.6133 100.93C51.849 101.166 51.6133 101.637 51.3776 101.873L47.8424 103.994L51.3776 106.115C51.6133 106.351 51.849 106.586 51.6133 107.058C51.3776 106.586 51.1419 106.822 50.9062 106.822Z" fill="url(#paint83_radial_28049_41893)"/>
<path d="M45.0143 115.542C44.7786 115.542 44.543 115.306 44.3073 115.07L43.1289 110.121C43.1289 109.885 43.1289 109.65 43.3646 109.65C43.6003 109.65 43.8359 109.414 43.8359 109.414L48.7852 110.592C49.0208 110.592 49.2565 111.064 49.2565 111.299C49.2565 111.535 48.7852 111.771 48.5495 111.771L44.543 110.828L45.4857 114.835C45.7214 115.306 45.4857 115.542 45.0143 115.542Z" fill="url(#paint84_radial_28049_41893)"/>
<path d="M34.6447 117.663H34.409C34.1733 117.427 33.9376 117.192 34.1733 116.72L36.7658 112.243C36.7658 112.007 37.0014 112.007 37.2371 112.007C37.4728 112.007 37.7085 112.007 37.7085 112.243L40.3009 116.72C40.5366 116.956 40.3009 117.427 40.0652 117.663C39.8296 117.899 39.3582 117.663 39.1225 117.427L37.0014 113.892L35.116 117.427C34.8803 117.663 34.8803 117.663 34.6447 117.663Z" fill="url(#paint85_radial_28049_41893)"/>
<path d="M29.6951 115.542C29.4595 115.542 29.4595 115.542 29.6951 115.542C29.2238 115.542 28.9881 115.07 28.9881 114.835L29.9308 110.828L25.9243 111.771C25.6886 111.771 25.2173 111.535 25.2173 111.299C25.2173 111.064 25.453 110.592 25.6886 110.592L30.6379 109.414C30.8735 109.414 31.1092 109.414 31.1092 109.65C31.1092 109.885 31.3449 110.121 31.3449 110.121L30.1665 115.07C30.1665 115.542 29.9308 115.542 29.6951 115.542Z" fill="url(#paint86_radial_28049_41893)"/>
<path d="M23.8034 106.822C23.5677 106.822 23.332 106.822 23.332 106.586C23.0963 106.35 23.332 105.879 23.5677 105.643L27.1028 103.522L23.5677 101.401C23.332 101.165 23.0963 100.93 23.332 100.458C23.5677 100.223 23.8034 99.9869 24.2747 100.223L28.7526 102.815C28.9882 102.815 28.9882 103.051 28.9882 103.286C28.9882 103.522 28.9882 103.758 28.7526 103.758L24.2747 106.35C23.8034 106.822 23.8034 106.822 23.8034 106.822Z" fill="url(#paint87_radial_28049_41893)"/>
<path d="M30.8735 97.6305C30.6379 97.6305 30.6379 97.6305 30.8735 97.6305L25.6886 96.4521C25.453 96.4521 25.2173 95.9808 25.2173 95.7451C25.2173 95.5094 25.6886 95.2738 25.9243 95.2738L29.9308 96.2165L28.9881 92.21C28.9881 91.9743 29.2238 91.5029 29.4595 91.5029C29.6951 91.5029 30.1665 91.7386 30.1665 91.9743L31.3449 96.9235C31.3449 97.1592 31.3449 97.3949 31.1092 97.3949C31.1092 97.6305 30.8735 97.6305 30.8735 97.6305Z" fill="url(#paint88_radial_28049_41893)"/>
<path d="M37.2371 95.038C37.0014 95.038 36.7658 95.038 36.7658 94.8024L34.1733 90.3245C33.9376 90.0888 34.1733 89.6175 34.409 89.3818C34.6447 89.1461 35.116 89.3818 35.3517 89.6175L37.4728 93.1526L39.5939 89.6175C39.8295 89.3818 40.0652 89.1461 40.5366 89.3818C40.7723 89.6175 41.0079 89.8532 40.7723 90.3245L37.7085 94.5667C37.7085 94.8024 37.4728 95.038 37.2371 95.038Z" fill="url(#paint89_radial_28049_41893)"/>
<path d="M43.8359 97.6305C43.6003 97.6305 43.6003 97.6305 43.3646 97.3949C43.1289 97.1592 43.1289 96.9235 43.1289 96.9235L44.3073 91.9743C44.3073 91.7386 44.7786 91.5029 45.0143 91.5029C45.25 91.5029 45.4857 91.9743 45.4857 92.21L44.543 96.2165L48.5495 95.2738C48.7852 95.2738 49.2565 95.5094 49.2565 95.7451C49.2565 95.9808 49.0208 96.4521 48.7852 96.4521L43.8359 97.6305Z" fill="url(#paint90_radial_28049_41893)"/>
<path d="M54.6771 109.414C54.4414 109.414 54.2057 109.414 54.2057 109.178L50.9062 103.758C50.6706 103.522 50.6706 103.286 50.9062 103.051L54.2057 97.6302C54.4414 97.3945 54.6771 97.1588 55.1484 97.3945C55.3841 97.6302 55.6198 97.8658 55.3841 98.3372L52.3203 103.522L55.3841 108.707C55.6198 108.943 55.3841 109.414 55.1484 109.65C54.9128 109.414 54.6771 109.414 54.6771 109.414Z" fill="url(#paint91_radial_28049_41893)"/>
<path d="M45.7212 120.255C45.2498 120.255 45.0142 119.784 45.0142 119.548L46.4282 113.421C46.4282 113.185 46.6639 112.949 46.8996 112.949L53.0272 111.535C53.2629 111.535 53.7342 111.771 53.7342 112.007C53.7342 112.242 53.4985 112.714 53.2629 112.714L47.3709 114.128L46.4282 119.784C46.1925 120.02 45.9569 120.255 45.7212 120.255Z" fill="url(#paint92_radial_28049_41893)"/>
<path d="M42.6575 121.433H42.4218L37.2369 118.37L32.052 121.433C31.8164 121.669 31.345 121.433 31.1093 121.198C30.8737 120.962 31.1093 120.491 31.345 120.255L36.7656 116.956C37.0013 116.72 37.2369 116.72 37.4726 116.956L42.8932 120.255C43.1289 120.491 43.3645 120.726 43.1289 121.198C43.1289 121.433 42.8932 121.433 42.6575 121.433Z" fill="url(#paint93_radial_28049_41893)"/>
<path d="M28.7524 120.256C28.5168 120.256 28.2811 120.02 28.0454 119.784L26.6313 113.892L20.7394 112.478C20.5037 112.478 20.2681 112.007 20.2681 111.771C20.2681 111.535 20.7394 111.3 20.9751 111.3L27.1027 112.714C27.3384 112.714 27.574 112.95 27.574 113.185L28.9881 119.313C29.4595 119.784 29.2238 120.02 28.7524 120.256C28.9881 120.256 28.9881 120.256 28.7524 120.256Z" fill="url(#paint94_radial_28049_41893)"/>
<path d="M20.0324 109.414H19.7967C19.561 109.179 19.3253 108.943 19.561 108.472L22.6248 103.287L19.561 98.1019C19.3253 97.8662 19.561 97.3948 19.7967 97.1591C20.0324 96.9235 20.5037 97.1591 20.7394 97.3948L24.0389 102.815C24.2745 103.051 24.2745 103.287 24.0389 103.522L20.7394 108.943C20.268 109.414 20.0324 109.414 20.0324 109.414Z" fill="url(#paint95_radial_28049_41893)"/>
<path d="M21.2109 95.7453C20.9753 95.7453 20.7396 95.5096 20.5039 95.2739C20.5039 95.0382 20.7396 94.5669 20.9753 94.5669L26.8672 93.1528L28.2812 87.2609C28.2812 87.0252 28.7526 86.7896 28.9883 86.7896C29.224 86.7896 29.4596 87.2609 29.4596 87.4966L28.0456 93.6242C28.0456 93.8599 27.8099 94.0955 27.5742 94.0955L21.2109 95.7453Z" fill="url(#paint96_radial_28049_41893)"/>
<path d="M37.2366 90.0887H37.0009L31.5804 86.7892C31.3447 86.5535 31.109 86.3178 31.3447 85.8465C31.5804 85.6108 31.816 85.3751 32.2874 85.6108L37.4723 88.6746L42.4215 85.6108C42.6572 85.3751 43.1285 85.6108 43.3642 85.8465C43.5999 86.0822 43.3642 86.5535 43.1285 86.7892L37.708 90.0887C37.4723 90.0887 37.4723 90.0887 37.2366 90.0887Z" fill="url(#paint97_radial_28049_41893)"/>
<path d="M53.263 95.7453L47.1354 94.0955C46.8997 94.0955 46.6641 93.8599 46.6641 93.6242L45.25 87.4966C45.25 87.2609 45.4857 86.7896 45.7214 86.7896C45.957 86.7896 46.4284 87.0252 46.4284 87.2609L47.8424 93.1528L53.7344 94.5669C53.97 94.5669 54.2057 95.0382 54.2057 95.2739C53.97 95.5096 53.7344 95.7453 53.263 95.7453Z" fill="url(#paint98_radial_28049_41893)"/>
<path d="M60.0973 112.007C59.8617 112.007 59.626 112.007 59.626 111.771L53.9697 103.758C53.734 103.522 53.734 103.287 53.9697 103.051L59.626 95.0379C59.8616 94.8022 60.0973 94.8022 60.5687 94.8022C60.8044 95.0379 60.8044 95.2736 60.8044 95.745L55.3838 103.287L60.8044 110.828C61.04 111.064 61.04 111.535 60.5687 111.771C60.333 112.007 60.0973 112.007 60.0973 112.007Z" fill="url(#paint99_radial_28049_41893)"/>
<path d="M47.8423 125.912C47.6066 125.676 47.6066 125.912 47.8423 125.912C47.3709 125.912 47.1353 125.44 47.1353 125.205L48.785 115.542C48.785 115.306 49.0207 115.071 49.2563 115.071L58.9191 113.421C59.1548 113.421 59.6261 113.657 59.6261 113.892C59.6261 114.128 59.3905 114.599 59.1548 114.599L49.9634 116.249L48.3136 125.44C48.3136 125.676 48.078 125.912 47.8423 125.912Z" fill="url(#paint100_radial_28049_41893)"/>
<path d="M29.4597 126.854C29.224 126.854 28.9883 126.854 28.9883 126.618C28.7526 126.383 28.7526 125.911 29.224 125.676L37.237 120.02C37.4727 119.784 37.7084 119.784 37.944 120.02L45.957 125.676C46.1927 125.911 46.1927 126.147 46.1927 126.618C45.4857 126.854 45.25 126.854 44.7787 126.618L37.237 121.198L29.6953 126.618C29.6953 126.854 29.4597 126.854 29.4597 126.854Z" fill="url(#paint101_radial_28049_41893)"/>
<path d="M26.8672 125.912C26.6315 125.912 26.3958 125.676 26.1602 125.44L24.5104 116.249L15.319 114.599C15.0833 114.599 14.8477 114.128 14.8477 113.892C14.8477 113.657 15.319 113.421 15.5547 113.421L25.2174 115.071C25.4531 115.071 25.6888 115.306 25.6888 115.542L27.3385 125.205C27.5742 125.44 27.3385 125.676 26.8672 125.912Z" fill="url(#paint102_radial_28049_41893)"/>
<path d="M14.612 112.007C14.3763 112.007 14.3763 112.007 14.3763 112.007C14.1406 111.771 14.1406 111.535 14.1406 111.064L19.5612 103.522L14.1406 95.9808C13.905 95.7451 13.905 95.2738 14.3763 95.0381C14.612 94.8024 15.0834 94.8024 15.319 95.2738L20.9753 103.287C21.211 103.522 21.211 103.758 20.9753 103.994L15.319 112.007C14.8477 112.007 14.612 112.007 14.612 112.007Z" fill="url(#paint103_radial_28049_41893)"/>
<path d="M15.5547 93.6237C15.319 93.6237 15.0833 93.388 14.8477 93.1523C14.8477 92.9167 15.0833 92.4453 15.319 92.4453L24.5104 90.7956L26.1601 81.6042C26.1601 81.3685 26.6315 81.1328 26.8672 81.1328C27.1029 81.1328 27.3385 81.6042 27.3385 81.8398L25.6888 91.5026C25.6888 91.7383 25.4531 91.974 25.2174 91.974L15.5547 93.6237Z" fill="url(#paint104_radial_28049_41893)"/>
<path d="M37.2366 87.0251C37.001 87.0251 37.001 87.0251 36.7653 87.0251L28.7523 81.3688C28.5166 81.1332 28.5166 80.8975 28.5166 80.4261C28.7523 80.1905 28.988 80.1904 29.4593 80.1904L37.001 85.611L44.7783 80.1904C45.014 79.9548 45.4853 79.9548 45.721 80.4261C45.9567 80.6618 45.9567 81.1332 45.4853 81.3688L37.708 86.7894C37.4723 87.0251 37.4723 87.0251 37.2366 87.0251Z" fill="url(#paint105_radial_28049_41893)"/>
<path d="M58.9191 93.6237L49.2563 91.974C49.0207 91.974 48.785 91.7383 48.785 91.5026L47.1353 81.8398C47.1353 81.6042 47.3709 81.1328 47.6066 81.1328C47.8423 81.1328 48.3136 81.3685 48.3136 81.6042L49.9634 90.7956L59.1548 92.4453C59.3905 92.4453 59.6261 92.9167 59.6261 93.1523C59.6261 93.388 59.3905 93.6237 58.9191 93.6237Z" fill="url(#paint106_radial_28049_41893)"/>
<path d="M63.1615 113.185C62.9258 113.185 62.6901 112.95 62.6901 112.714L59.3906 103.758C59.3906 103.523 59.3906 103.523 59.3906 103.287L62.6901 94.3312C62.6901 94.0955 63.1615 93.8599 63.3971 93.8599C63.6328 93.8599 63.8685 94.3312 63.8685 94.5669L60.8047 103.287L63.8685 112.007C63.8685 112.714 63.6328 112.95 63.1615 113.185Z" fill="url(#paint107_radial_28049_41893)"/>
<path d="M49.2565 128.74H49.0208C48.7851 128.504 48.5494 128.268 48.7851 128.033L52.7916 119.312C52.7916 119.077 53.0273 119.077 53.0273 119.077L61.7474 115.07C61.983 114.835 62.4544 115.07 62.4544 115.306C62.6901 115.542 62.4544 116.013 62.2187 116.013L53.7343 120.019L49.7278 128.504C49.7278 128.74 49.4921 128.74 49.2565 128.74Z" fill="url(#paint108_radial_28049_41893)"/>
<path d="M46.1929 129.918L37.2371 126.854L28.5171 129.918C28.2814 129.918 27.8101 129.918 27.8101 129.446C27.8101 129.211 27.8101 128.739 28.2814 128.739L37.2371 125.44C37.4728 125.44 37.4728 125.44 37.7085 125.44L46.6642 128.739C46.8999 128.739 47.1356 129.211 47.1356 129.446C46.6642 129.918 46.4285 129.918 46.1929 129.918Z" fill="url(#paint109_radial_28049_41893)"/>
<path d="M25.2174 128.74C24.9817 128.74 24.746 128.504 24.746 128.504L20.7395 120.019L12.2552 116.013C12.0195 115.777 11.7838 115.542 12.0195 115.306C12.2552 115.07 12.4908 114.835 12.7265 115.07L21.4466 119.077C21.6823 119.077 21.6823 119.312 21.6823 119.312L25.6888 128.033C25.9244 128.268 25.6888 128.74 25.4531 128.74C25.4531 128.74 25.4531 128.74 25.2174 128.74Z" fill="url(#paint110_radial_28049_41893)"/>
<path d="M11.3123 113.185C10.841 112.95 10.6053 112.714 10.841 112.478L13.9048 103.758L10.841 95.0381C10.841 94.8024 10.841 94.3311 11.3123 94.3311C11.548 94.3311 12.0194 94.3311 12.0194 94.8024L15.0832 103.287C15.0832 103.522 15.0832 103.522 15.0832 103.758L12.0194 112.714C11.7837 112.95 11.548 113.185 11.3123 113.185Z" fill="url(#paint111_radial_28049_41893)"/>
<path d="M12.4909 92.2098C12.2552 92.2098 12.0195 91.9741 12.0195 91.9741C11.7838 91.7384 12.0195 91.267 12.2552 91.267L20.7395 87.2605L24.746 78.7762C24.9817 78.5405 25.2174 78.3048 25.4531 78.5405C25.9244 78.3048 25.9244 78.7762 25.9244 79.0118L21.9179 87.7319C21.9179 87.9676 21.6823 87.9676 21.6823 87.9676L12.9622 91.9741C12.7265 92.2098 12.7265 92.2098 12.4909 92.2098Z" fill="url(#paint112_radial_28049_41893)"/>
<path d="M37.237 81.369L28.0456 78.0695C27.8099 78.0695 27.5742 77.5981 27.5742 77.3625C27.5742 77.1268 28.0456 76.8911 28.2813 76.8911L37.0013 79.9549L45.7213 76.8911C45.957 76.8911 46.4284 76.8911 46.4284 77.3625C46.4284 77.5981 46.4284 78.0695 45.957 78.0695L37.237 81.369Z" fill="url(#paint113_radial_28049_41893)"/>
<path d="M61.983 92.2098H61.7474L53.0273 88.2032C52.7916 88.2032 52.7916 87.9676 52.7916 87.9676L48.7851 79.2475C48.5494 79.0118 48.7851 78.5405 49.0208 78.5405C49.2565 78.3048 49.7278 78.5405 49.7278 78.7762L53.7343 87.2605L62.2187 91.267C62.4544 91.5027 62.6901 91.7384 62.4544 91.9741C62.4544 91.9741 62.2187 92.2098 61.983 92.2098Z" fill="url(#paint114_radial_28049_41893)"/>
<path d="M66.2251 110.592C65.9894 110.592 65.7537 110.357 65.7537 110.121L63.397 103.522C63.397 103.286 63.397 103.286 63.397 103.051L65.7537 96.4518C65.7537 96.2161 66.2251 95.9805 66.4608 95.9805C66.6965 95.9805 66.9321 96.4518 66.9321 96.6875L64.811 103.051L66.9321 109.414C66.9321 110.121 66.6965 110.357 66.2251 110.592Z" fill="url(#paint115_radial_28049_41893)"/>
<path d="M53.2628 129.211H53.0271C52.7915 128.975 52.5558 128.739 52.7915 128.504L55.8553 122.376C55.8553 122.14 56.0909 122.14 56.0909 122.14L62.2185 119.077C62.4542 118.841 62.9256 119.077 62.9256 119.312C63.1613 119.548 62.9256 120.019 62.6899 120.019L56.5623 122.847L53.7342 128.975C53.4985 128.975 53.4985 129.211 53.2628 129.211Z" fill="url(#paint116_radial_28049_41893)"/>
<path d="M43.8363 132.982C43.6006 132.982 43.6006 132.982 43.8363 132.982L37.2373 130.625L30.874 132.746C30.6383 132.746 30.167 132.746 30.167 132.275C30.167 132.039 30.167 131.568 30.6383 131.568L37.2373 129.211C37.473 129.211 37.473 129.211 37.7087 129.211L44.3076 131.568C44.5433 131.568 44.779 132.039 44.779 132.275C44.3076 132.982 44.0719 132.982 43.8363 132.982Z" fill="url(#paint117_radial_28049_41893)"/>
<path d="M21.4465 129.211C21.2108 129.211 20.9751 128.975 20.9751 128.975L18.147 122.848L12.0194 120.02C11.548 119.784 11.548 119.313 11.7837 119.077C12.0194 118.841 12.2551 118.606 12.4907 118.841L18.6183 121.905C18.854 121.905 18.854 121.905 19.0897 122.141L22.1535 128.268C22.3892 128.504 22.1535 128.975 21.9178 128.975C21.6821 129.211 21.4465 129.211 21.4465 129.211Z" fill="url(#paint118_radial_28049_41893)"/>
<path d="M8.24887 110.592C7.77752 110.357 7.54184 110.121 7.77752 109.885L9.89861 103.522L7.77752 97.1587C7.77752 96.923 7.77752 96.4517 8.24887 96.4517C8.48455 96.4517 8.9559 96.4517 8.9559 96.923L11.3127 103.522C11.3127 103.758 11.3127 103.758 11.3127 103.993L8.9559 110.592C8.72022 110.357 8.48455 110.592 8.24887 110.592Z" fill="url(#paint119_radial_28049_41893)"/>
<path d="M12.2555 88.2034C12.0198 88.2034 11.7841 87.9677 11.7841 87.9677C11.5485 87.7321 11.7841 87.2607 12.0198 87.2607L18.1474 84.4326L20.9755 78.305C21.2112 78.0693 21.4469 77.8336 21.6826 78.0693C21.9183 78.305 22.1539 78.5407 21.9183 78.7763L19.0901 84.9039C18.8545 85.1396 18.8545 85.1396 18.6188 85.1396L12.4912 88.2034H12.2555Z" fill="url(#paint120_radial_28049_41893)"/>
<path d="M37.2373 77.3623L30.6383 75.0055C30.4027 75.0055 30.167 74.5342 30.167 74.2985C30.167 74.0628 30.6383 73.8271 30.874 73.8271L37.2373 75.9482L43.6006 73.8271C43.8363 73.8271 44.3076 73.8271 44.3076 74.2985C44.3076 74.5342 44.3076 75.0055 43.8363 75.0055L37.2373 77.3623Z" fill="url(#paint121_radial_28049_41893)"/>
<path d="M62.2184 88.2034H61.9827L55.8551 85.1396C55.6194 85.1396 55.6194 84.9039 55.6194 84.9039L52.5556 78.7763C52.32 78.5407 52.5556 78.0693 52.7913 78.0693C53.027 77.8336 53.4983 78.0693 53.4983 78.305L56.5621 84.1969L62.6897 87.025C62.9254 87.2607 63.1611 87.4964 62.9254 87.7321C62.6897 88.2034 62.4541 88.2034 62.2184 88.2034Z" fill="url(#paint122_radial_28049_41893)"/>
<path d="M70.4673 106.822C70.2316 106.822 70.2316 106.822 69.9959 106.586L66.4608 103.994C66.2251 103.994 66.2251 103.758 66.2251 103.522C66.2251 103.287 66.2251 103.051 66.4608 103.051L69.9959 100.458C70.2316 100.223 70.703 100.223 70.9386 100.458C71.1743 100.694 71.1743 101.166 70.9386 101.401L68.1105 103.522L70.703 105.643C70.9386 105.879 70.9386 106.35 70.703 106.586C70.703 106.822 70.703 106.822 70.4673 106.822Z" fill="url(#paint123_radial_28049_41893)"/>
<path d="M58.6838 129.447C58.4481 129.447 58.2124 129.211 57.9767 128.975L57.5054 124.498C57.5054 124.262 57.5054 124.026 57.741 124.026C57.9767 123.791 57.9767 123.791 58.2124 123.791L62.6903 124.262C62.9259 124.262 63.1616 124.498 63.1616 124.969C63.1616 125.205 62.9259 125.44 62.4546 125.44L58.9194 125.205L59.3908 128.74C59.3908 128.975 59.1551 129.447 58.6838 129.447C58.9194 129.447 58.9194 129.447 58.6838 129.447Z" fill="url(#paint124_radial_28049_41893)"/>
<path d="M34.6447 137.225C34.409 137.225 34.409 137.225 34.1733 136.989C33.9377 136.753 33.9377 136.282 34.1733 136.046L36.7658 132.511C36.7658 132.275 37.0015 132.275 37.2371 132.275C37.4728 132.275 37.7085 132.275 37.7085 132.511L40.3009 136.046C40.5366 136.282 40.5366 136.753 40.3009 136.989C40.0653 137.225 39.5939 137.225 39.3582 136.989L37.2371 134.161L35.116 136.989C34.8804 137.225 34.6447 137.225 34.6447 137.225Z" fill="url(#paint125_radial_28049_41893)"/>
<path d="M15.7904 129.447C15.319 129.447 15.0833 128.976 15.0833 128.74L15.5547 125.205L12.0195 125.676C11.7839 125.676 11.3125 125.44 11.3125 125.205C11.3125 124.733 11.5482 124.498 11.7839 124.498L16.2617 124.026C16.4974 124.026 16.7331 124.026 16.7331 124.262C16.9687 124.498 16.9687 124.498 16.9687 124.733L16.4974 129.211C16.2617 129.211 16.026 129.447 15.7904 129.447Z" fill="url(#paint126_radial_28049_41893)"/>
<path d="M4.24235 106.822C4.00667 106.822 3.771 106.822 3.771 106.586C3.53532 106.35 3.53532 105.879 3.771 105.643L6.59912 103.522L3.771 101.401C3.53532 101.166 3.53532 100.694 3.771 100.458C4.00667 100.223 4.47803 100.223 4.7137 100.458L8.24886 103.051C8.48453 103.051 8.48453 103.287 8.48453 103.522C8.48453 103.758 8.48453 103.994 8.24886 103.994L4.7137 106.586C4.47803 106.822 4.24235 106.822 4.24235 106.822Z" fill="url(#paint127_radial_28049_41893)"/>
<path d="M16.2617 83.2539L11.7839 82.5469C11.5482 82.5469 11.3125 82.3112 11.3125 81.8398C11.3125 81.6042 11.5482 81.3685 12.0195 81.3685L15.5547 81.8398L15.0833 78.3047C15.0833 78.069 15.319 77.5977 15.5547 77.5977C15.7904 77.5977 16.2617 77.8333 16.2617 78.069L16.7331 82.5469C16.7331 82.7825 16.7331 83.0182 16.4974 83.0182C16.7331 83.0182 16.4974 83.2539 16.2617 83.2539Z" fill="url(#paint128_radial_28049_41893)"/>
<path d="M37.2371 74.5339C37.0015 74.5339 36.7658 74.5339 36.7658 74.2982L34.1733 70.763C33.9377 70.5273 33.9377 70.056 34.1733 69.8203C34.409 69.5846 34.8804 69.5846 35.116 69.8203L37.2371 72.6484L39.3582 69.8203C39.5939 69.5846 40.0653 69.5846 40.3009 69.8203C40.5366 70.056 40.5366 70.5273 40.3009 70.763L37.7085 74.2982C37.7085 74.2982 37.4728 74.5339 37.2371 74.5339Z" fill="url(#paint129_radial_28049_41893)"/>
<path d="M58.2124 83.2539C57.9767 83.2539 57.9767 83.2539 57.741 83.0182C57.5054 82.7825 57.5054 82.7825 57.5054 82.5469L57.9767 78.069C57.9767 77.8333 58.2124 77.5977 58.6838 77.5977C58.9194 77.5977 59.1551 77.8333 59.1551 78.3047L58.9194 81.8398L62.4546 81.3685C62.6903 81.3685 63.1616 81.6042 63.1616 81.8398C63.1616 82.0755 62.9259 82.5469 62.6903 82.5469L58.2124 83.2539Z" fill="url(#paint130_radial_28049_41893)"/>
<path d="M72.8239 105.408C71.8812 105.408 70.9385 104.701 70.9385 103.523C70.9385 102.58 71.6455 101.637 72.8239 101.637C74.0023 101.637 74.7093 102.344 74.7093 103.523C74.4736 104.465 73.7666 105.408 72.8239 105.408ZM72.8239 102.816C72.5882 102.816 72.1169 103.051 72.1169 103.523C72.1169 103.758 72.3525 104.23 72.8239 104.23C73.0596 104.23 73.5309 103.994 73.5309 103.523C73.2952 103.051 73.0596 102.816 72.8239 102.816Z" fill="url(#paint131_radial_28049_41893)"/>
<path d="M62.4543 130.39C61.9829 130.39 61.5116 130.154 61.2759 129.918C60.5688 129.211 60.5688 128.033 61.2759 127.326C61.5116 127.09 61.9829 126.854 62.4543 126.854C62.9256 126.854 63.397 127.09 63.6326 127.326C64.3397 128.033 64.3397 129.211 63.6326 129.918C63.397 130.154 62.9256 130.39 62.4543 130.39ZM61.9829 128.033C61.7472 128.269 61.7472 128.74 61.9829 128.976C62.2186 129.211 62.6899 129.211 62.9256 128.976C63.1613 128.74 63.1613 128.269 62.9256 128.033C62.4543 127.797 62.2186 127.797 61.9829 128.033Z" fill="url(#paint132_radial_28049_41893)"/>
<path d="M37.237 140.76C36.2943 140.76 35.3516 140.053 35.3516 138.874C35.3516 137.931 36.0586 136.989 37.237 136.989C38.1797 136.989 39.1224 137.696 39.1224 138.874C39.1224 140.053 38.1797 140.76 37.237 140.76ZM37.237 138.403C37.0013 138.403 36.5299 138.639 36.5299 139.11C36.5299 139.581 36.7656 139.817 37.237 139.817C37.4727 139.817 37.944 139.581 37.944 139.11C37.944 138.639 37.7083 138.403 37.237 138.403Z" fill="url(#paint133_radial_28049_41893)"/>
<path d="M12.255 130.389C11.7837 130.389 11.3123 130.154 11.0767 129.918C10.3696 129.211 10.3696 128.033 11.0767 127.326C11.3123 126.854 11.7837 126.619 12.255 126.619C12.7264 126.619 13.1978 126.854 13.4334 127.09C14.1405 128.033 14.1405 129.211 13.4334 129.918C13.1978 130.154 12.7264 130.389 12.255 130.389ZM11.7837 128.975C12.0194 129.211 12.4907 129.211 12.7264 128.975C12.9621 128.74 12.9621 128.268 12.7264 128.033C12.4907 127.797 12.0194 127.797 11.7837 128.033C11.548 128.268 11.548 128.74 11.7837 128.975Z" fill="url(#paint134_radial_28049_41893)"/>
<path d="M1.88542 105.408C0.942708 105.408 0 104.701 0 103.523C0 102.58 0.707031 101.637 1.88542 101.637C2.82812 101.637 3.77083 102.344 3.77083 103.523C3.77083 104.465 2.82812 105.408 1.88542 105.408ZM1.88542 102.816C1.64974 102.816 1.17838 103.051 1.17838 103.523C1.17838 103.758 1.41406 104.23 1.88542 104.23C2.35677 104.23 2.35677 103.758 2.35677 103.523C2.35677 103.051 2.12109 102.816 1.88542 102.816Z" fill="url(#paint135_radial_28049_41893)"/>
<path d="M12.2554 80.1904C11.784 80.1904 11.3127 79.9548 10.8413 79.7191C10.1343 79.012 10.1343 77.8337 10.8413 77.1266C11.3127 76.891 11.784 76.6553 12.2554 76.6553C12.7267 76.6553 13.1981 76.891 13.4338 77.1266C13.9051 77.3623 14.1408 77.8337 14.1408 78.305C14.1408 79.012 13.9051 79.2477 13.4338 79.7191C13.1981 79.9548 12.7267 80.1904 12.2554 80.1904ZM11.784 78.0693C11.5483 78.305 11.5483 78.5407 11.784 78.7764C12.0197 79.012 12.491 79.012 12.7267 78.7764C12.7267 78.7764 12.9624 78.5407 12.9624 78.305C12.9624 78.0693 12.9624 78.0693 12.7267 77.8337C12.491 77.8337 12.0197 77.8337 11.784 78.0693Z" fill="url(#paint136_radial_28049_41893)"/>
<path d="M37.237 69.8206C36.2943 69.8206 35.3516 69.1136 35.3516 67.9352C35.3516 66.9925 36.0586 66.0498 37.237 66.0498C38.1797 66.0498 39.1224 66.7568 39.1224 67.9352C39.1224 69.1136 38.1797 69.8206 37.237 69.8206ZM37.237 67.4639C37.0013 67.4639 36.5299 67.6995 36.5299 68.1709C36.5299 68.4066 36.7656 68.8779 37.237 68.8779C37.4727 68.8779 37.944 68.6423 37.944 68.1709C37.944 67.6995 37.7083 67.4639 37.237 67.4639Z" fill="url(#paint137_radial_28049_41893)"/>
<path d="M62.4544 80.1904C61.9831 80.1904 61.5117 79.9548 61.276 79.7191C61.0404 79.4834 60.8047 79.012 60.8047 78.5407C60.8047 78.0693 61.0404 77.598 61.276 77.3623C61.9831 76.6553 63.1615 76.6553 63.8685 77.3623C64.5755 78.0693 64.5755 79.2477 63.8685 79.9548C63.3971 79.9548 62.9258 80.1904 62.4544 80.1904ZM61.9831 78.7764C62.2187 79.012 62.6901 79.012 62.9258 78.7764C63.1615 78.5407 63.1615 78.0693 62.9258 77.8337C62.6901 77.598 62.2187 77.598 61.9831 77.8337C61.9831 77.8337 61.7474 78.0693 61.7474 78.305C61.7474 78.5407 61.7474 78.7764 61.9831 78.7764Z" fill="url(#paint138_radial_28049_41893)"/>
<path d="M37.237 113.185C37.0013 113.185 36.7656 112.95 36.7656 112.714L35.3516 108.472L31.1094 110.593C30.8737 110.828 30.638 110.593 30.4023 110.593C30.1667 110.593 30.1667 110.121 30.4023 109.886L32.5234 105.644L28.0456 104.229C27.8099 104.229 27.5742 103.994 27.5742 103.758C27.5742 103.522 27.8099 103.287 28.0456 103.287L32.5234 101.873L30.4023 97.6305C30.1667 97.3949 30.4023 97.1592 30.4023 96.9235C30.638 96.6878 30.8737 96.6878 31.1094 96.9235L35.3516 98.5732L36.7656 94.0954C36.7656 93.8597 37.0013 93.624 37.237 93.624C37.4727 93.624 37.7083 93.8597 37.7083 94.0954L39.1224 98.5732L43.3646 96.4521C43.6003 96.2165 43.8359 96.4521 44.0716 96.4521C44.3073 96.6878 44.3073 96.9235 44.0716 97.1592L41.9505 101.401L46.4284 102.815C46.6641 102.815 46.8997 103.051 46.8997 103.287C46.8997 103.522 46.6641 103.758 46.4284 103.758L41.9505 105.172L44.0716 109.414C44.3073 109.65 44.0716 109.886 44.0716 110.121C43.8359 110.357 43.6003 110.357 43.3646 110.121L39.1224 108L37.7083 112.478C37.7083 113.185 37.4727 113.185 37.237 113.185ZM35.5872 106.822C36.0586 106.822 36.0586 107.058 36.0586 107.293L37.237 110.593L38.4154 107.293C38.4154 107.058 38.651 107.058 38.651 106.822C38.8867 106.822 38.8867 106.822 39.1224 106.822L42.1862 108.472L40.5365 105.408C40.5365 105.172 40.5365 105.172 40.5365 104.937C40.5365 104.701 40.7721 104.701 41.0078 104.701L44.3073 103.522L41.0078 102.344C40.7721 102.344 40.7721 102.108 40.5365 102.108C40.5365 101.873 40.5365 101.637 40.5365 101.637L42.1862 98.5732L39.1224 100.223C38.8867 100.223 38.8867 100.223 38.651 100.223C38.4154 100.223 38.4154 99.9873 38.4154 99.7516L37.237 96.2165L36.0586 99.5159C36.0586 99.7516 35.8229 99.7516 35.8229 99.9873C35.5872 99.9873 35.3516 99.9873 35.3516 99.9873L32.2878 98.3376L33.9375 101.401C33.9375 101.637 33.9375 101.637 33.9375 101.873C33.9375 102.108 33.7018 102.108 33.4661 102.108L30.1667 103.287L33.4661 104.465C33.7018 104.465 33.7018 104.701 33.9375 104.701C33.9375 104.937 33.9375 105.172 33.9375 105.172L32.2878 108.236L35.3516 106.586C35.3516 106.822 35.5872 106.822 35.5872 106.822Z" fill="url(#paint139_radial_28049_41893)"/>
</g>
<defs>
<radialGradient id="paint0_radial_28049_41893" cx="0" cy="0" r="1" gradientTransform="matrix(2.95844 3.31345 -2.95844 9.18844 93.0806 72.603)" gradientUnits="userSpaceOnUse">
<stop stop-color="#00427A"/>
<stop offset="1" stop-color="white"/>
</radialGradient>
<radialGradient id="paint1_radial_28049_41893" cx="0" cy="0" r="1" gradientTransform="matrix(4.46722 2.65245 -4.46722 7.35542 87.7554 73.668)" gradientUnits="userSpaceOnUse">
<stop stop-color="#00427A"/>
<stop offset="1" stop-color="white"/>
</radialGradient>
<radialGradient id="paint2_radial_28049_41893" cx="0" cy="0" r="1" gradientTransform="matrix(2.07091 4.30917 -2.07091 11.9496 86.3647 69.0039)" gradientUnits="userSpaceOnUse">
<stop stop-color="#00427A"/>
<stop offset="1" stop-color="white"/>
</radialGradient>
<radialGradient id="paint3_radial_28049_41893" cx="0" cy="0" r="1" gradientTransform="matrix(4.26016 2.33717 -4.26016 6.48113 87.4004 66.9521)" gradientUnits="userSpaceOnUse">
<stop stop-color="#00427A"/>
<stop offset="1" stop-color="white"/>
</radialGradient>
<radialGradient id="paint4_radial_28049_41893" cx="0" cy="0" r="1" gradientTransform="matrix(3.07678 3.83581 -3.07678 10.637 92.7256 67.6328)" gradientUnits="userSpaceOnUse">
<stop stop-color="#00427A"/>
<stop offset="1" stop-color="white"/>
</radialGradient>
<radialGradient id="paint5_radial_28049_41893" cx="0" cy="0" r="1" gradientTransform="matrix(4.54586 5.79854 -4.54586 16.0798 94.5005 73.1948)" gradientUnits="userSpaceOnUse">
<stop stop-color="#00427A"/>
<stop offset="1" stop-color="white"/>
</radialGradient>
<radialGradient id="paint6_radial_28049_41893" cx="0" cy="0" r="1" gradientTransform="matrix(7.544 3.83581 -7.544 10.637 85.3887 75.3247)" gradientUnits="userSpaceOnUse">
<stop stop-color="#00427A"/>
<stop offset="1" stop-color="white"/>
</radialGradient>
<radialGradient id="paint7_radial_28049_41893" cx="0" cy="0" r="1" gradientTransform="matrix(2.82339 7.43496 -2.82339 20.6177 83.6826 67.1104)" gradientUnits="userSpaceOnUse">
<stop stop-color="#00427A"/>
<stop offset="1" stop-color="white"/>
</radialGradient>
<radialGradient id="paint8_radial_28049_41893" cx="0" cy="0" r="1" gradientTransform="matrix(7.30735 3.25429 -7.30735 9.02438 84.915 64.2305)" gradientUnits="userSpaceOnUse">
<stop stop-color="#00427A"/>
<stop offset="1" stop-color="white"/>
</radialGradient>
<radialGradient id="paint9_radial_28049_41893" cx="0" cy="0" r="1" gradientTransform="matrix(5.13755 6.50856 -5.13755 18.0487 93.7905 65.0293)" gradientUnits="userSpaceOnUse">
<stop stop-color="#00427A"/>
<stop offset="1" stop-color="white"/>
</radialGradient>
<radialGradient id="paint10_radial_28049_41893" cx="0" cy="0" r="1" gradientTransform="matrix(6.34964 8.18472 -6.34964 22.6968 95.5654 73.501)" gradientUnits="userSpaceOnUse">
<stop stop-color="#00427A"/>
<stop offset="1" stop-color="white"/>
</radialGradient>
<radialGradient id="paint11_radial_28049_41893" cx="0" cy="0" r="1" gradientTransform="matrix(10.8871 4.82225 -10.8871 13.3725 83.1401 77.3369)" gradientUnits="userSpaceOnUse">
<stop stop-color="#00427A"/>
<stop offset="1" stop-color="white"/>
</radialGradient>
<radialGradient id="paint12_radial_28049_41893" cx="0" cy="0" r="1" gradientTransform="matrix(2.77076 10.8575 -2.77076 30.1085 81.0791 65.0293)" gradientUnits="userSpaceOnUse">
<stop stop-color="#00427A"/>
<stop offset="1" stop-color="white"/>
</radialGradient>
<radialGradient id="paint13_radial_28049_41893" cx="0" cy="0" r="1" gradientTransform="matrix(10.6208 3.4808 -10.6208 9.65252 82.4302 61.312)" gradientUnits="userSpaceOnUse">
<stop stop-color="#00427A"/>
<stop offset="1" stop-color="white"/>
</radialGradient>
<radialGradient id="paint14_radial_28049_41893" cx="0" cy="0" r="1" gradientTransform="matrix(7.38596 9.43742 -7.38595 26.1706 94.6187 62.4263)" gradientUnits="userSpaceOnUse">
<stop stop-color="#00427A"/>
<stop offset="1" stop-color="white"/>
</radialGradient>
<radialGradient id="paint15_radial_28049_41893" cx="0" cy="0" r="1" gradientTransform="matrix(4.66417 5.79854 -4.66417 16.0798 98.1689 75.9165)" gradientUnits="userSpaceOnUse">
<stop stop-color="#00427A"/>
<stop offset="1" stop-color="white"/>
</radialGradient>
<radialGradient id="paint16_radial_28049_41893" cx="0" cy="0" r="1" gradientTransform="matrix(7.78069 3.75721 -7.78069 10.419 84.2051 79.4668)" gradientUnits="userSpaceOnUse">
<stop stop-color="#00427A"/>
<stop offset="1" stop-color="white"/>
</radialGradient>
<radialGradient id="paint17_radial_28049_41893" cx="0" cy="0" r="1" gradientTransform="matrix(2.65246 7.5736 -2.65245 21.0021 79.186 66.5679)" gradientUnits="userSpaceOnUse">
<stop stop-color="#00427A"/>
<stop offset="1" stop-color="white"/>
</radialGradient>
<radialGradient id="paint18_radial_28049_41893" cx="0" cy="0" r="1" gradientTransform="matrix(7.54404 2.98145 -7.54404 8.26777 83.2583 59.8521)" gradientUnits="userSpaceOnUse">
<stop stop-color="#00427A"/>
<stop offset="1" stop-color="white"/>
</radialGradient>
<radialGradient id="paint19_radial_28049_41893" cx="0" cy="0" r="1" gradientTransform="matrix(5.25586 6.74523 -5.25586 18.705 97.2222 62.7812)" gradientUnits="userSpaceOnUse">
<stop stop-color="#00427A"/>
<stop offset="1" stop-color="white"/>
</radialGradient>
<radialGradient id="paint20_radial_28049_41893" cx="0" cy="0" r="1" gradientTransform="matrix(2.84009 3.03617 -2.84009 8.41951 100.417 78.52)" gradientUnits="userSpaceOnUse">
<stop stop-color="#00427A"/>
<stop offset="1" stop-color="white"/>
</radialGradient>
<radialGradient id="paint21_radial_28049_41893" cx="0" cy="0" r="1" gradientTransform="matrix(3.92458 2.60343 -3.92458 7.2195 85.6548 81.3599)" gradientUnits="userSpaceOnUse">
<stop stop-color="#00427A"/>
<stop offset="1" stop-color="white"/>
</radialGradient>
<radialGradient id="paint22_radial_28049_41893" cx="0" cy="0" r="1" gradientTransform="matrix(2.18926 3.87556 -2.18926 10.7472 77.3711 68.2544)" gradientUnits="userSpaceOnUse">
<stop stop-color="#00427A"/>
<stop offset="1" stop-color="white"/>
</radialGradient>
<radialGradient id="paint23_radial_28049_41893" cx="0" cy="0" r="1" gradientTransform="matrix(3.83583 2.36675 -3.83583 6.56317 84.4419 58.521)" gradientUnits="userSpaceOnUse">
<stop stop-color="#00427A"/>
<stop offset="1" stop-color="white"/>
</radialGradient>
<radialGradient id="paint24_radial_28049_41893" cx="0" cy="0" r="1" gradientTransform="matrix(2.95844 3.48081 -2.95844 9.65253 99.7075 63.6094)" gradientUnits="userSpaceOnUse">
<stop stop-color="#00427A"/>
<stop offset="1" stop-color="white"/>
</radialGradient>
<radialGradient id="paint25_radial_28049_41893" cx="0" cy="0" r="1" gradientTransform="matrix(13.9638 10.8871 -13.9638 30.1906 90.832 71.3013)" gradientUnits="userSpaceOnUse">
<stop stop-color="#00427A"/>
<stop offset="1" stop-color="white"/>
</radialGradient>
<radialGradient id="paint26_radial_28049_41893" cx="0" cy="0" r="1" gradientTransform="matrix(5.61086 14.3021 -5.61086 39.6608 85.813 71.4893)" gradientUnits="userSpaceOnUse">
<stop stop-color="#00427A"/>
<stop offset="1" stop-color="white"/>
</radialGradient>
<radialGradient id="paint27_radial_28049_41893" cx="0" cy="0" r="1" gradientTransform="matrix(16.2123 3.28386 -16.2123 9.10638 74.8564 68.6094)" gradientUnits="userSpaceOnUse">
<stop stop-color="#00427A"/>
<stop offset="1" stop-color="white"/>
</radialGradient>
<radialGradient id="paint28_radial_28049_41893" cx="0" cy="0" r="1" gradientTransform="matrix(6.74525 15.2655 -6.74525 42.3324 84.5601 56.5093)" gradientUnits="userSpaceOnUse">
<stop stop-color="#00427A"/>
<stop offset="1" stop-color="white"/>
</radialGradient>
<radialGradient id="paint29_radial_28049_41893" cx="0" cy="0" r="1" gradientTransform="matrix(12.9875 8.45098 -12.9875 23.4352 90.8618 63.3237)" gradientUnits="userSpaceOnUse">
<stop stop-color="#00427A"/>
<stop offset="1" stop-color="white"/>
</radialGradient>
<radialGradient id="paint30_radial_28049_41893" cx="0" cy="0" r="1" gradientTransform="matrix(18.252 18.2811 -18.252 50.6949 79.1782 4.50684)" gradientUnits="userSpaceOnUse">
<stop stop-color="#00427A"/>
<stop offset="1" stop-color="white"/>
</radialGradient>
<radialGradient id="paint31_radial_28049_41893" cx="0" cy="0" r="1" gradientTransform="matrix(22.8336 12.0582 -22.8336 33.4384 79.2197 22.2759)" gradientUnits="userSpaceOnUse">
<stop stop-color="#00427A"/>
<stop offset="1" stop-color="white"/>
</radialGradient>
<radialGradient id="paint32_radial_28049_41893" cx="0" cy="0" r="1" gradientTransform="matrix(4.66504 25.1912 -4.66504 69.8571 75.0669 22.438)" gradientUnits="userSpaceOnUse">
<stop stop-color="#00427A"/>
<stop offset="1" stop-color="white"/>
</radialGradient>
<radialGradient id="paint33_radial_28049_41893" cx="0" cy="0" r="1" gradientTransform="matrix(25.1912 4.66504 -25.1912 12.9365 54.3076 22.3213)" gradientUnits="userSpaceOnUse">
<stop stop-color="#00427A"/>
<stop offset="1" stop-color="white"/>
</radialGradient>
<radialGradient id="paint34_radial_28049_41893" cx="0" cy="0" r="1" gradientTransform="matrix(12.104 22.7878 -12.104 63.1923 67.6738 0)" gradientUnits="userSpaceOnUse">
<stop stop-color="#00427A"/>
<stop offset="1" stop-color="white"/>
</radialGradient>
<radialGradient id="paint35_radial_28049_41893" cx="0" cy="0" r="1" gradientTransform="matrix(5.87706 5.87961 -5.87706 16.3046 79.4531 16.5581)" gradientUnits="userSpaceOnUse">
<stop stop-color="#00427A"/>
<stop offset="1" stop-color="white"/>
</radialGradient>
<radialGradient id="paint36_radial_28049_41893" cx="0" cy="0" r="1" gradientTransform="matrix(6.21219 4.86914 -6.21219 13.5025 80.5176 21.7676)" gradientUnits="userSpaceOnUse">
<stop stop-color="#00427A"/>
<stop offset="1" stop-color="white"/>
</radialGradient>
<radialGradient id="paint37_radial_28049_41893" cx="0" cy="0" r="1" gradientTransform="matrix(4.74165 6.18118 -4.74165 17.1409 76.583 24.6538)" gradientUnits="userSpaceOnUse">
<stop stop-color="#00427A"/>
<stop offset="1" stop-color="white"/>
</radialGradient>
<radialGradient id="paint38_radial_28049_41893" cx="0" cy="0" r="1" gradientTransform="matrix(6.18117 4.82998 -6.18117 13.3939 71.2183 20.6401)" gradientUnits="userSpaceOnUse">
<stop stop-color="#00427A"/>
<stop offset="1" stop-color="white"/>
</radialGradient>
<radialGradient id="paint39_radial_28049_41893" cx="0" cy="0" r="1" gradientTransform="matrix(4.9566 6.22949 -4.9566 17.2748 75.3003 15.1587)" gradientUnits="userSpaceOnUse">
<stop stop-color="#00427A"/>
<stop offset="1" stop-color="white"/>
</radialGradient>
<radialGradient id="paint40_radial_28049_41893" cx="0" cy="0" r="1" gradientTransform="matrix(4.92931 4.92932 -4.92931 13.6693 80.751 16.459)" gradientUnits="userSpaceOnUse">
<stop stop-color="#00427A"/>
<stop offset="1" stop-color="white"/>
</radialGradient>
<radialGradient id="paint41_radial_28049_41893" cx="0" cy="0" r="1" gradientTransform="matrix(4.59416 6.06456 -4.59416 16.8174 82.4854 21.9712)" gradientUnits="userSpaceOnUse">
<stop stop-color="#00427A"/>
<stop offset="1" stop-color="white"/>
</radialGradient>
<radialGradient id="paint42_radial_28049_41893" cx="0" cy="0" r="1" gradientTransform="matrix(6.46189 3.70288 -6.46189 10.2683 75.3296 27.1323)" gradientUnits="userSpaceOnUse">
<stop stop-color="#00427A"/>
<stop offset="1" stop-color="white"/>
</radialGradient>
<radialGradient id="paint43_radial_28049_41893" cx="0" cy="0" r="1" gradientTransform="matrix(3.83866 6.60767 -3.83866 18.3235 71.2866 20.1455)" gradientUnits="userSpaceOnUse">
<stop stop-color="#00427A"/>
<stop offset="1" stop-color="white"/>
</radialGradient>
<radialGradient id="paint44_radial_28049_41893" cx="0" cy="0" r="1" gradientTransform="matrix(6.11031 4.47754 -6.11031 12.4165 73.9717 15.1616)" gradientUnits="userSpaceOnUse">
<stop stop-color="#00427A"/>
<stop offset="1" stop-color="white"/>
</radialGradient>
<radialGradient id="paint45_radial_28049_41893" cx="0" cy="0" r="1" gradientTransform="matrix(13.2703 13.2245 -13.2703 36.6725 82.019 6.88086)" gradientUnits="userSpaceOnUse">
<stop stop-color="#00427A"/>
<stop offset="1" stop-color="white"/>
</radialGradient>
<radialGradient id="paint46_radial_28049_41893" cx="0" cy="0" r="1" gradientTransform="matrix(8.71781 16.4151 -8.71781 45.5203 86.4966 20.251)" gradientUnits="userSpaceOnUse">
<stop stop-color="#00427A"/>
<stop offset="1" stop-color="white"/>
</radialGradient>
<radialGradient id="paint47_radial_28049_41893" cx="0" cy="0" r="1" gradientTransform="matrix(18.1847 5.94793 -18.1847 16.494 68.272 31.3013)" gradientUnits="userSpaceOnUse">
<stop stop-color="#00427A"/>
<stop offset="1" stop-color="white"/>
</radialGradient>
<radialGradient id="paint48_radial_28049_41893" cx="0" cy="0" r="1" gradientTransform="matrix(5.87875 18.1536 -5.87875 50.3414 64.7275 15.48)" gradientUnits="userSpaceOnUse">
<stop stop-color="#00427A"/>
<stop offset="1" stop-color="white"/>
</radialGradient>
<radialGradient id="paint49_radial_28049_41893" cx="0" cy="0" r="1" gradientTransform="matrix(16.2693 8.80527 -16.2693 24.4176 65.2705 6.63525)" gradientUnits="userSpaceOnUse">
<stop stop-color="#00427A"/>
<stop offset="1" stop-color="white"/>
</radialGradient>
<radialGradient id="paint50_radial_28049_41893" cx="0" cy="0" r="1" gradientTransform="matrix(13.9095 13.9095 -13.9095 38.5721 83.8999 4.21338)" gradientUnits="userSpaceOnUse">
<stop stop-color="#00427A"/>
<stop offset="1" stop-color="white"/>
</radialGradient>
<radialGradient id="paint51_radial_28049_41893" cx="0" cy="0" r="1" gradientTransform="matrix(9.87321 17.2206 -9.8732 47.7541 88.479 21.3115)" gradientUnits="userSpaceOnUse">
<stop stop-color="#00427A"/>
<stop offset="1" stop-color="white"/>
</radialGradient>
<radialGradient id="paint52_radial_28049_41893" cx="0" cy="0" r="1" gradientTransform="matrix(18.9975 7.74563 -18.9975 21.4792 67.3242 32.6528)" gradientUnits="userSpaceOnUse">
<stop stop-color="#00427A"/>
<stop offset="1" stop-color="white"/>
</radialGradient>
<radialGradient id="paint53_radial_28049_41893" cx="0" cy="0" r="1" gradientTransform="matrix(7.55153 18.9809 -7.55153 52.6354 61.6841 15.5864)" gradientUnits="userSpaceOnUse">
<stop stop-color="#00427A"/>
<stop offset="1" stop-color="white"/>
</radialGradient>
<radialGradient id="paint54_radial_28049_41893" cx="0" cy="0" r="1" gradientTransform="matrix(17.2206 9.8732 -17.2206 27.3791 63.521 3.58447)" gradientUnits="userSpaceOnUse">
<stop stop-color="#00427A"/>
<stop offset="1" stop-color="white"/>
</radialGradient>
<radialGradient id="paint55_radial_28049_41893" cx="0" cy="0" r="1" gradientTransform="matrix(11.546 11.6626 -11.546 32.3412 86.6133 3.77783)" gradientUnits="userSpaceOnUse">
<stop stop-color="#00427A"/>
<stop offset="1" stop-color="white"/>
</radialGradient>
<radialGradient id="paint56_radial_28049_41893" cx="0" cy="0" r="1" gradientTransform="matrix(8.79527 14.5099 -8.79527 40.2371 90.8115 23.6729)" gradientUnits="userSpaceOnUse">
<stop stop-color="#00427A"/>
<stop offset="1" stop-color="white"/>
</radialGradient>
<radialGradient id="paint57_radial_28049_41893" cx="0" cy="0" r="1" gradientTransform="matrix(15.9652 7.04587 -15.9652 19.5387 68.4902 35.3354)" gradientUnits="userSpaceOnUse">
<stop stop-color="#00427A"/>
<stop offset="1" stop-color="white"/>
</radialGradient>
<radialGradient id="paint58_radial_28049_41893" cx="0" cy="0" r="1" gradientTransform="matrix(6.96842 15.832 -6.96842 43.9032 59.585 17.5688)" gradientUnits="userSpaceOnUse">
<stop stop-color="#00427A"/>
<stop offset="1" stop-color="white"/>
</radialGradient>
<radialGradient id="paint59_radial_28049_41893" cx="0" cy="0" r="1" gradientTransform="matrix(14.336 8.82356 -14.336 24.4684 63.9565 2.30176)" gradientUnits="userSpaceOnUse">
<stop stop-color="#00427A"/>
<stop offset="1" stop-color="white"/>
</radialGradient>
<radialGradient id="paint60_radial_28049_41893" cx="0" cy="0" r="1" gradientTransform="matrix(8.86359 8.86358 -8.86359 24.5793 89.7622 3.54443)" gradientUnits="userSpaceOnUse">
<stop stop-color="#00427A"/>
<stop offset="1" stop-color="white"/>
</radialGradient>
<radialGradient id="paint61_radial_28049_41893" cx="0" cy="0" r="1" gradientTransform="matrix(7.04332 11.0086 -7.04331 30.5276 93.9604 26.4741)" gradientUnits="userSpaceOnUse">
<stop stop-color="#00427A"/>
<stop offset="1" stop-color="white"/>
</radialGradient>
<radialGradient id="paint62_radial_28049_41893" cx="0" cy="0" r="1" gradientTransform="matrix(12.1929 5.76299 -12.1929 15.9812 70.123 38.7173)" gradientUnits="userSpaceOnUse">
<stop stop-color="#00427A"/>
<stop offset="1" stop-color="white"/>
</radialGradient>
<radialGradient id="paint63_radial_28049_41893" cx="0" cy="0" r="1" gradientTransform="matrix(5.56891 11.9833 -5.56891 33.2306 57.4858 19.9014)" gradientUnits="userSpaceOnUse">
<stop stop-color="#00427A"/>
<stop offset="1" stop-color="white"/>
</radialGradient>
<radialGradient id="paint64_radial_28049_41893" cx="0" cy="0" r="1" gradientTransform="matrix(11.0086 6.92669 -11.0086 19.2082 64.4541 1.16602)" gradientUnits="userSpaceOnUse">
<stop stop-color="#00427A"/>
<stop offset="1" stop-color="white"/>
</radialGradient>
<radialGradient id="paint65_radial_28049_41893" cx="0" cy="0" r="1" gradientTransform="matrix(4.31518 4.31516 -4.31518 11.9663 93.144 4.47754)" gradientUnits="userSpaceOnUse">
<stop stop-color="#00427A"/>
<stop offset="1" stop-color="white"/>
</radialGradient>
<radialGradient id="paint66_radial_28049_41893" cx="0" cy="0" r="1" gradientTransform="matrix(4.11293 5.16257 -4.11293 14.3162 96.7598 30.3374)" gradientUnits="userSpaceOnUse">
<stop stop-color="#00427A"/>
<stop offset="1" stop-color="white"/>
</radialGradient>
<radialGradient id="paint67_radial_28049_41893" cx="0" cy="0" r="1" gradientTransform="matrix(5.51801 3.84866 -5.51801 10.6726 73.2412 41.7979)" gradientUnits="userSpaceOnUse">
<stop stop-color="#00427A"/>
<stop offset="1" stop-color="white"/>
</radialGradient>
<radialGradient id="paint68_radial_28049_41893" cx="0" cy="0" r="1" gradientTransform="matrix(3.69202 5.4414 -3.69202 15.0894 56.3301 23.4106)" gradientUnits="userSpaceOnUse">
<stop stop-color="#00427A"/>
<stop offset="1" stop-color="white"/>
</radialGradient>
<radialGradient id="paint69_radial_28049_41893" cx="0" cy="0" r="1" gradientTransform="matrix(5.17729 4.19854 -5.17729 11.6428 66.7407 0.978516)" gradientUnits="userSpaceOnUse">
<stop stop-color="#00427A"/>
<stop offset="1" stop-color="white"/>
</radialGradient>
<radialGradient id="paint70_radial_28049_41893" cx="0" cy="0" r="1" gradientTransform="matrix(8.66692 8.59031 -8.66692 23.8215 81.4048 12.2148)" gradientUnits="userSpaceOnUse">
<stop stop-color="#00427A"/>
<stop offset="1" stop-color="white"/>
</radialGradient>
<radialGradient id="paint71_radial_28049_41893" cx="0" cy="0" r="1" gradientTransform="matrix(5.95366 10.6896 -5.95366 29.643 84.2349 21.1953)" gradientUnits="userSpaceOnUse">
<stop stop-color="#00427A"/>
<stop offset="1" stop-color="white"/>
</radialGradient>
<radialGradient id="paint72_radial_28049_41893" cx="0" cy="0" r="1" gradientTransform="matrix(11.825 2.56577 -11.825 7.11507 72.1514 29.9019)" gradientUnits="userSpaceOnUse">
<stop stop-color="#00427A"/>
<stop offset="1" stop-color="white"/>
</radialGradient>
<radialGradient id="paint73_radial_28049_41893" cx="0" cy="0" r="1" gradientTransform="matrix(2.52593 11.825 -2.52593 32.7915 69.54 17.9604)" gradientUnits="userSpaceOnUse">
<stop stop-color="#00427A"/>
<stop offset="1" stop-color="white"/>
</radialGradient>
<radialGradient id="paint74_radial_28049_41893" cx="0" cy="0" r="1" gradientTransform="matrix(10.6187 5.90791 -10.6187 16.3831 70.0063 11.8652)" gradientUnits="userSpaceOnUse">
<stop stop-color="#00427A"/>
<stop offset="1" stop-color="white"/>
</radialGradient>
<radialGradient id="paint75_radial_28049_41893" cx="0" cy="0" r="1" gradientTransform="matrix(37.944 1.41406 -37.944 3.92128 36.7656 102.58)" gradientUnits="userSpaceOnUse">
<stop stop-color="#00427A"/>
<stop offset="1" stop-color="white"/>
</radialGradient>
<radialGradient id="paint76_radial_28049_41893" cx="0" cy="0" r="1" gradientTransform="matrix(26.985 27.0439 -26.985 74.9947 36.8247 102.874)" gradientUnits="userSpaceOnUse">
<stop stop-color="#00427A"/>
<stop offset="1" stop-color="white"/>
</radialGradient>
<radialGradient id="paint77_radial_28049_41893" cx="0" cy="0" r="1" gradientTransform="matrix(1.41406 37.944 -1.41406 105.221 36.5298 102.815)" gradientUnits="userSpaceOnUse">
<stop stop-color="#00427A"/>
<stop offset="1" stop-color="white"/>
</radialGradient>
<radialGradient id="paint78_radial_28049_41893" cx="0" cy="0" r="1" gradientTransform="matrix(27.2207 26.8083 -27.2207 74.3412 10.6646 103.11)" gradientUnits="userSpaceOnUse">
<stop stop-color="#00427A"/>
<stop offset="1" stop-color="white"/>
</radialGradient>
<radialGradient id="paint79_radial_28049_41893" cx="0" cy="0" r="1" gradientTransform="matrix(37.944 1.41406 -37.944 3.92128 0 102.58)" gradientUnits="userSpaceOnUse">
<stop stop-color="#00427A"/>
<stop offset="1" stop-color="white"/>
</radialGradient>
<radialGradient id="paint80_radial_28049_41893" cx="0" cy="0" r="1" gradientTransform="matrix(26.985 27.0439 -26.985 74.9947 10.6646 76.9497)" gradientUnits="userSpaceOnUse">
<stop stop-color="#00427A"/>
<stop offset="1" stop-color="white"/>
</radialGradient>
<radialGradient id="paint81_radial_28049_41893" cx="0" cy="0" r="1" gradientTransform="matrix(1.41406 37.944 -1.41406 105.221 36.5298 66.0498)" gradientUnits="userSpaceOnUse">
<stop stop-color="#00427A"/>
<stop offset="1" stop-color="white"/>
</radialGradient>
<radialGradient id="paint82_radial_28049_41893" cx="0" cy="0" r="1" gradientTransform="matrix(26.985 27.0439 -26.985 74.9947 36.8247 76.9497)" gradientUnits="userSpaceOnUse">
<stop stop-color="#00427A"/>
<stop offset="1" stop-color="white"/>
</radialGradient>
<radialGradient id="paint83_radial_28049_41893" cx="0" cy="0" r="1" gradientTransform="matrix(5.75387 6.4609 -5.75387 17.9165 45.957 100.597)" gradientUnits="userSpaceOnUse">
<stop stop-color="#00427A"/>
<stop offset="1" stop-color="white"/>
</radialGradient>
<radialGradient id="paint84_radial_28049_41893" cx="0" cy="0" r="1" gradientTransform="matrix(6.1276 6.1276 -6.1276 16.9923 43.1289 109.414)" gradientUnits="userSpaceOnUse">
<stop stop-color="#00427A"/>
<stop offset="1" stop-color="white"/>
</radialGradient>
<radialGradient id="paint85_radial_28049_41893" cx="0" cy="0" r="1" gradientTransform="matrix(6.32284 5.75387 -6.32284 15.9559 34.0757 112.007)" gradientUnits="userSpaceOnUse">
<stop stop-color="#00427A"/>
<stop offset="1" stop-color="white"/>
</radialGradient>
<radialGradient id="paint86_radial_28049_41893" cx="0" cy="0" r="1" gradientTransform="matrix(6.1276 6.1276 -6.1276 16.9923 25.2173 109.414)" gradientUnits="userSpaceOnUse">
<stop stop-color="#00427A"/>
<stop offset="1" stop-color="white"/>
</radialGradient>
<radialGradient id="paint87_radial_28049_41893" cx="0" cy="0" r="1" gradientTransform="matrix(5.75387 6.69657 -5.75387 18.5701 23.2344 100.125)" gradientUnits="userSpaceOnUse">
<stop stop-color="#00427A"/>
<stop offset="1" stop-color="white"/>
</radialGradient>
<radialGradient id="paint88_radial_28049_41893" cx="0" cy="0" r="1" gradientTransform="matrix(6.1276 6.1276 -6.1276 16.9923 25.2173 91.5029)" gradientUnits="userSpaceOnUse">
<stop stop-color="#00427A"/>
<stop offset="1" stop-color="white"/>
</radialGradient>
<radialGradient id="paint89_radial_28049_41893" cx="0" cy="0" r="1" gradientTransform="matrix(6.79419 5.75387 -6.79419 15.9559 34.0757 89.2842)" gradientUnits="userSpaceOnUse">
<stop stop-color="#00427A"/>
<stop offset="1" stop-color="white"/>
</radialGradient>
<radialGradient id="paint90_radial_28049_41893" cx="0" cy="0" r="1" gradientTransform="matrix(6.1276 6.1276 -6.1276 16.9923 43.1289 91.5029)" gradientUnits="userSpaceOnUse">
<stop stop-color="#00427A"/>
<stop offset="1" stop-color="white"/>
</radialGradient>
<radialGradient id="paint91_radial_28049_41893" cx="0" cy="0" r="1" gradientTransform="matrix(4.75224 12.3528 -4.75224 34.2553 50.7295 97.2969)" gradientUnits="userSpaceOnUse">
<stop stop-color="#00427A"/>
<stop offset="1" stop-color="white"/>
</radialGradient>
<radialGradient id="paint92_radial_28049_41893" cx="0" cy="0" r="1" gradientTransform="matrix(8.72004 8.72005 -8.72004 24.1813 45.0142 111.535)" gradientUnits="userSpaceOnUse">
<stop stop-color="#00427A"/>
<stop offset="1" stop-color="white"/>
</radialGradient>
<radialGradient id="paint93_radial_28049_41893" cx="0" cy="0" r="1" gradientTransform="matrix(12.2148 4.75224 -12.2148 13.1783 31.0117 116.779)" gradientUnits="userSpaceOnUse">
<stop stop-color="#00427A"/>
<stop offset="1" stop-color="white"/>
</radialGradient>
<radialGradient id="paint94_radial_28049_41893" cx="0" cy="0" r="1" gradientTransform="matrix(8.97697 8.95573 -8.97697 24.8349 20.2681 111.3)" gradientUnits="userSpaceOnUse">
<stop stop-color="#00427A"/>
<stop offset="1" stop-color="white"/>
</radialGradient>
<radialGradient id="paint95_radial_28049_41893" cx="0" cy="0" r="1" gradientTransform="matrix(4.75224 12.3528 -4.75224 34.2553 19.4634 97.0615)" gradientUnits="userSpaceOnUse">
<stop stop-color="#00427A"/>
<stop offset="1" stop-color="white"/>
</radialGradient>
<radialGradient id="paint96_radial_28049_41893" cx="0" cy="0" r="1" gradientTransform="matrix(8.95572 8.95572 -8.95572 24.8349 20.5039 86.7896)" gradientUnits="userSpaceOnUse">
<stop stop-color="#00427A"/>
<stop offset="1" stop-color="white"/>
</radialGradient>
<radialGradient id="paint97_radial_28049_41893" cx="0" cy="0" r="1" gradientTransform="matrix(12.2148 4.57548 -12.2148 12.6881 31.2471 85.5132)" gradientUnits="userSpaceOnUse">
<stop stop-color="#00427A"/>
<stop offset="1" stop-color="white"/>
</radialGradient>
<radialGradient id="paint98_radial_28049_41893" cx="0" cy="0" r="1" gradientTransform="matrix(8.95572 8.95572 -8.95572 24.8349 45.25 86.7896)" gradientUnits="userSpaceOnUse">
<stop stop-color="#00427A"/>
<stop offset="1" stop-color="white"/>
</radialGradient>
<radialGradient id="paint99_radial_28049_41893" cx="0" cy="0" r="1" gradientTransform="matrix(7.1662 17.2044 -7.16619 47.7091 53.793 94.8022)" gradientUnits="userSpaceOnUse">
<stop stop-color="#00427A"/>
<stop offset="1" stop-color="white"/>
</radialGradient>
<radialGradient id="paint100_radial_28049_41893" cx="0" cy="0" r="1" gradientTransform="matrix(12.4909 12.4909 -12.4909 34.6381 47.1353 113.421)" gradientUnits="userSpaceOnUse">
<stop stop-color="#00427A"/>
<stop offset="1" stop-color="white"/>
</radialGradient>
<radialGradient id="paint101_radial_28049_41893" cx="0" cy="0" r="1" gradientTransform="matrix(17.3592 7.01139 -17.3592 19.4431 28.8335 119.843)" gradientUnits="userSpaceOnUse">
<stop stop-color="#00427A"/>
<stop offset="1" stop-color="white"/>
</radialGradient>
<radialGradient id="paint102_radial_28049_41893" cx="0" cy="0" r="1" gradientTransform="matrix(12.5833 12.4909 -12.5833 34.6381 14.8477 113.421)" gradientUnits="userSpaceOnUse">
<stop stop-color="#00427A"/>
<stop offset="1" stop-color="white"/>
</radialGradient>
<radialGradient id="paint103_radial_28049_41893" cx="0" cy="0" r="1" gradientTransform="matrix(7.16619 17.1235 -7.16619 47.4848 13.9858 94.8833)" gradientUnits="userSpaceOnUse">
<stop stop-color="#00427A"/>
<stop offset="1" stop-color="white"/>
</radialGradient>
<radialGradient id="paint104_radial_28049_41893" cx="0" cy="0" r="1" gradientTransform="matrix(12.4909 12.4909 -12.4909 34.6381 14.8477 81.1328)" gradientUnits="userSpaceOnUse">
<stop stop-color="#00427A"/>
<stop offset="1" stop-color="white"/>
</radialGradient>
<radialGradient id="paint105_radial_28049_41893" cx="0" cy="0" r="1" gradientTransform="matrix(17.3592 6.98944 -17.3592 19.3822 28.5166 80.0356)" gradientUnits="userSpaceOnUse">
<stop stop-color="#00427A"/>
<stop offset="1" stop-color="white"/>
</radialGradient>
<radialGradient id="paint106_radial_28049_41893" cx="0" cy="0" r="1" gradientTransform="matrix(12.4909 12.4909 -12.4909 34.6381 47.1353 81.1328)" gradientUnits="userSpaceOnUse">
<stop stop-color="#00427A"/>
<stop offset="1" stop-color="white"/>
</radialGradient>
<radialGradient id="paint107_radial_28049_41893" cx="0" cy="0" r="1" gradientTransform="matrix(4.47786 19.3255 -4.47786 53.591 59.3906 93.8599)" gradientUnits="userSpaceOnUse">
<stop stop-color="#00427A"/>
<stop offset="1" stop-color="white"/>
</radialGradient>
<radialGradient id="paint108_radial_28049_41893" cx="0" cy="0" r="1" gradientTransform="matrix(13.8645 13.7669 -13.8645 38.1765 48.6875 114.973)" gradientUnits="userSpaceOnUse">
<stop stop-color="#00427A"/>
<stop offset="1" stop-color="white"/>
</radialGradient>
<radialGradient id="paint109_radial_28049_41893" cx="0" cy="0" r="1" gradientTransform="matrix(19.3255 4.47786 -19.3255 12.4174 27.8101 125.44)" gradientUnits="userSpaceOnUse">
<stop stop-color="#00427A"/>
<stop offset="1" stop-color="white"/>
</radialGradient>
<radialGradient id="paint110_radial_28049_41893" cx="0" cy="0" r="1" gradientTransform="matrix(13.8645 13.7669 -13.8645 38.1765 11.9219 114.973)" gradientUnits="userSpaceOnUse">
<stop stop-color="#00427A"/>
<stop offset="1" stop-color="white"/>
</radialGradient>
<radialGradient id="paint111_radial_28049_41893" cx="0" cy="0" r="1" gradientTransform="matrix(4.33464 18.8542 -4.33464 52.2839 10.7485 94.3311)" gradientUnits="userSpaceOnUse">
<stop stop-color="#00427A"/>
<stop offset="1" stop-color="white"/>
</radialGradient>
<radialGradient id="paint112_radial_28049_41893" cx="0" cy="0" r="1" gradientTransform="matrix(14.0026 13.7669 -14.0026 38.1766 11.9219 78.4429)" gradientUnits="userSpaceOnUse">
<stop stop-color="#00427A"/>
<stop offset="1" stop-color="white"/>
</radialGradient>
<radialGradient id="paint113_radial_28049_41893" cx="0" cy="0" r="1" gradientTransform="matrix(18.8542 4.47786 -18.8542 12.4174 27.5742 76.8911)" gradientUnits="userSpaceOnUse">
<stop stop-color="#00427A"/>
<stop offset="1" stop-color="white"/>
</radialGradient>
<radialGradient id="paint114_radial_28049_41893" cx="0" cy="0" r="1" gradientTransform="matrix(13.8645 13.7669 -13.8645 38.1766 48.6875 78.4429)" gradientUnits="userSpaceOnUse">
<stop stop-color="#00427A"/>
<stop offset="1" stop-color="white"/>
</radialGradient>
<radialGradient id="paint115_radial_28049_41893" cx="0" cy="0" r="1" gradientTransform="matrix(3.53515 14.612 -3.53515 40.52 63.397 95.9805)" gradientUnits="userSpaceOnUse">
<stop stop-color="#00427A"/>
<stop offset="1" stop-color="white"/>
</radialGradient>
<radialGradient id="paint116_radial_28049_41893" cx="0" cy="0" r="1" gradientTransform="matrix(10.3294 10.2317 -10.3294 28.3733 52.6938 118.979)" gradientUnits="userSpaceOnUse">
<stop stop-color="#00427A"/>
<stop offset="1" stop-color="white"/>
</radialGradient>
<radialGradient id="paint117_radial_28049_41893" cx="0" cy="0" r="1" gradientTransform="matrix(14.612 3.77083 -14.612 10.4568 30.167 129.211)" gradientUnits="userSpaceOnUse">
<stop stop-color="#00427A"/>
<stop offset="1" stop-color="white"/>
</radialGradient>
<radialGradient id="paint118_radial_28049_41893" cx="0" cy="0" r="1" gradientTransform="matrix(10.6222 10.4674 -10.6222 29.0269 11.6289 118.744)" gradientUnits="userSpaceOnUse">
<stop stop-color="#00427A"/>
<stop offset="1" stop-color="white"/>
</radialGradient>
<radialGradient id="paint119_radial_28049_41893" cx="0" cy="0" r="1" gradientTransform="matrix(3.62761 14.1406 -3.62761 39.2129 7.68506 96.4517)" gradientUnits="userSpaceOnUse">
<stop stop-color="#00427A"/>
<stop offset="1" stop-color="white"/>
</radialGradient>
<radialGradient id="paint120_radial_28049_41893" cx="0" cy="0" r="1" gradientTransform="matrix(10.3294 10.2317 -10.3293 28.3733 11.6865 77.9717)" gradientUnits="userSpaceOnUse">
<stop stop-color="#00427A"/>
<stop offset="1" stop-color="white"/>
</radialGradient>
<radialGradient id="paint121_radial_28049_41893" cx="0" cy="0" r="1" gradientTransform="matrix(14.1406 3.53515 -14.1406 9.80324 30.167 73.8271)" gradientUnits="userSpaceOnUse">
<stop stop-color="#00427A"/>
<stop offset="1" stop-color="white"/>
</radialGradient>
<radialGradient id="paint122_radial_28049_41893" cx="0" cy="0" r="1" gradientTransform="matrix(10.565 10.2317 -10.565 28.3733 52.458 77.9717)" gradientUnits="userSpaceOnUse">
<stop stop-color="#00427A"/>
<stop offset="1" stop-color="white"/>
</radialGradient>
<radialGradient id="paint123_radial_28049_41893" cx="0" cy="0" r="1" gradientTransform="matrix(4.8903 6.54004 -4.8903 18.136 66.2251 100.282)" gradientUnits="userSpaceOnUse">
<stop stop-color="#00427A"/>
<stop offset="1" stop-color="white"/>
</radialGradient>
<radialGradient id="paint124_radial_28049_41893" cx="0" cy="0" r="1" gradientTransform="matrix(5.65625 5.65625 -5.65625 15.6852 57.5054 123.791)" gradientUnits="userSpaceOnUse">
<stop stop-color="#00427A"/>
<stop offset="1" stop-color="white"/>
</radialGradient>
<radialGradient id="paint125_radial_28049_41893" cx="0" cy="0" r="1" gradientTransform="matrix(6.48112 4.94922 -6.48112 13.7245 33.9966 132.275)" gradientUnits="userSpaceOnUse">
<stop stop-color="#00427A"/>
<stop offset="1" stop-color="white"/>
</radialGradient>
<radialGradient id="paint126_radial_28049_41893" cx="0" cy="0" r="1" gradientTransform="matrix(5.65625 5.42057 -5.65625 15.0316 11.3125 124.026)" gradientUnits="userSpaceOnUse">
<stop stop-color="#00427A"/>
<stop offset="1" stop-color="white"/>
</radialGradient>
<radialGradient id="paint127_radial_28049_41893" cx="0" cy="0" r="1" gradientTransform="matrix(4.8903 6.54004 -4.8903 18.136 3.59424 100.282)" gradientUnits="userSpaceOnUse">
<stop stop-color="#00427A"/>
<stop offset="1" stop-color="white"/>
</radialGradient>
<radialGradient id="paint128_radial_28049_41893" cx="0" cy="0" r="1" gradientTransform="matrix(5.42057 5.65625 -5.42057 15.6852 11.3125 77.5977)" gradientUnits="userSpaceOnUse">
<stop stop-color="#00427A"/>
<stop offset="1" stop-color="white"/>
</radialGradient>
<radialGradient id="paint129_radial_28049_41893" cx="0" cy="0" r="1" gradientTransform="matrix(6.48112 4.8903 -6.48112 13.5611 33.9966 69.6436)" gradientUnits="userSpaceOnUse">
<stop stop-color="#00427A"/>
<stop offset="1" stop-color="white"/>
</radialGradient>
<radialGradient id="paint130_radial_28049_41893" cx="0" cy="0" r="1" gradientTransform="matrix(5.65625 5.65625 -5.65625 15.6852 57.5054 77.5977)" gradientUnits="userSpaceOnUse">
<stop stop-color="#00427A"/>
<stop offset="1" stop-color="white"/>
</radialGradient>
<radialGradient id="paint131_radial_28049_41893" cx="0" cy="0" r="1" gradientTransform="matrix(3.77083 3.77083 -3.77083 10.4568 70.9385 101.637)" gradientUnits="userSpaceOnUse">
<stop stop-color="#00427A"/>
<stop offset="1" stop-color="white"/>
</radialGradient>
<radialGradient id="paint132_radial_28049_41893" cx="0" cy="0" r="1" gradientTransform="matrix(3.41732 3.53515 -3.41732 9.80324 60.7456 126.854)" gradientUnits="userSpaceOnUse">
<stop stop-color="#00427A"/>
<stop offset="1" stop-color="white"/>
</radialGradient>
<radialGradient id="paint133_radial_28049_41893" cx="0" cy="0" r="1" gradientTransform="matrix(3.77083 3.77084 -3.77083 10.4568 35.3516 136.989)" gradientUnits="userSpaceOnUse">
<stop stop-color="#00427A"/>
<stop offset="1" stop-color="white"/>
</radialGradient>
<radialGradient id="paint134_radial_28049_41893" cx="0" cy="0" r="1" gradientTransform="matrix(3.41732 3.77083 -3.41732 10.4568 10.5464 126.619)" gradientUnits="userSpaceOnUse">
<stop stop-color="#00427A"/>
<stop offset="1" stop-color="white"/>
</radialGradient>
<radialGradient id="paint135_radial_28049_41893" cx="0" cy="0" r="1" gradientTransform="matrix(3.77083 3.77083 -3.77083 10.4568 0 101.637)" gradientUnits="userSpaceOnUse">
<stop stop-color="#00427A"/>
<stop offset="1" stop-color="white"/>
</radialGradient>
<radialGradient id="paint136_radial_28049_41893" cx="0" cy="0" r="1" gradientTransform="matrix(3.82975 3.53515 -3.82975 9.80324 10.311 76.6553)" gradientUnits="userSpaceOnUse">
<stop stop-color="#00427A"/>
<stop offset="1" stop-color="white"/>
</radialGradient>
<radialGradient id="paint137_radial_28049_41893" cx="0" cy="0" r="1" gradientTransform="matrix(3.77083 3.77083 -3.77083 10.4568 35.3516 66.0498)" gradientUnits="userSpaceOnUse">
<stop stop-color="#00427A"/>
<stop offset="1" stop-color="white"/>
</radialGradient>
<radialGradient id="paint138_radial_28049_41893" cx="0" cy="0" r="1" gradientTransform="matrix(3.59408 3.3584 -3.59408 9.31307 60.8047 76.832)" gradientUnits="userSpaceOnUse">
<stop stop-color="#00427A"/>
<stop offset="1" stop-color="white"/>
</radialGradient>
<radialGradient id="paint139_radial_28049_41893" cx="0" cy="0" r="1" gradientTransform="matrix(19.3255 19.5612 -19.3255 54.2446 27.5742 93.624)" gradientUnits="userSpaceOnUse">
<stop stop-color="#00427A"/>
<stop offset="1" stop-color="white"/>
</radialGradient>
</defs>
</svg>
